<svg width="80" height="80" viewBox="0 0 80 80" fill="none" xmlns="http://www.w3.org/2000/svg">
<g id="vuesax/outline/bank">
<g id="vuesax/outline/bank_2">
<g id="bank">
<path id="Vector" d="M70.0003 39.1667H10.0003C6.80033 39.1667 4.16699 36.5334 4.16699 33.3334V22.2667C4.16699 20 5.73358 17.7 7.83358 16.8667L37.8336 4.86676C39.1002 4.36676 40.9004 4.36676 42.1671 4.86676L72.1671 16.8667C74.2671 17.7 75.8337 20.0333 75.8337 22.2667V33.3334C75.8337 36.5334 73.2003 39.1667 70.0003 39.1667ZM40.0003 9.46678C39.867 9.46678 39.7337 9.46661 39.6671 9.49994L9.70024 21.5001C9.50024 21.6001 9.16699 22.0333 9.16699 22.2667V33.3334C9.16699 33.8 9.53366 34.1667 10.0003 34.1667H70.0003C70.467 34.1667 70.8337 33.8 70.8337 33.3334V22.2667C70.8337 22.0333 70.5338 21.6001 70.3004 21.5001L40.3004 9.49994C40.2337 9.46661 40.1337 9.46678 40.0003 9.46678Z" fill="#417F56"/>
<path id="Vector_2" d="M73.3337 75.8333H6.66699C5.30033 75.8333 4.16699 74.7 4.16699 73.3333V63.3333C4.16699 60.1333 6.80033 57.5 10.0003 57.5H70.0003C73.2003 57.5 75.8337 60.1333 75.8337 63.3333V73.3333C75.8337 74.7 74.7003 75.8333 73.3337 75.8333ZM9.16699 70.8333H70.8337V63.3333C70.8337 62.8667 70.467 62.5 70.0003 62.5H10.0003C9.53366 62.5 9.16699 62.8667 9.16699 63.3333V70.8333Z" fill="#417F56"/>
<path id="Vector_3" d="M13.333 62.5C11.9663 62.5 10.833 61.3667 10.833 60V36.6667C10.833 35.3 11.9663 34.1667 13.333 34.1667C14.6997 34.1667 15.833 35.3 15.833 36.6667V60C15.833 61.3667 14.6997 62.5 13.333 62.5Z" fill="#417F56"/>
<path id="Vector_4" d="M26.667 62.5C25.3003 62.5 24.167 61.3667 24.167 60V36.6667C24.167 35.3 25.3003 34.1667 26.667 34.1667C28.0337 34.1667 29.167 35.3 29.167 36.6667V60C29.167 61.3667 28.0337 62.5 26.667 62.5Z" fill="#417F56"/>
<path id="Vector_5" d="M40 62.5C38.6333 62.5 37.5 61.3667 37.5 60V36.6667C37.5 35.3 38.6333 34.1667 40 34.1667C41.3667 34.1667 42.5 35.3 42.5 36.6667V60C42.5 61.3667 41.3667 62.5 40 62.5Z" fill="#417F56"/>
<path id="Vector_6" d="M53.333 62.5C51.9663 62.5 50.833 61.3667 50.833 60V36.6667C50.833 35.3 51.9663 34.1667 53.333 34.1667C54.6997 34.1667 55.833 35.3 55.833 36.6667V60C55.833 61.3667 54.6997 62.5 53.333 62.5Z" fill="#417F56"/>
<path id="Vector_7" d="M66.667 62.5C65.3003 62.5 64.167 61.3667 64.167 60V36.6667C64.167 35.3 65.3003 34.1667 66.667 34.1667C68.0337 34.1667 69.167 35.3 69.167 36.6667V60C69.167 61.3667 68.0337 62.5 66.667 62.5Z" fill="#417F56"/>
<path id="Vector_8" d="M76.6663 75.8334H3.33301C1.96634 75.8334 0.833008 74.7 0.833008 73.3334C0.833008 71.9667 1.96634 70.8334 3.33301 70.8334H76.6663C78.033 70.8334 79.1663 71.9667 79.1663 73.3334C79.1663 74.7 78.033 75.8334 76.6663 75.8334Z" fill="#417F56"/>
<path id="Vector_9" d="M40 30.8333C35.8667 30.8333 32.5 27.4666 32.5 23.3333C32.5 19.2 35.8667 15.8333 40 15.8333C44.1333 15.8333 47.5 19.2 47.5 23.3333C47.5 27.4666 44.1333 30.8333 40 30.8333ZM40 20.8333C38.6333 20.8333 37.5 21.9666 37.5 23.3333C37.5 24.7 38.6333 25.8333 40 25.8333C41.3667 25.8333 42.5 24.7 42.5 23.3333C42.5 21.9666 41.3667 20.8333 40 20.8333Z" fill="#417F56"/>
</g>
</g>
</g>
</svg>
