<svg width="80" height="80" viewBox="0 0 80 80" fill="none" xmlns="http://www.w3.org/2000/svg">
<g id="vuesax/outline/book">
<g id="vuesax/outline/book_2">
<g id="book">
<path id="Vector" d="M40.0003 73.6C39.0003 73.6 38.0003 73.3667 37.167 72.9C30.9337 69.5 19.967 65.9 13.1003 65L12.1337 64.8667C7.76699 64.3333 4.16699 60.2333 4.16699 55.8V15.5333C4.16699 12.9 5.20033 10.5 7.10033 8.76667C9.00033 7.03334 11.467 6.20001 14.067 6.43334C21.4003 7.00001 32.467 10.6667 38.7337 14.6L39.5337 15.0667C39.767 15.2 40.267 15.2 40.467 15.1L41.0003 14.7667C47.267 10.8333 58.3337 7.10001 65.7003 6.46667C65.767 6.46667 66.0337 6.46667 66.1003 6.46667C68.5337 6.23334 71.0337 7.10001 72.9003 8.83334C74.8003 10.5667 75.8337 12.9667 75.8337 15.6V55.8333C75.8337 60.3 72.2337 64.3667 67.8337 64.9L66.7337 65.0333C59.867 65.9333 48.867 69.5667 42.767 72.9333C41.967 73.4 41.0003 73.6 40.0003 73.6ZM13.267 11.4C12.2003 11.4 11.2337 11.7667 10.467 12.4667C9.63366 13.2333 9.16699 14.3333 9.16699 15.5333V55.8C9.16699 57.7667 10.867 59.6667 12.767 59.9333L13.767 60.0667C21.267 61.0667 32.767 64.8333 39.4337 68.4667C39.7337 68.6 40.167 68.6333 40.3337 68.5667C47.0003 64.8667 58.567 61.0667 66.1003 60.0667L67.2337 59.9333C69.1337 59.7 70.8337 57.7667 70.8337 55.8V15.5667C70.8337 14.3333 70.367 13.2667 69.5337 12.4667C68.667 11.7 67.567 11.3333 66.3337 11.4C66.267 11.4 66.0003 11.4 65.9337 11.4C59.567 11.9667 49.3003 15.4 43.7003 18.9L43.167 19.2667C41.3337 20.4 38.7337 20.4 36.967 19.3L36.167 18.8333C30.467 15.3333 20.2003 11.9333 13.667 11.4C13.5337 11.4 13.4003 11.4 13.267 11.4Z" fill="#417F56"/>
<path id="Vector_2" d="M40 70.8C38.6333 70.8 37.5 69.6667 37.5 68.3V18.3C37.5 16.9333 38.6333 15.8 40 15.8C41.3667 15.8 42.5 16.9333 42.5 18.3V68.3C42.5 69.7 41.3667 70.8 40 70.8Z" fill="#417F56"/>
<path id="Vector_3" d="M25.833 30.8H18.333C16.9663 30.8 15.833 29.6667 15.833 28.3C15.833 26.9333 16.9663 25.8 18.333 25.8H25.833C27.1997 25.8 28.333 26.9333 28.333 28.3C28.333 29.6667 27.1997 30.8 25.833 30.8Z" fill="#417F56"/>
<path id="Vector_4" d="M28.333 40.8H18.333C16.9663 40.8 15.833 39.6667 15.833 38.3C15.833 36.9334 16.9663 35.8 18.333 35.8H28.333C29.6997 35.8 30.833 36.9334 30.833 38.3C30.833 39.6667 29.6997 40.8 28.333 40.8Z" fill="#417F56"/>
</g>
</g>
</g>
</svg>
