<svg width="12" height="12" viewBox="0 0 12 12" fill="none" xmlns="http://www.w3.org/2000/svg">
<g id="vuesax/outline/call-calling">
<g id="vuesax/outline/call-calling_2">
<g id="call-calling">
<path id="Vector" d="M8.725 11.375C8.16 11.375 7.565 11.24 6.95 10.98C6.35 10.725 5.745 10.375 5.155 9.95C4.57 9.52 4.005 9.04 3.47 8.515C2.94 7.98 2.46 7.415 2.035 6.835C1.605 6.235 1.26 5.635 1.015 5.055C0.755 4.435 0.625 3.835 0.625 3.27C0.625 2.88 0.695 2.51 0.83 2.165C0.97 1.81 1.195 1.48 1.5 1.195C1.885 0.815 2.325 0.625 2.795 0.625C2.99 0.625 3.19 0.67 3.36 0.75C3.555 0.84 3.72 0.975 3.84 1.155L5 2.79C5.105 2.935 5.185 3.075 5.24 3.215C5.305 3.365 5.34 3.515 5.34 3.66C5.34 3.85 5.285 4.035 5.18 4.21C5.105 4.345 4.99 4.49 4.845 4.635L4.505 4.99C4.51 5.005 4.515 5.015 4.52 5.025C4.58 5.13 4.7 5.31 4.93 5.58C5.175 5.86 5.405 6.115 5.635 6.35C5.93 6.64 6.175 6.87 6.405 7.06C6.69 7.3 6.875 7.42 6.985 7.475L6.975 7.5L7.34 7.14C7.495 6.985 7.645 6.87 7.79 6.795C8.065 6.625 8.415 6.595 8.765 6.74C8.895 6.795 9.035 6.87 9.185 6.975L10.845 8.155C11.03 8.28 11.165 8.44 11.245 8.63C11.32 8.82 11.355 8.995 11.355 9.17C11.355 9.41 11.3 9.65 11.195 9.875C11.09 10.1 10.96 10.295 10.795 10.475C10.51 10.79 10.2 11.015 9.84 11.16C9.495 11.3 9.12 11.375 8.725 11.375ZM2.795 1.375C2.52 1.375 2.265 1.495 2.02 1.735C1.79 1.95 1.63 2.185 1.53 2.44C1.425 2.7 1.375 2.975 1.375 3.27C1.375 3.735 1.485 4.24 1.705 4.76C1.93 5.29 2.245 5.84 2.645 6.39C3.045 6.94 3.5 7.475 4 7.98C4.5 8.475 5.04 8.935 5.595 9.34C6.135 9.735 6.69 10.055 7.24 10.285C8.095 10.65 8.895 10.735 9.555 10.46C9.81 10.355 10.035 10.195 10.24 9.965C10.355 9.84 10.445 9.705 10.52 9.545C10.58 9.42 10.61 9.29 10.61 9.16C10.61 9.08 10.595 9 10.555 8.91C10.54 8.88 10.51 8.825 10.415 8.76L8.755 7.58C8.655 7.51 8.565 7.46 8.48 7.425C8.37 7.38 8.325 7.335 8.155 7.44C8.055 7.49 7.965 7.565 7.865 7.665L7.485 8.04C7.29 8.23 6.99 8.275 6.76 8.19L6.625 8.13C6.42 8.02 6.18 7.85 5.915 7.625C5.675 7.42 5.415 7.18 5.1 6.87C4.855 6.62 4.61 6.355 4.355 6.06C4.12 5.785 3.95 5.55 3.845 5.355L3.785 5.205C3.755 5.09 3.745 5.025 3.745 4.955C3.745 4.775 3.81 4.615 3.935 4.49L4.31 4.1C4.41 4 4.485 3.905 4.535 3.82C4.575 3.755 4.59 3.7 4.59 3.65C4.59 3.61 4.575 3.55 4.55 3.49C4.515 3.41 4.46 3.32 4.39 3.225L3.23 1.585C3.18 1.515 3.12 1.465 3.045 1.43C2.965 1.395 2.88 1.375 2.795 1.375ZM6.975 7.505L6.895 7.845L7.03 7.495C7.005 7.49 6.985 7.495 6.975 7.505Z" fill="#353535"/>
<path id="Vector_2" d="M9.25 4.875C9.045 4.875 8.875 4.705 8.875 4.5C8.875 4.32 8.695 3.945 8.395 3.625C8.1 3.31 7.775 3.125 7.5 3.125C7.295 3.125 7.125 2.955 7.125 2.75C7.125 2.545 7.295 2.375 7.5 2.375C7.985 2.375 8.495 2.635 8.94 3.11C9.355 3.555 9.625 4.1 9.625 4.5C9.625 4.705 9.455 4.875 9.25 4.875Z" fill="#353535"/>
<path id="Vector_3" d="M11 4.875C10.795 4.875 10.625 4.705 10.625 4.5C10.625 2.775 9.225 1.375 7.5 1.375C7.295 1.375 7.125 1.205 7.125 1C7.125 0.795 7.295 0.625 7.5 0.625C9.635 0.625 11.375 2.365 11.375 4.5C11.375 4.705 11.205 4.875 11 4.875Z" fill="#353535"/>
</g>
</g>
</g>
</svg>
