<svg width="81" height="80" viewBox="0 0 81 80" fill="none" xmlns="http://www.w3.org/2000/svg">
<g id="vuesax/outline/chart">
<g id="vuesax/outline/chart_2">
<g id="chart">
<path id="Vector" d="M70.667 75.8334H10.667C9.30033 75.8334 8.16699 74.7 8.16699 73.3334C8.16699 71.9667 9.30033 70.8334 10.667 70.8334H70.667C72.0337 70.8334 73.167 71.9667 73.167 73.3334C73.167 74.7 72.0337 75.8334 70.667 75.8334Z" fill="#417F56"/>
<path id="Vector_2" d="M19.3336 65.8333H14.0003C10.8003 65.8333 8.16699 63.2 8.16699 60V31.2667C8.16699 28.0667 10.8003 25.4333 14.0003 25.4333H19.3336C22.5336 25.4333 25.1669 28.0667 25.1669 31.2667V60C25.1669 63.2 22.5336 65.8333 19.3336 65.8333ZM14.0003 30.4C13.5337 30.4 13.167 30.7667 13.167 31.2333V60C13.167 60.4667 13.5337 60.8333 14.0003 60.8333H19.3336C19.8002 60.8333 20.1669 60.4667 20.1669 60V31.2667C20.1669 30.8 19.8002 30.4333 19.3336 30.4333H14.0003V30.4Z" fill="#417F56"/>
<path id="Vector_3" d="M43.3346 65.8333H38.0013C34.8013 65.8333 32.168 63.2 32.168 60V20.6333C32.168 17.4333 34.8013 14.8 38.0013 14.8H43.3346C46.5346 14.8 49.1679 17.4333 49.1679 20.6333V60C49.1679 63.2 46.5346 65.8333 43.3346 65.8333ZM38.0013 19.8C37.5346 19.8 37.168 20.1667 37.168 20.6333V60C37.168 60.4666 37.5346 60.8333 38.0013 60.8333H43.3346C43.8012 60.8333 44.1679 60.4666 44.1679 60V20.6333C44.1679 20.1667 43.8012 19.8 43.3346 19.8H38.0013Z" fill="#417F56"/>
<path id="Vector_4" d="M67.3336 65.8334H62.0003C58.8003 65.8334 56.167 63.2 56.167 60V10C56.167 6.80002 58.8003 4.16669 62.0003 4.16669H67.3336C70.5336 4.16669 73.1669 6.80002 73.1669 10V60C73.1669 63.2 70.5336 65.8334 67.3336 65.8334ZM62.0003 9.16669C61.5337 9.16669 61.167 9.53335 61.167 10V60C61.167 60.4667 61.5337 60.8334 62.0003 60.8334H67.3336C67.8002 60.8334 68.1669 60.4667 68.1669 60V10C68.1669 9.53335 67.8002 9.16669 67.3336 9.16669H62.0003Z" fill="#417F56"/>
</g>
</g>
</g>
</svg>
