<svg width="16" height="16" viewBox="0 0 16 16" fill="none" xmlns="http://www.w3.org/2000/svg">
<g id="vuesax/outline/clock">
<g id="vuesax/outline/clock_2">
<g id="clock">
<path id="Vector" d="M8.00016 15.1667C4.04683 15.1667 0.833496 11.9534 0.833496 8.00004C0.833496 4.04671 4.04683 0.833374 8.00016 0.833374C11.9535 0.833374 15.1668 4.04671 15.1668 8.00004C15.1668 11.9534 11.9535 15.1667 8.00016 15.1667ZM8.00016 1.83337C4.60016 1.83337 1.8335 4.60004 1.8335 8.00004C1.8335 11.4 4.60016 14.1667 8.00016 14.1667C11.4002 14.1667 14.1668 11.4 14.1668 8.00004C14.1668 4.60004 11.4002 1.83337 8.00016 1.83337Z" fill="#353535"/>
<path id="Vector_2" d="M10.4731 10.62C10.3864 10.62 10.2998 10.6 10.2198 10.5467L8.1531 9.31338C7.63977 9.00671 7.25977 8.33338 7.25977 7.74005V5.00671C7.25977 4.73338 7.48643 4.50671 7.75977 4.50671C8.0331 4.50671 8.25977 4.73338 8.25977 5.00671V7.74005C8.25977 7.98005 8.45977 8.33338 8.66643 8.45338L10.7331 9.68671C10.9731 9.82671 11.0464 10.1334 10.9064 10.3734C10.8064 10.5334 10.6398 10.62 10.4731 10.62Z" fill="#353535"/>
</g>
</g>
</g>
</svg>
