<svg width="23" height="23" viewBox="0 0 23 23" fill="none" xmlns="http://www.w3.org/2000/svg">
<g id="vuesax/outline/close-circle">
<g id="vuesax/outline/close-circle_2">
<g id="close-circle">
<path id="Vector" d="M6.24611 16.3813C3.45068 13.5858 3.45068 9.04149 6.24611 6.24607C9.04154 3.45064 13.5859 3.45064 16.3813 6.24607C19.1767 9.04149 19.1767 13.5858 16.3813 16.3813C13.5859 19.1767 9.04154 19.1767 6.24611 16.3813ZM15.6742 6.95317C13.27 4.54901 9.35738 4.54901 6.95321 6.95317C4.54905 9.35734 4.54905 13.27 6.95321 15.6742C9.35738 18.0783 13.27 18.0783 15.6742 15.6742C18.0784 13.27 18.0784 9.35734 15.6742 6.95317Z" fill="#417F56"/>
<path id="Vector_2" d="M8.292 11.6674C8.20244 11.5778 8.14587 11.4552 8.14587 11.3138C8.14587 11.0404 8.37214 10.8141 8.64556 10.8141H13.9819C14.2553 10.8141 14.4815 11.0404 14.4815 11.3138C14.4815 11.5872 14.2553 11.8135 13.9819 11.8135H8.64556C8.50885 11.8182 8.38157 11.7569 8.292 11.6674Z" fill="#417F56"/>
<path id="Vector_3" d="M10.9602 14.3355C10.8706 14.246 10.814 14.1234 10.814 13.982L10.814 8.64567C10.814 8.37225 11.0403 8.14598 11.3137 8.14598C11.5871 8.14598 11.8134 8.37225 11.8134 8.64567L11.8134 13.982C11.8134 14.2554 11.5871 14.4817 11.3137 14.4817C11.1723 14.4817 11.0497 14.4251 10.9602 14.3355Z" fill="#417F56"/>
</g>
</g>
</g>
</svg>
