<svg width="24" height="24" viewBox="0 0 24 24" fill="none" xmlns="http://www.w3.org/2000/svg">
<g id="vuesax/outline/command-square">
<g id="vuesax/outline/command-square_2">
<g id="command-square">
<path id="Vector" d="M14.4001 15.15H9.6001C9.1901 15.15 8.8501 14.81 8.8501 14.4V9.59998C8.8501 9.18998 9.1901 8.84998 9.6001 8.84998H14.4001C14.8101 8.84998 15.1501 9.18998 15.1501 9.59998V14.4C15.1501 14.81 14.8101 15.15 14.4001 15.15ZM10.3501 13.65H13.6501V10.35H10.3501V13.65Z" fill="#353535"/>
<path id="Vector_2" d="M7.79999 18.75C6.38999 18.75 5.25 17.61 5.25 16.2C5.25 14.79 6.38999 13.65 7.79999 13.65H9.59998C10.01 13.65 10.35 13.99 10.35 14.4V16.2C10.35 17.61 9.20999 18.75 7.79999 18.75ZM7.79999 15.15C7.21999 15.15 6.75 15.62 6.75 16.2C6.75 16.78 7.21999 17.25 7.79999 17.25C8.37999 17.25 8.84998 16.78 8.84998 16.2V15.15H7.79999Z" fill="#353535"/>
<path id="Vector_3" d="M9.59998 10.35H7.79999C6.38999 10.35 5.25 9.20999 5.25 7.79999C5.25 6.38999 6.38999 5.25 7.79999 5.25C9.20999 5.25 10.35 6.38999 10.35 7.79999V9.60001C10.35 10.01 10.01 10.35 9.59998 10.35ZM7.79999 6.75C7.21999 6.75 6.75 7.21999 6.75 7.79999C6.75 8.37999 7.21999 8.85001 7.79999 8.85001H8.84998V7.79999C8.84998 7.21999 8.37999 6.75 7.79999 6.75Z" fill="#353535"/>
<path id="Vector_4" d="M16.1999 10.35H14.3999C13.9899 10.35 13.6499 10.01 13.6499 9.60001V7.79999C13.6499 6.38999 14.7899 5.25 16.1999 5.25C17.6099 5.25 18.7499 6.38999 18.7499 7.79999C18.7499 9.20999 17.6099 10.35 16.1999 10.35ZM15.1499 8.85001H16.1999C16.7799 8.85001 17.2499 8.37999 17.2499 7.79999C17.2499 7.21999 16.7799 6.75 16.1999 6.75C15.6199 6.75 15.1499 7.21999 15.1499 7.79999V8.85001Z" fill="#353535"/>
<path id="Vector_5" d="M16.1999 18.75C14.7899 18.75 13.6499 17.61 13.6499 16.2V14.4C13.6499 13.99 13.9899 13.65 14.3999 13.65H16.1999C17.6099 13.65 18.7499 14.79 18.7499 16.2C18.7499 17.61 17.6099 18.75 16.1999 18.75ZM15.1499 15.15V16.2C15.1499 16.78 15.6199 17.25 16.1999 17.25C16.7799 17.25 17.2499 16.78 17.2499 16.2C17.2499 15.62 16.7799 15.15 16.1999 15.15H15.1499Z" fill="#353535"/>
<path id="Vector_6" d="M15 22.75H9C3.57 22.75 1.25 20.43 1.25 15V9C1.25 3.57 3.57 1.25 9 1.25H15C20.43 1.25 22.75 3.57 22.75 9V15C22.75 20.43 20.43 22.75 15 22.75ZM9 2.75C4.39 2.75 2.75 4.39 2.75 9V15C2.75 19.61 4.39 21.25 9 21.25H15C19.61 21.25 21.25 19.61 21.25 15V9C21.25 4.39 19.61 2.75 15 2.75H9Z" fill="#353535"/>
</g>
</g>
</g>
</svg>
