<svg width="24" height="24" viewBox="0 0 24 24" fill="none" xmlns="http://www.w3.org/2000/svg">
<g id="vuesax/bold/diagram">
<g id="vuesax/bold/diagram_2">
<g id="diagram">
<path id="Vector" d="M22 22.75H5C2.93 22.75 1.25 21.07 1.25 19V2C1.25 1.59 1.59 1.25 2 1.25C2.41 1.25 2.75 1.59 2.75 2V19C2.75 20.24 3.76 21.25 5 21.25H22C22.41 21.25 22.75 21.59 22.75 22C22.75 22.41 22.41 22.75 22 22.75Z" fill="white"/>
<path id="Vector_2" d="M4.99982 17.7499C4.82982 17.7499 4.64982 17.6899 4.50982 17.5699C4.19982 17.2999 4.15982 16.8299 4.42982 16.5099L9.01982 11.1499C9.51982 10.5699 10.2398 10.2199 10.9998 10.1899C11.7598 10.1699 12.5098 10.4499 13.0498 10.9899L13.9998 11.9399C14.2498 12.1899 14.5698 12.3099 14.9298 12.3099C15.2798 12.2999 15.5998 12.1399 15.8298 11.8699L20.4198 6.50994C20.6898 6.19994 21.1598 6.15994 21.4798 6.42994C21.7898 6.69994 21.8298 7.16994 21.5598 7.48994L16.9698 12.8499C16.4698 13.4299 15.7498 13.7799 14.9898 13.8099C14.2198 13.8299 13.4798 13.5499 12.9398 13.0099L11.9998 12.0599C11.7498 11.8099 11.4198 11.6799 11.0698 11.6899C10.7198 11.6999 10.3998 11.8599 10.1698 12.1299L5.57982 17.4899C5.41982 17.6599 5.20982 17.7499 4.99982 17.7499Z" fill="white"/>
</g>
</g>
</g>
</svg>
