<svg width="24" height="24" viewBox="0 0 24 24" fill="none" xmlns="http://www.w3.org/2000/svg">
<g id="vuesax/outline/edit-2">
<g id="vuesax/outline/edit-2_2">
<g id="edit-2">
<path id="Vector" d="M5.53999 19.5201C4.92999 19.5201 4.35999 19.31 3.94999 18.92C3.42999 18.43 3.17999 17.69 3.26999 16.89L3.63999 13.65C3.70999 13.04 4.07999 12.23 4.50999 11.79L12.72 3.10005C14.77 0.930049 16.91 0.870049 19.08 2.92005C21.25 4.97005 21.31 7.11005 19.26 9.28005L11.05 17.97C10.63 18.42 9.84999 18.84 9.23999 18.9401L6.01999 19.49C5.84999 19.5 5.69999 19.5201 5.53999 19.5201ZM15.93 2.91005C15.16 2.91005 14.49 3.39005 13.81 4.11005L5.59999 12.8101C5.39999 13.0201 5.16999 13.5201 5.12999 13.8101L4.75999 17.05C4.71999 17.38 4.79999 17.65 4.97999 17.82C5.15999 17.99 5.42999 18.05 5.75999 18L8.97999 17.4501C9.26999 17.4001 9.74999 17.14 9.94999 16.93L18.16 8.24005C19.4 6.92005 19.85 5.70005 18.04 4.00005C17.24 3.23005 16.55 2.91005 15.93 2.91005Z" fill="#353535"/>
<path id="Vector_2" d="M17.34 10.9501C17.32 10.9501 17.29 10.9501 17.27 10.9501C14.15 10.6401 11.64 8.27009 11.16 5.17009C11.1 4.76009 11.38 4.38009 11.79 4.31009C12.2 4.25009 12.58 4.53009 12.65 4.94009C13.03 7.36009 14.99 9.22009 17.43 9.46009C17.84 9.50009 18.14 9.87009 18.1 10.2801C18.05 10.6601 17.72 10.9501 17.34 10.9501Z" fill="#353535"/>
<path id="Vector_3" d="M21 22.75H3C2.59 22.75 2.25 22.41 2.25 22C2.25 21.59 2.59 21.25 3 21.25H21C21.41 21.25 21.75 21.59 21.75 22C21.75 22.41 21.41 22.75 21 22.75Z" fill="#353535"/>
</g>
</g>
</g>
</svg>
