<svg width="81" height="80" viewBox="0 0 81 80" fill="none" xmlns="http://www.w3.org/2000/svg">
<g id="vuesax/outline/empty-wallet">
<g id="vuesax/outline/empty-wallet_2">
<g id="empty-wallet">
<path id="Vector" d="M59.466 75.8333H21.1993C12.8993 75.8333 6.16602 69.0999 6.16602 60.7999V38.3667C6.16602 30.0667 12.8993 23.3333 21.1993 23.3333H59.466C67.766 23.3333 74.4993 30.0667 74.4993 38.3667V43.1667C74.4993 44.5334 73.366 45.6667 71.9993 45.6667H65.266C64.0993 45.6667 63.0327 46.1 62.266 46.9L62.2327 46.9334C61.2993 47.8334 60.866 49.0666 60.966 50.3332C61.166 52.5332 63.266 54.2999 65.666 54.2999H71.9993C73.366 54.2999 74.4993 55.4332 74.4993 56.7999V60.7666C74.4993 69.0999 67.766 75.8333 59.466 75.8333ZM21.1993 28.3333C15.666 28.3333 11.166 32.8333 11.166 38.3667V60.7999C11.166 66.3333 15.666 70.8333 21.1993 70.8333H59.466C64.9993 70.8333 69.4993 66.3333 69.4993 60.7999V59.3333H65.666C60.6327 59.3333 56.366 55.5999 55.966 50.7999C55.6993 48.0666 56.6993 45.3667 58.6993 43.4C60.4327 41.6334 62.766 40.6667 65.266 40.6667H69.4993V38.3667C69.4993 32.8333 64.9993 28.3333 59.466 28.3333H21.1993Z" fill="#417F56"/>
<path id="Vector_2" d="M8.66602 43.8667C7.29935 43.8667 6.16602 42.7334 6.16602 41.3667V26.1336C6.16602 21.1669 9.29935 16.6667 13.9327 14.9L40.3993 4.90004C43.1327 3.8667 46.166 4.23353 48.5327 5.9002C50.9327 7.56687 52.3327 10.2668 52.3327 13.1668V25.8335C52.3327 27.2001 51.1993 28.3335 49.8327 28.3335C48.466 28.3335 47.3327 27.2001 47.3327 25.8335V13.1668C47.3327 11.9002 46.7327 10.7335 45.666 10.0001C44.5993 9.2668 43.3327 9.10012 42.1327 9.56679L15.666 19.5668C12.966 20.6001 11.1327 23.2336 11.1327 26.1336V41.3667C11.166 42.7667 10.0327 43.8667 8.66602 43.8667Z" fill="#417F56"/>
<path id="Vector_3" d="M46.9993 42.5H23.666C22.2993 42.5 21.166 41.3667 21.166 40C21.166 38.6333 22.2993 37.5 23.666 37.5H46.9993C48.366 37.5 49.4993 38.6333 49.4993 40C49.4993 41.3667 48.366 42.5 46.9993 42.5Z" fill="#417F56"/>
</g>
</g>
</g>
</svg>
