<svg width="155" height="51" viewBox="0 0 155 51" fill="none" xmlns="http://www.w3.org/2000/svg">
<path d="M0.926758 12.3983C0.926758 12.3175 0.974221 12.277 1.06915 12.277C1.1922 12.277 1.38733 12.3561 1.65453 12.5144C4.13669 14.0472 7.35893 14.8137 11.3212 14.8137C13.7472 14.8137 16.1115 14.3936 18.4144 13.5533C18.8187 13.4021 19.2371 13.156 19.6695 12.815C20.0281 12.4845 20.392 12.1575 20.7612 11.834L20.8034 11.7708C20.8034 11.6618 20.5801 11.5756 20.1336 11.5124C19.8875 11.4596 19.6273 11.4227 19.3531 11.4016C19.1808 11.3735 18.9875 11.2838 18.773 11.1326C18.5339 10.9885 18.4074 10.8303 18.3933 10.658V10.2467C18.3933 9.56811 18.6974 8.82803 19.3057 8.02642C19.9139 7.22482 20.5344 6.76249 21.1673 6.63944C21.5083 6.78359 21.6788 7.01036 21.6788 7.31975C21.6788 7.45686 21.6419 7.65199 21.5681 7.90513C21.4767 8.17585 21.3624 8.32351 21.2253 8.34812C20.944 8.05982 20.7594 7.91568 20.6715 7.91568C20.443 7.91568 20.0914 8.18112 19.6168 8.71201C19.1457 9.23938 18.9101 9.62436 18.9101 9.86695C18.9101 9.94781 18.9224 9.99879 18.947 10.0199C19.2037 10.1922 19.441 10.2924 19.659 10.3205C20.3692 10.4224 20.7436 10.4805 20.7823 10.4945C21.2147 10.6246 21.431 10.8988 21.431 11.3172C21.431 11.9852 21.1356 12.6444 20.545 13.2949C20.0246 13.8328 19.4199 14.2424 18.7308 14.5236C17.6479 14.9491 16.4262 15.3059 15.0656 15.5942C13.6487 15.8966 12.3936 16.0477 11.3002 16.0477C8.3539 16.0477 6.03523 15.7225 4.34412 15.0721C3.9609 14.8998 3.72183 14.7926 3.6269 14.7504C2.98702 14.318 2.47723 13.9576 2.09752 13.6693C1.31701 13.0013 0.926758 12.5776 0.926758 12.3983Z" fill="#417F56"/>
<path d="M22.5121 3.43302C22.6 2.86346 22.7406 2.49957 22.934 2.34136C22.9656 2.37652 22.992 2.40113 23.0131 2.41519C23.1045 2.90389 23.2135 3.69495 23.34 4.78836C23.4666 5.87827 23.5721 6.85918 23.6565 7.7311C23.7444 8.60302 23.7883 9.06359 23.7883 9.11281C23.7883 9.21477 23.7619 9.3765 23.7092 9.59799C23.66 9.81597 23.5563 9.96364 23.3981 10.041C23.2855 9.14797 23.173 8.26023 23.0605 7.37776C22.9515 6.49529 22.832 5.62688 22.7019 4.77254C22.5754 3.91469 22.5121 3.46818 22.5121 3.43302Z" fill="#417F56"/>
<path d="M27.3006 8.94932C27.3006 8.66103 27.4254 8.19694 27.675 7.55706C27.9493 6.93125 28.1848 6.50584 28.3817 6.28083C28.8493 6.52693 29.1833 6.74667 29.3837 6.94004C29.658 7.2213 29.7951 7.58519 29.7951 8.0317C29.7951 8.8544 29.5138 9.44154 28.9513 9.79312C28.9091 9.86344 28.7825 9.91793 28.5716 9.9566C28.3641 9.99176 28.2024 10.0093 28.0864 10.0093C27.8368 10.0093 27.6364 9.89332 27.4852 9.66128C27.3621 9.44681 27.3006 9.20949 27.3006 8.94932ZM27.9598 8.46414C27.9598 8.54501 28.0073 8.62939 28.1022 8.71728C28.2006 8.80166 28.278 8.84385 28.3342 8.84385H28.4977C28.8423 8.84385 29.0655 8.77178 29.1675 8.62763C29.1675 8.36746 29.0778 8.13893 28.8985 7.94205C28.7192 7.74164 28.5171 7.62035 28.2921 7.57816C28.0706 7.96138 27.9598 8.25671 27.9598 8.46414Z" fill="#417F56"/>
<path d="M30.0851 13.2158C30.0851 13.1454 30.3418 13.0382 30.8551 12.8941C31.625 12.6409 32.1542 12.4282 32.4425 12.2559C32.9804 11.9395 33.3478 11.5756 33.5447 11.1643C33.5798 11.0623 33.5974 11.0043 33.5974 10.9903C33.5974 10.5437 33.557 10.1799 33.4761 9.89859C33.4339 9.77906 33.2687 9.43451 32.9804 8.86495C33.0261 8.29538 33.1052 7.95259 33.2177 7.83657L33.4339 7.96841C33.6378 8.28484 33.7539 8.46063 33.782 8.49579C33.9121 8.63993 34.0914 8.74541 34.3199 8.81221C34.6012 8.92471 34.7822 8.96339 34.8631 8.92823V10.0199C34.5889 10.034 34.3182 10.0023 34.051 9.92496V10.4207C34.051 11.0746 33.8629 11.6864 33.4867 12.2559C33.114 12.8255 32.6323 13.2316 32.0417 13.4742C30.7373 13.5128 30.0851 13.4267 30.0851 13.2158Z" fill="#417F56"/>
<path d="M34.6522 8.92823C34.8315 8.93526 35.0934 8.86319 35.4379 8.71201C35.7825 8.56083 35.9882 8.48524 36.055 8.48524C36.1851 8.48524 36.4101 8.55907 36.73 8.70673C37.0499 8.8544 37.3066 8.92823 37.5 8.92823V10.0199C37.2785 10.0199 37.0113 9.93903 36.6984 9.7773C36.3855 9.61557 36.171 9.53471 36.055 9.53471C36.0022 9.53471 35.8212 9.61557 35.5118 9.7773C35.2024 9.93903 34.9475 10.0199 34.7471 10.0199H34.6522V8.92823ZM36.1393 11.8182C36.3046 11.3366 36.4558 11.0711 36.5929 11.0219C36.7159 11.0852 36.8495 11.1643 36.9937 11.2592C37.1449 11.3823 37.2486 11.493 37.3048 11.5915C37.1958 12.147 37.0412 12.4247 36.8408 12.4247C36.7669 12.4247 36.6333 12.3491 36.4399 12.1979C36.2888 12.0397 36.1886 11.9132 36.1393 11.8182ZM34.8737 12.3034C34.8737 12.1382 35.0037 11.8692 35.2639 11.4965C35.6612 11.7708 35.9161 11.9641 36.0286 12.0766V12.1136C36.0286 12.2401 35.9934 12.3948 35.9231 12.5776C35.8423 12.771 35.7632 12.8677 35.6858 12.8677C35.5979 12.8677 35.4397 12.7939 35.2112 12.6462C34.9862 12.4985 34.8737 12.3843 34.8737 12.3034Z" fill="#417F56"/>
<path d="M37.2626 8.92823C37.8322 8.92823 38.4422 8.85616 39.0926 8.71201C39.7958 8.5327 40.3777 8.31296 40.8382 8.05279C39.9382 7.75043 39.4284 7.59925 39.3088 7.59925C39.1577 7.59925 38.9221 7.65199 38.6022 7.75747C38.2857 7.86294 38.0414 7.91568 37.8691 7.91568C38.0414 7.31096 38.1434 6.99629 38.175 6.97168C38.2664 6.79941 38.4967 6.61658 38.8659 6.42322C38.9924 6.3529 39.1682 6.31774 39.3932 6.31774C39.4882 6.31774 39.8767 6.4654 40.5587 6.76073C41.3146 7.09825 41.7682 7.29162 41.9193 7.34084C42.7034 7.57992 43.4487 7.69945 44.1554 7.69945C44.2222 7.75571 44.2591 7.80141 44.2661 7.83657C44.2661 7.96666 44.1747 8.22331 43.9919 8.60653H43.8126C43.3344 8.60653 42.9741 8.56962 42.7315 8.49579L42.6998 8.64872L42.7315 8.8333C42.8756 8.97745 43.0883 9.04953 43.3696 9.04953C43.7915 9.04953 44.187 9.00909 44.5562 8.92823V10.0199L43.4012 10.041C43.12 10.048 42.8879 9.9566 42.7051 9.76675C42.5258 9.5769 42.4362 9.34134 42.4362 9.06007C42.4362 9.01437 42.4432 8.94757 42.4573 8.85967C42.4748 8.76826 42.4836 8.69794 42.4836 8.64872V8.49579C42.1496 8.49579 41.7594 8.57138 41.3129 8.72256C40.7011 8.94757 40.223 9.14269 39.8784 9.30794C39.2034 9.58217 38.7973 9.73687 38.6602 9.77202C38.1996 9.93727 37.7742 10.0199 37.3839 10.0199H37.2626V8.92823ZM39.947 11.8024C40.1052 11.2469 40.2704 10.9551 40.4427 10.927C40.5517 10.941 40.6958 10.999 40.8751 11.101C41.1002 11.2451 41.2127 11.3682 41.2127 11.4702C41.2127 11.5475 41.1757 11.6829 41.1019 11.8762C41.0316 12.052 40.956 12.1751 40.8751 12.2454H40.8224C40.6853 12.2454 40.52 12.1979 40.3267 12.103C40.0735 12.0257 39.947 11.9255 39.947 11.8024Z" fill="#417F56"/>
<path d="M44.1079 5.51086C44.2661 4.95537 44.4314 4.66355 44.6037 4.63543C44.7126 4.64949 44.8568 4.7075 45.0361 4.80946C45.2611 4.95361 45.3736 5.07666 45.3736 5.17862C45.3736 5.25597 45.3367 5.39133 45.2629 5.5847C45.1926 5.76049 45.117 5.88354 45.0361 5.95386H44.9834C44.8462 5.95386 44.681 5.90639 44.4876 5.81146C44.2345 5.73412 44.1079 5.63392 44.1079 5.51086ZM44.3769 8.92823C44.8656 8.93526 45.1416 8.83154 45.2049 8.61708C45.1838 8.52919 45.0976 8.36394 44.9464 8.12135C44.8164 7.91743 44.7408 7.74692 44.7197 7.6098C44.8005 7.38127 44.8972 7.12638 45.0097 6.84511H45.0572C45.2154 6.84511 45.3666 7.07188 45.5107 7.52542C45.6619 7.92271 45.7375 8.23562 45.7375 8.46414C45.7375 8.95987 45.6584 9.33079 45.5002 9.5769C45.3103 9.87222 44.9851 10.0199 44.5246 10.0199H44.3769V8.92823Z" fill="#417F56"/>
<path d="M45.3736 12.2243C46.337 12.1645 46.9048 12.1136 47.077 12.0714C47.5868 11.9132 48.0843 11.5985 48.5695 11.1274C49.0582 10.6562 49.3887 10.1605 49.5609 9.64018C49.3957 9.35189 49.2375 9.06886 49.0863 8.79111C48.8402 8.32703 48.7172 8.02291 48.7172 7.87876L48.7541 7.76274C48.7681 7.73461 48.8138 7.61859 48.8912 7.41467C48.951 7.23537 49.009 7.14571 49.0652 7.14571C49.2305 7.14571 49.4256 7.38655 49.6506 7.86821C49.8791 8.28659 49.9934 8.60126 49.9934 8.81221C49.9934 10.215 49.568 11.3453 48.7172 12.2032C48.3164 12.5899 47.9032 12.7833 47.4778 12.7833C47.2247 12.7833 46.5831 12.6937 45.5529 12.5144C45.5248 12.4933 45.465 12.4282 45.3736 12.3192V12.2243ZM47.7151 6.00132C47.8734 5.44582 48.0386 5.15401 48.2109 5.12588C48.3199 5.13995 48.464 5.19796 48.6433 5.29991C48.8683 5.44406 48.9808 5.56712 48.9808 5.66907C48.9808 5.74642 48.9439 5.88178 48.8701 6.07515C48.7998 6.25094 48.7242 6.37399 48.6433 6.44431H48.5906C48.4535 6.44431 48.2882 6.39685 48.0949 6.30192C47.8417 6.22457 47.7151 6.12437 47.7151 6.00132Z" fill="#417F56"/>
<path d="M38.0115 12.3983C38.0115 12.3175 38.059 12.277 38.1539 12.277C38.277 12.277 38.4721 12.3561 38.7393 12.5144C41.2215 14.0472 44.4437 14.8137 48.406 14.8137C50.8319 14.8137 53.1963 14.3936 55.4991 13.5533C55.9035 13.4021 56.3218 13.156 56.7543 12.815C57.1129 12.4845 57.4768 12.1575 57.846 11.834L57.8881 11.7708C57.8881 11.6618 57.6649 11.5756 57.2184 11.5124C56.9723 11.4596 56.7121 11.4227 56.4379 11.4016C56.2656 11.3735 56.0722 11.2838 55.8578 11.1326C55.6187 10.9885 55.4921 10.8303 55.4781 10.658V10.2467C55.4781 9.56811 55.7822 8.82803 56.3904 8.02642C56.9986 7.22482 57.6192 6.76249 58.252 6.63944C58.5931 6.78359 58.7636 7.01036 58.7636 7.31975C58.7636 7.45686 58.7267 7.65199 58.6528 7.90513C58.5614 8.17585 58.4472 8.32351 58.31 8.34812C58.0288 8.05982 57.8442 7.91568 57.7563 7.91568C57.5278 7.91568 57.1762 8.18112 56.7016 8.71201C56.2304 9.23938 55.9949 9.62436 55.9949 9.86695C55.9949 9.94781 56.0072 9.99879 56.0318 10.0199C56.2884 10.1922 56.5258 10.2924 56.7437 10.3205C57.4539 10.4224 57.8284 10.4805 57.867 10.4945C58.2995 10.6246 58.5157 10.8988 58.5157 11.3172C58.5157 11.9852 58.2204 12.6444 57.6297 13.2949C57.1094 13.8328 56.5047 14.2424 55.8156 14.5236C54.7327 14.9491 53.511 15.3059 52.1503 15.5942C50.7335 15.8966 49.4783 16.0477 48.3849 16.0477C45.4387 16.0477 43.12 15.7225 41.4289 15.0721C41.0457 14.8998 40.8066 14.7926 40.7117 14.7504C40.0718 14.318 39.562 13.9576 39.1823 13.6693C38.4018 13.0013 38.0115 12.5776 38.0115 12.3983Z" fill="#417F56"/>
<path d="M59.3595 3.35391C59.4615 2.78084 59.5335 2.42222 59.5757 2.27808C59.6707 2.36246 59.7357 2.51364 59.7709 2.73162C59.8166 2.83006 59.85 2.98827 59.8711 3.20625C60.2297 5.83256 60.4125 7.20373 60.4195 7.31975C60.5215 8.00533 60.6006 8.39383 60.6568 8.48524C60.8151 8.78057 61.1174 8.92823 61.5639 8.92823V10.0199C60.9311 10.0199 60.5461 9.89684 60.409 9.65073C60.3 9.49955 60.1892 9.155 60.0767 8.61708C60.0451 8.37801 59.9941 8.00709 59.9238 7.50433C59.6707 5.37375 59.4826 3.99028 59.3595 3.35391Z" fill="#417F56"/>
<path d="M61.3582 8.92823C61.643 8.92823 61.963 8.88252 62.3181 8.79111C62.7435 8.68916 63.0423 8.57313 63.2146 8.44305C63.0283 8.03873 62.9351 7.81196 62.9351 7.76274C62.9351 7.60453 63.0072 7.41292 63.1513 7.1879C63.3025 6.92422 63.3921 6.7414 63.4203 6.63944C63.3183 6.57615 63.2673 6.46365 63.2673 6.30192C63.2673 6.13668 63.3183 5.95034 63.4203 5.74291C63.5187 5.4968 63.6365 5.37375 63.7736 5.37375C64.2061 5.37375 64.7071 5.70599 65.2766 6.37048C65.7302 6.8873 65.9675 7.15978 65.9886 7.1879C66.2839 7.58519 66.4316 7.92447 66.4316 8.20573C66.4316 8.33582 66.298 8.61708 66.0308 9.04953C65.9534 9.14797 65.8128 9.19719 65.6089 9.19719C64.9198 9.19719 64.4029 9.11105 64.0584 8.93878C63.647 9.16379 63.2392 9.38704 62.8349 9.60854C62.2583 9.88277 61.7977 10.0199 61.4532 10.0199H61.3582V8.92823ZM64.5752 8.23737C65.2151 8.40262 65.6001 8.48524 65.7302 8.48524C65.8251 8.48524 65.8725 8.45008 65.8725 8.37976C65.8725 8.23562 65.7091 7.9983 65.3821 7.66781C65.1465 7.41467 64.9127 7.21251 64.6807 7.06134C64.7405 7.44807 64.7053 7.84009 64.5752 8.23737ZM63.2673 7.78383C63.2673 7.8647 63.2814 7.90865 63.3095 7.91568C63.5275 8.03521 63.7472 8.08092 63.9687 8.05279C64.2078 7.89458 64.3273 7.72934 64.3273 7.55706C64.3273 7.41292 64.2904 7.2758 64.2166 7.14571C64.1393 7.02266 64.0391 6.96113 63.916 6.96113C63.807 6.96113 63.6716 7.07012 63.5099 7.2881C63.3482 7.50257 63.2673 7.66781 63.2673 7.78383Z" fill="#417F56"/>
<path d="M52.6355 12.2032C52.6355 12.1505 52.676 12.1241 52.7568 12.1241C52.8588 12.1241 53.0785 12.2155 53.416 12.3983C55.2794 13.3406 56.8773 13.9734 58.2098 14.2969C59.6935 14.6414 61.3864 14.8137 63.2884 14.8137C66.2101 14.8137 68.52 14.543 70.2181 14.0015C71.9197 13.4636 73.21 12.4458 74.089 10.9481C74.089 10.4805 73.9413 9.96188 73.646 9.39232C73.3507 8.82276 73.203 8.50633 73.203 8.44305C73.203 8.30593 73.2962 8.00006 73.4825 7.52542C73.4685 7.36721 73.5001 7.2881 73.5774 7.2881C73.7216 7.2881 73.9413 7.67309 74.2367 8.44305C74.539 9.17785 74.6902 9.67182 74.6902 9.92496C74.8132 10.9024 74.3914 11.9378 73.4245 13.0312C72.4612 14.1281 70.9177 14.9385 68.7942 15.4624C66.9378 15.8245 65.1413 16.0056 63.4044 16.0056C62.0227 16.0056 60.7131 15.937 59.4755 15.7999C57.8125 15.5749 56.5662 15.2461 55.7365 14.8137C55.2478 14.5711 54.7081 14.2072 54.1174 13.722C53.8502 13.4794 53.576 13.2492 53.2947 13.0312C52.8553 12.6374 52.6355 12.3614 52.6355 12.2032ZM71.3203 4.82001C71.3203 4.74969 71.3976 4.60203 71.5523 4.37701C71.707 4.14849 71.8055 4.03422 71.8477 4.03422C71.9074 4.03422 72.0551 4.09575 72.2907 4.2188C72.5438 4.36295 72.6704 4.48073 72.6704 4.57214C72.6704 4.63894 72.5983 4.77957 72.4541 4.99404C72.3241 5.24015 72.2115 5.3632 72.1166 5.3632C72.0322 5.3632 71.8775 5.29288 71.6525 5.15225C71.431 5.01162 71.3203 4.90087 71.3203 4.82001Z" fill="#417F56"/>
<path d="M75.5023 3.43302C75.5902 2.86346 75.7309 2.49957 75.9242 2.34136C75.9559 2.37652 75.9823 2.40113 76.0033 2.41519C76.0948 2.90389 76.2038 3.69495 76.3303 4.78836C76.4569 5.87827 76.5624 6.85918 76.6467 7.7311C76.7346 8.60302 76.7786 9.06359 76.7786 9.11281C76.7786 9.21477 76.7522 9.3765 76.6995 9.59799C76.6503 9.81597 76.5465 9.96364 76.3883 10.041C76.2758 9.14797 76.1633 8.26023 76.0508 7.37776C75.9418 6.49529 75.8223 5.62688 75.6922 4.77254C75.5656 3.91469 75.5023 3.46818 75.5023 3.43302Z" fill="#417F56"/>
<path d="M76.4569 12.2243C77.4202 12.1645 77.988 12.1136 78.1603 12.0714C78.6701 11.9132 79.1676 11.5985 79.6528 11.1274C80.1415 10.6562 80.4719 10.1605 80.6442 9.64018C80.479 9.35189 80.3208 9.06886 80.1696 8.79111C79.9235 8.32703 79.8004 8.02291 79.8004 7.87876L79.8373 7.76274C79.8514 7.73461 79.8971 7.61859 79.9745 7.41467C80.0342 7.23537 80.0922 7.14571 80.1485 7.14571C80.3137 7.14571 80.5089 7.38655 80.7339 7.86821C80.9624 8.28659 81.0767 8.60126 81.0767 8.81221C81.0767 10.215 80.6512 11.3453 79.8004 12.2032C79.3996 12.5899 78.9865 12.7833 78.5611 12.7833C78.308 12.7833 77.6663 12.6937 76.6362 12.5144C76.6081 12.4933 76.5483 12.4282 76.4569 12.3192V12.2243Z" fill="#417F56"/>
<path d="M81.0503 12.1346C81.0784 12.1136 81.1312 12.103 81.2085 12.103H81.7411C82.49 12.103 82.998 12.0678 83.2653 11.9975C83.6168 11.8815 84.0475 11.6073 84.5573 11.1748C85.0917 10.7354 85.4204 10.3504 85.5435 10.0199C84.9458 10.0199 84.5485 9.97946 84.3516 9.89859C83.993 9.77906 83.8137 9.47318 83.8137 8.98097C83.8137 8.67158 83.9297 8.32351 84.1618 7.93677C84.4114 7.50433 84.6628 7.2881 84.9159 7.2881C85.1023 7.2881 85.315 7.51487 85.554 7.96841C85.7755 8.31999 85.9232 8.63993 85.997 8.92823H86.2765V10.0199H85.8863C85.8371 10.5086 85.5611 11.0553 85.0583 11.66C84.545 12.2296 84.051 12.6005 83.5764 12.7728C83.151 12.7025 82.6641 12.6163 82.1156 12.5144C81.4054 12.3561 81.0503 12.2296 81.0503 12.1346ZM84.378 8.72256C84.5433 8.85967 84.7296 8.92823 84.937 8.92823C84.9722 8.92823 85.0161 8.9212 85.0689 8.90714C85.0689 8.79814 85.0425 8.69091 84.9898 8.58544C84.9124 8.44129 84.8263 8.36922 84.7313 8.36922C84.5591 8.36922 84.4413 8.487 84.378 8.72256Z" fill="#417F56"/>
<path d="M86.092 8.92823C86.2713 8.93526 86.5332 8.86319 86.8777 8.71201C87.2223 8.56083 87.428 8.48524 87.4948 8.48524C87.6249 8.48524 87.8499 8.55907 88.1698 8.70673C88.4897 8.8544 88.7464 8.92823 88.9398 8.92823V10.0199C88.7183 10.0199 88.4511 9.93903 88.1382 9.7773C87.8253 9.61557 87.6108 9.53471 87.4948 9.53471C87.442 9.53471 87.261 9.61557 86.9516 9.7773C86.6422 9.93903 86.3873 10.0199 86.1869 10.0199H86.092V8.92823ZM87.3577 5.90639C87.5229 5.42473 87.6741 5.15928 87.8112 5.11006C87.9342 5.17335 88.0678 5.25245 88.212 5.34738C88.3632 5.47043 88.4669 5.58118 88.5231 5.67962C88.4142 6.23512 88.2595 6.51287 88.0591 6.51287C87.9852 6.51287 87.8516 6.43728 87.6583 6.2861C87.5071 6.12789 87.4069 6.00132 87.3577 5.90639ZM86.092 6.39157C86.092 6.22633 86.222 5.95737 86.4822 5.5847C86.8795 5.85893 87.1344 6.0523 87.2469 6.1648V6.20172C87.2469 6.32829 87.2117 6.48298 87.1414 6.66581C87.0606 6.85918 86.9815 6.95586 86.9041 6.95586C86.8162 6.95586 86.658 6.88203 86.4295 6.73436C86.2045 6.5867 86.092 6.47244 86.092 6.39157Z" fill="#417F56"/>
<path d="M88.7025 8.92823C89.2017 8.92823 89.6781 8.87022 90.1316 8.7542C90.8067 8.59599 91.1987 8.36922 91.3077 8.07389C91.4167 7.77856 91.5169 7.59574 91.6083 7.52542C91.6399 7.54652 91.6557 7.59398 91.6557 7.66781C91.6557 7.89634 91.5907 8.20222 91.4606 8.58544C91.559 8.6206 91.6452 8.63818 91.719 8.63818C92.4538 8.63818 92.9654 8.52919 93.2537 8.31121C93.433 8.16706 93.5701 7.92974 93.665 7.59925C93.7564 7.28283 93.8988 7.08595 94.0922 7.0086L94.1186 7.05079C94.1326 7.07188 94.1396 7.09649 94.1396 7.12462C94.1396 7.23361 94.0922 7.4973 93.9973 7.91568C94.0992 8.07389 94.2029 8.17057 94.3084 8.20573C94.34 8.21276 94.4948 8.24792 94.7725 8.31121L95.0467 8.20573C95.0467 8.1319 95.0309 8.05279 94.9993 7.96841C94.9711 7.88052 94.9571 7.81899 94.9571 7.78383C94.9571 7.74164 95.0045 7.5764 95.0995 7.2881C95.2225 6.95762 95.284 6.78183 95.284 6.76073C95.3614 6.76073 95.4405 6.88203 95.5214 7.12462C95.5917 7.31799 95.6268 7.4762 95.6268 7.59925C95.6268 8.02467 95.5512 8.40965 95.4001 8.7542C95.1997 9.20774 94.9114 9.43451 94.5352 9.43451C94.3488 9.43451 94.0324 9.29915 93.5859 9.02843C93.4769 9.29212 93.222 9.49603 92.8212 9.64018C92.5118 9.74214 92.1831 9.79312 91.835 9.79312C91.4905 9.79312 91.1705 9.74214 90.8752 9.64018C90.1932 9.89332 89.5568 10.0199 88.9661 10.0199H88.7025V8.92823Z" fill="#417F56"/>
<path d="M95.4528 12.2243C96.4161 12.1645 96.9839 12.1136 97.1562 12.0714C97.666 11.9132 98.1635 11.5985 98.6487 11.1274C99.1374 10.6562 99.4679 10.1605 99.6401 9.64018C99.4749 9.35189 99.3167 9.06886 99.1655 8.79111C98.9194 8.32703 98.7963 8.02291 98.7963 7.87876L98.8333 7.76274C98.8473 7.73461 98.893 7.61859 98.9704 7.41467C99.0301 7.23537 99.0882 7.14571 99.1444 7.14571C99.3097 7.14571 99.5048 7.38655 99.7298 7.86821C99.9583 8.28659 100.073 8.60126 100.073 8.81221C100.073 10.215 99.6472 11.3453 98.7963 12.2032C98.3955 12.5899 97.9824 12.7833 97.557 12.7833C97.3039 12.7833 96.6622 12.6937 95.6321 12.5144C95.604 12.4933 95.5442 12.4282 95.4528 12.3192V12.2243Z" fill="#417F56"/>
<path d="M21.3658 39.0521H19.6113C17.365 39.0521 15.4044 38.3609 13.7296 36.9786C12.1612 35.6893 11.0447 33.9613 10.3801 31.7948C10.0877 30.8378 9.44303 30.3593 8.44614 30.3593C7.8613 30.3593 7.36286 30.5586 6.95081 30.9574C6.55206 31.3428 6.35268 31.8214 6.35268 32.3929C6.35268 32.9645 6.55206 33.4562 6.95081 33.8683C7.36286 34.267 7.8613 34.4664 8.44614 34.4664H11.6561V39.0521H8.66546C6.8046 39.0521 5.19629 38.4207 3.84052 37.158C2.49805 35.8953 1.82681 34.3069 1.82681 32.3929C1.82681 30.5719 2.47146 29.0168 3.76077 27.7275C5.05008 26.4382 6.61187 25.7935 8.44614 25.7935C9.86837 25.7935 11.171 26.2321 12.3539 27.1094C13.5369 27.9734 14.3477 29.0899 14.7863 30.4589C15.6104 33.1306 17.2188 34.4664 19.6113 34.4664H21.3658V39.0521Z" fill="#417F56"/>
<path d="M30.0587 22.105H27.7858C27.161 22.105 26.6227 21.8857 26.1708 21.4471C25.7189 20.9952 25.4929 20.4568 25.4929 19.8321C25.4929 19.2074 25.7189 18.6691 26.1708 18.2172C26.6227 17.7652 27.161 17.5393 27.7858 17.5393C28.4105 17.5393 28.9422 17.7652 29.3808 18.2172C29.8327 18.6691 30.0587 19.2074 30.0587 19.8321V22.105ZM37.9141 39.0521H36.1397C34.2921 39.0521 32.5908 38.4872 31.0356 37.3574V39.0521H19.6113V34.4664H26.4699V25.9331H31.0356V28.7842C31.0356 30.4191 31.5075 31.7748 32.4512 32.8515C33.3949 33.9281 34.6244 34.4664 36.1397 34.4664H37.9141V39.0521Z" fill="#417F56"/>
<path d="M54.303 39.0521H52.5285C50.681 39.0521 48.9796 38.4872 47.4244 37.3574V39.0521H36.0001V34.4664H42.8587V25.9331H47.4244V28.7842C47.4244 30.4191 47.8963 31.7748 48.84 32.8515C49.7838 33.9281 51.0132 34.4664 52.5285 34.4664H54.303V39.0521ZM50.5547 47.1668H48.2419C47.6172 47.1668 47.0789 46.9408 46.6269 46.4889C46.1883 46.037 45.969 45.4986 45.969 44.8739C45.969 44.2359 46.1883 43.6976 46.6269 43.259C47.0789 42.8203 47.6172 42.601 48.2419 42.601C48.8799 42.601 49.4249 42.8203 49.8768 43.259C50.3287 43.6976 50.5547 44.2359 50.5547 44.8739V47.1668ZM45.3709 47.1668H43.078C42.44 47.1668 41.895 46.9408 41.4431 46.4889C41.0045 46.037 40.7852 45.4986 40.7852 44.8739C40.7852 44.2359 41.0045 43.6976 41.4431 43.259C41.895 42.8203 42.44 42.601 43.078 42.601C43.7027 42.601 44.2411 42.8203 44.693 43.259C45.1449 43.6976 45.3709 44.2359 45.3709 44.8739V47.1668Z" fill="#417F56"/>
<path d="M75.0382 39.0521H52.3889V34.4664H70.2133C69.8278 33.2967 69.1367 32.3397 68.1398 31.5954C67.1562 30.851 66.0264 30.4789 64.7504 30.4789L57.9516 30.4988V25.9331H64.7504C67.5815 25.9331 70.0006 26.9366 72.0077 28.9437C74.028 30.9374 75.0382 33.3566 75.0382 36.201V39.0521ZM63.3547 23.5804H61.0818C60.4571 23.5804 59.9188 23.3611 59.4668 22.9225C59.0149 22.4705 58.789 21.9322 58.789 21.3075C58.789 20.6828 59.0149 20.1445 59.4668 19.6926C59.9188 19.2406 60.4571 19.0147 61.0818 19.0147C61.7065 19.0147 62.2382 19.2406 62.6768 19.6926C63.1287 20.1445 63.3547 20.6828 63.3547 21.3075V23.5804Z" fill="#417F56"/>
<path d="M89.4822 39.0521H87.7078C85.8735 39.0521 84.1721 38.4872 82.6037 37.3574V38.454C82.6037 41.325 81.5669 43.7508 79.4934 45.7313C77.4332 47.725 74.8546 48.7219 71.7576 48.7219V44.1562C73.6051 44.1562 75.1138 43.6046 76.2834 42.5013C77.4664 41.3981 78.0579 40.049 78.0579 38.454V25.9331H82.6037V28.7842C82.6037 30.4191 83.0756 31.7748 84.0193 32.8515C84.9763 33.9281 86.2058 34.4664 87.7078 34.4664H89.4822V39.0521Z" fill="#417F56"/>
<path d="M99.1321 39.0521H87.7078V34.4664H94.5663V25.9331H99.1321V39.0521ZM99.3315 21.786H97.0187C96.394 21.786 95.8557 21.5601 95.4037 21.1081C94.9651 20.6562 94.7458 20.1179 94.7458 19.4932C94.7458 18.8552 94.9651 18.3168 95.4037 17.8782C95.8557 17.4396 96.394 17.2203 97.0187 17.2203C97.6567 17.2203 98.2017 17.4396 98.6536 17.8782C99.1055 18.3168 99.3315 18.8552 99.3315 19.4932V21.786ZM94.1477 21.786H91.8548C91.2168 21.786 90.6718 21.5601 90.2199 21.1081C89.7813 20.6562 89.562 20.1179 89.562 19.4932C89.562 18.8552 89.7813 18.3168 90.2199 17.8782C90.6718 17.4396 91.2168 17.2203 91.8548 17.2203C92.4795 17.2203 93.0179 17.4396 93.4698 17.8782C93.9217 18.3168 94.1477 18.8552 94.1477 19.4932V21.786Z" fill="#417F56"/>
<path d="M123.544 30.7183C122.197 30.147 120.851 29.7288 119.626 28.78C120.73 28.7187 121.57 29.239 122.501 29.4533C121.175 28.3617 119.758 27.3925 118.725 25.9744C119.819 26.6987 120.912 27.4129 122.005 28.1372C122.035 28.1066 122.066 28.0862 122.086 28.0556C121.347 27.2803 120.618 26.5151 119.879 25.7397C119.91 25.6887 119.94 25.6377 119.97 25.5867C120.274 25.7499 120.628 25.852 120.871 26.0866C121.853 27.015 122.795 27.9842 123.746 28.9432C123.999 29.1982 124.222 29.4635 124.505 29.7696C124.708 29.5757 124.86 29.4125 125.022 29.2799C125.305 29.0656 125.254 28.8616 125.082 28.5963C123.817 26.6783 122.137 25.1888 120.183 24.0564C118.685 23.1892 117.065 22.5363 115.506 21.7814C114.838 21.4549 114.18 21.108 113.512 20.7714C113.543 20.6897 113.563 20.6081 113.593 20.5265C114.089 20.6285 114.595 20.7203 115.203 20.8428C114.241 20.0164 113.158 19.4757 112.551 18.4249C112.581 18.3841 112.601 18.3331 112.632 18.2923C113.846 19.0472 115.051 19.8022 116.397 20.6387C115.496 19.4043 114.686 18.3025 113.887 17.2006C113.927 17.1598 113.968 17.119 114.018 17.0782C114.433 17.4863 114.869 17.8638 115.253 18.2923C116.286 19.4553 117.258 20.6795 118.331 21.7916C118.827 22.3017 119.505 22.6281 120.092 23.0464C120.892 23.6075 121.681 24.1788 122.552 24.8012C122.491 24.6175 122.471 24.4951 122.41 24.4033C120.74 21.5671 118.908 18.833 116.579 16.4865C116.175 16.0784 115.628 15.7826 115.102 15.5377C114.201 15.1296 113.249 14.8236 112.328 14.4665C111.771 14.2523 111.225 14.0074 110.84 13.5177C110.86 13.4565 110.88 13.4055 110.901 13.3443C111.7 13.5483 112.51 13.7626 113.31 13.9666C111.741 12.5383 110.03 11.2529 108.977 9.33487C110.405 10.5183 111.832 11.7017 113.249 12.8954C113.29 12.8648 113.33 12.824 113.36 12.7934C112.591 11.6915 111.822 10.5795 111.063 9.4777C111.113 9.42669 111.164 9.37568 111.214 9.32467C111.457 9.52871 111.741 9.70214 111.933 9.94699C112.763 11.0284 113.522 12.1812 114.403 13.232C115.152 14.1196 116.043 14.895 116.822 15.752C117.541 16.5375 118.199 17.3741 118.877 18.1902C118.978 18.3127 119.09 18.4453 119.191 18.5677C119.232 18.5473 119.272 18.5269 119.323 18.4963C119.191 18.1902 119.059 17.874 118.918 17.5781C118.25 16.1804 117.663 14.7215 116.873 13.3953C115.8 11.5997 114.484 9.9776 112.794 8.71255C112.358 8.38608 111.802 8.24325 111.285 8.02901C110.516 7.70254 109.686 7.4883 109.058 6.77416C109.969 6.55992 110.698 7.17204 111.66 7.32507C110.82 6.40688 109.585 6.07022 109.18 4.92759C109.22 4.86637 109.251 4.81536 109.291 4.75415C109.686 4.9786 110.091 5.21324 110.557 5.4785C110.192 4.82557 109.858 4.23385 109.534 3.63193C109.565 3.60132 109.595 3.57072 109.625 3.54011C109.838 3.71354 110.081 3.85637 110.243 4.06041C111.285 5.37648 112.287 6.72315 113.34 8.0188C114.261 9.15123 115.233 10.2531 116.255 11.3243C115.891 10.4775 115.557 9.62053 115.152 8.79416C114.646 7.74335 114.271 6.62113 113.421 5.77436C112.267 4.63173 111.133 3.4789 110 2.31586C109.676 1.9792 109.403 1.60172 109.17 1.17323C110.536 1.82617 111.468 3.0096 112.561 3.9992C112.601 3.9686 112.642 3.94819 112.682 3.91759C112.065 2.64233 111.447 1.37728 110.82 0.10202C110.87 0.0714143 110.931 0.0306061 110.982 0C111.964 1.46909 112.956 2.93819 113.937 4.40728C113.968 4.39708 114.008 4.38688 114.039 4.37668C113.846 3.32587 113.654 2.28526 113.472 1.23445C113.533 1.21404 113.593 1.19364 113.654 1.18344C113.735 1.39768 113.836 1.60172 113.877 1.82617C114.069 2.77496 114.18 3.74415 114.454 4.66233C114.808 5.82537 115.284 6.94759 115.739 8.06981C115.992 8.70234 116.316 9.31447 116.691 9.92659C116.731 7.9984 116.154 6.10082 116.377 4.17264C116.438 4.16244 116.488 4.15223 116.549 4.13183C116.721 4.59092 116.883 5.05001 117.055 5.5091C117.086 5.5091 117.116 5.5091 117.146 5.5091C117.298 4.67253 117.45 3.82577 117.622 2.90758C118.108 3.25445 118.078 3.64213 118.037 3.9992C117.865 5.4785 117.673 6.95779 117.49 8.42689C117.47 8.56971 117.49 8.71255 117.541 8.86558C118.098 7.93719 118.31 6.83537 119.059 6.03961C119.11 6.04981 119.161 6.07021 119.201 6.08042C119.191 6.23345 119.211 6.39668 119.161 6.52931C118.908 7.30466 118.655 8.06981 118.371 8.83497C117.905 10.0796 117.652 11.3549 117.875 12.6709C117.997 13.3749 118.32 14.0482 118.614 14.7113C119.353 16.4049 120.112 18.0882 120.892 19.7614C121.246 20.5265 121.651 21.2611 122.035 22.016C122.096 22.0058 122.147 21.9854 122.208 21.9752C122.137 21.5671 122.096 21.1488 122.005 20.7407C121.772 19.7614 121.509 18.782 121.266 17.8026C121.033 16.8844 120.78 15.9764 120.588 15.048C120.477 14.4971 120.456 13.9258 120.396 13.3647C120.466 13.3443 120.527 13.3341 120.598 13.3137C120.851 13.9156 121.114 14.5277 121.418 15.2623C121.59 14.2216 121.742 13.3035 121.894 12.3853C121.944 12.3853 121.995 12.3955 122.035 12.3955C122.106 13.6401 122.177 14.895 122.258 16.1396C122.299 16.1498 122.339 16.1498 122.39 16.16C122.744 15.3643 122.835 14.4359 123.655 13.8442C123.594 14.2114 123.554 14.5685 123.473 14.9358C123.179 16.2519 122.785 17.5577 122.592 18.8942C122.491 19.6287 122.704 20.4041 122.815 21.159C122.967 22.1486 122.987 23.2096 123.382 24.087C124.06 25.5867 124.991 26.964 125.852 28.4637C126.105 28.2188 126.246 28.0658 126.408 27.923C126.651 27.7087 126.651 27.5047 126.53 27.2088C126.084 26.1682 125.659 25.1174 125.254 24.0666C125.133 23.7402 125.113 23.3831 125.052 23.0362C125.113 23.0158 125.163 22.9852 125.224 22.9648C125.568 23.6177 125.923 24.2605 126.348 25.0562C126.267 23.4443 125.862 21.9752 126.297 20.4959C126.884 21.4447 126.682 22.5975 127.087 23.73C127.319 22.9036 127.522 22.1894 127.724 21.4549C128.23 21.5977 128.23 21.914 128.16 22.2404C127.967 23.1994 127.745 24.1584 127.552 25.1174C127.471 25.5459 127.441 25.9846 127.4 26.4233C127.39 26.5253 127.471 26.6273 127.532 26.8212C129.769 24.6073 131.956 22.4445 134.142 20.2817C133.018 19.0166 132.644 17.5679 133.008 15.9866C133.15 15.3847 133.464 14.7522 133.879 14.3033C137.786 10.0082 141.734 5.74375 145.672 1.4691C145.712 1.41809 145.773 1.38748 145.823 1.34667C146.502 1.73435 146.593 2.22405 146.107 2.78516C143.131 6.23345 140.145 9.68174 137.179 13.1402C136.976 13.3749 136.703 13.6299 137.027 13.9768C137.3 14.2625 137.837 14.3237 138.14 14.0584C138.566 13.6707 138.96 13.2525 139.365 12.8444C142.23 9.91639 145.105 6.9884 147.969 4.06041C148.091 3.93799 148.182 3.79516 148.283 3.68294C149.042 4.09102 149.144 4.58072 148.627 5.17244C145.682 8.57992 142.736 11.9976 139.8 15.4051C139.558 15.6805 139.173 15.9662 139.608 16.3845C139.922 16.6905 140.469 16.6395 140.833 16.2723C142.513 14.5583 144.184 12.824 145.884 11.1202C147.564 9.44709 149.265 7.80456 150.996 6.12122C151.553 6.40688 151.664 6.93739 151.188 7.4883C148.233 10.906 145.277 14.3339 142.321 17.7618C142.098 18.0168 141.683 18.2719 142.078 18.7003C142.402 19.0574 142.938 19.037 143.343 18.6391C144.609 17.3639 145.864 16.0784 147.119 14.793C149.093 12.773 151.067 10.7427 153.051 8.72274C153.172 8.60032 153.294 8.4983 153.527 8.27386C153.729 8.68194 153.901 9.02881 154.073 9.38588C152.889 10.6713 151.735 11.9364 150.581 13.1912C147.838 16.1702 145.064 19.1186 142.372 22.1384C140.722 23.9952 138.151 24.036 136.582 22.4853C136.531 22.4343 136.48 22.4037 136.389 22.3323C136.227 22.5261 136.055 22.7097 135.903 22.9036C134.446 24.6481 132.988 26.3927 131.53 28.1168C131.308 28.3821 131.247 28.6065 131.368 28.9432C131.611 29.6471 131.794 30.3715 132.016 31.0856C132.057 31.2284 132.138 31.3611 132.249 31.4937C132.411 30.3307 131.976 29.137 132.522 27.8822C132.664 28.3719 132.826 28.7494 132.877 29.137C133.008 30.2491 133.059 31.3611 133.211 32.4731C133.413 33.9524 133.707 35.4215 134.577 36.6865C135.357 37.8292 136.096 39.0126 136.926 40.1246C137.28 40.6041 137.786 40.9816 138.252 41.3693C139.345 42.2773 140.448 43.1648 141.552 44.0626C141.653 44.1442 141.764 44.1952 141.916 44.2871C140.813 42.9608 139.699 41.7161 138.687 40.3899C137.675 39.0738 136.541 37.8394 135.843 36.3091C135.893 36.2683 135.954 36.2172 136.005 36.1764C136.713 37.0232 137.422 37.8598 138.211 38.7882C137.644 37.4109 137.128 36.1458 136.612 34.8706C136.673 34.84 136.733 34.8196 136.794 34.789C137.604 36.3499 138.262 38.0026 139.396 39.3799C139.213 38.1862 139.031 37.0028 138.849 35.8092C139.547 36.3193 139.588 37.064 139.75 37.7476C139.922 38.5025 140.064 39.2677 140.205 40.0328C140.418 41.155 140.833 42.165 141.663 42.9914C142.766 44.1034 143.748 45.3787 144.953 46.3683C146.188 47.3783 147.605 48.1638 148.982 48.9902C150.055 49.6227 151.188 50.1634 152.292 50.7347C152.393 50.7858 152.484 50.8572 152.525 51C151.836 50.7143 151.107 50.4797 150.449 50.1328C148.658 49.1738 146.906 48.123 145.105 47.1742C143.394 46.2765 141.673 45.3481 139.871 44.6543C138.879 44.2769 137.715 44.3483 136.632 44.2565C135.843 44.185 135.053 44.1952 134.263 44.1238C133.99 44.1034 133.727 43.9606 133.464 43.7872C134.334 43.2771 135.266 43.5729 136.177 43.4097C134.891 43.0118 133.616 42.6139 132.33 42.216C132.34 42.1548 132.35 42.1038 132.371 42.0426C132.846 41.7672 133.342 41.8998 133.838 42.012C134.314 42.114 134.79 42.2467 135.296 42.2569C134.102 41.5223 132.907 40.7776 131.713 40.043C132.958 40.1654 134.01 40.7469 135.073 41.2979C136.308 41.9508 137.513 42.6751 138.748 43.3383C139.274 43.6137 139.841 43.8178 140.388 44.0524C140.418 44.0116 140.438 43.9708 140.469 43.93C140.094 43.6137 139.72 43.3077 139.345 42.9812C136.926 40.8592 134.162 39.2779 131.277 37.921C130.559 37.5843 129.678 37.5843 128.868 37.4109C128.079 37.2477 127.289 37.0946 126.51 36.9008C126.267 36.8396 126.044 36.6661 125.73 36.5029C126.51 36.0336 127.218 36.4927 128.048 36.4111C127.188 35.9622 126.439 35.5847 125.659 35.1868C124.88 36.1152 124.111 37.0334 123.341 37.9516C120.041 41.91 116.741 45.8582 113.441 49.8166C112.622 50.796 111.579 51.1326 110.354 50.8062C109.109 50.4695 108.411 49.6023 108.157 48.3373C107.894 47.0314 108.249 45.9704 109.21 45.0216C113.877 40.4409 118.513 35.8398 123.159 31.2386C123.23 31.055 123.362 30.902 123.544 30.7183ZM130.923 28.7698C130.275 29.5349 129.688 30.2082 129.131 30.9122C129.04 31.0244 129.04 31.2999 129.111 31.4427C129.83 32.9118 130.771 34.2278 131.905 35.4011C132.209 35.7173 132.472 36.0744 132.765 36.3907C133.13 36.7886 133.525 37.1558 133.909 37.5435C133.97 37.4925 134.031 37.4517 134.091 37.4007C133.565 36.4723 133.039 35.5337 132.502 34.6053C131.763 33.3199 131.004 32.0344 130.285 30.7387C130.154 30.5041 130.164 30.1776 130.103 29.892C130.174 29.8614 130.245 29.8308 130.316 29.8002C130.761 30.5245 131.217 31.2488 131.662 31.963C131.702 31.9426 131.733 31.9324 131.773 31.912C131.51 30.9122 131.227 29.892 130.923 28.7698ZM126.793 33.7075C128.747 35.8806 131.237 37.0844 133.747 38.2781C131.713 36.4315 130.022 34.1972 127.532 32.8098C127.289 33.1158 127.046 33.4117 126.793 33.7075Z" fill="#417F56"/>
</svg>
