<svg width="32" height="32" viewBox="0 0 32 32" fill="none" xmlns="http://www.w3.org/2000/svg">
<path d="M20.0003 30.3333H12.0003C4.76033 30.3333 1.66699 27.24 1.66699 20V12C1.66699 4.75996 4.76033 1.66663 12.0003 1.66663H20.0003C27.2403 1.66663 30.3337 4.75996 30.3337 12V20C30.3337 27.24 27.2403 30.3333 20.0003 30.3333ZM12.0003 3.66663C5.85366 3.66663 3.66699 5.85329 3.66699 12V20C3.66699 26.1466 5.85366 28.3333 12.0003 28.3333H20.0003C26.147 28.3333 28.3337 26.1466 28.3337 20V12C28.3337 5.85329 26.147 3.66663 20.0003 3.66663H12.0003Z" fill="#F9F9F9"/>
<path d="M11.9997 14.3333C9.97301 14.3333 8.33301 12.6933 8.33301 10.6667C8.33301 8.64 9.97301 7 11.9997 7C14.0263 7 15.6663 8.64 15.6663 10.6667C15.6663 12.6933 14.0263 14.3333 11.9997 14.3333ZM11.9997 9C11.0797 9 10.333 9.74667 10.333 10.6667C10.333 11.5867 11.0797 12.3333 11.9997 12.3333C12.9197 12.3333 13.6663 11.5867 13.6663 10.6667C13.6663 9.74667 12.9197 9 11.9997 9Z" fill="#F9F9F9"/>
<path d="M3.56035 26.2667C3.24035 26.2667 2.92035 26.1067 2.73368 25.8267C2.42701 25.3734 2.54701 24.7467 3.01368 24.44L9.58701 20.0267C11.027 19.0534 13.0137 19.1734 14.3203 20.28L14.7603 20.6667C15.427 21.24 16.5603 21.24 17.2137 20.6667L22.7603 15.9067C24.1737 14.6934 26.4003 14.6934 27.827 15.9067L30.0003 17.7734C30.4137 18.1334 30.467 18.76 30.107 19.1867C29.747 19.6 29.1203 19.6534 28.6937 19.2934L26.5203 17.4267C25.8537 16.8534 24.7203 16.8534 24.0537 17.4267L18.507 22.1867C17.0937 23.4 14.867 23.4 13.4403 22.1867L13.0003 21.8C12.387 21.28 11.3737 21.2267 10.6937 21.6934L4.12035 26.1067C3.94701 26.2134 3.74701 26.2667 3.56035 26.2667Z" fill="#F9F9F9"/>
</svg>
