<svg width="207" height="227" viewBox="0 0 207 227" fill="none" xmlns="http://www.w3.org/2000/svg">
<path d="M69.7927 136.533C63.7672 133.994 57.7417 132.135 52.2598 127.918C57.198 127.646 60.9583 129.958 65.1263 130.91C59.1914 126.058 52.8488 121.751 48.2277 115.448C53.1206 118.667 58.0135 121.841 62.9064 125.061C63.0423 124.925 63.1782 124.834 63.2688 124.698C59.9616 121.252 56.6997 117.851 53.3924 114.405C53.5283 114.178 53.6642 113.951 53.8002 113.725C55.1593 114.45 56.745 114.904 57.8323 115.947C62.2268 120.073 66.4402 124.381 70.6988 128.643C71.8314 129.777 72.8282 130.956 74.0967 132.316C75.0028 131.454 75.6823 130.729 76.4072 130.139C77.6758 129.187 77.4492 128.28 76.6791 127.101C71.016 118.577 63.4954 111.956 54.7515 106.923C48.0464 103.069 40.7977 100.167 33.8207 96.8111C30.8306 95.36 27.8858 93.8183 24.8957 92.3219C25.0316 91.9592 25.1222 91.5964 25.2581 91.2337C27.4781 91.6871 29.7433 92.0952 32.4616 92.6393C28.1576 88.9664 23.31 86.5632 20.5918 81.8926C20.7277 81.7113 20.8183 81.4845 20.9542 81.3031C26.3908 84.6587 31.782 88.0142 37.8076 91.7324C33.7755 86.2457 30.151 81.3485 26.572 76.4513C26.7532 76.2699 26.9344 76.0885 27.161 75.9071C29.0184 77.7209 30.9665 79.3987 32.6881 81.3031C37.3092 86.4724 41.6585 91.9138 46.4608 96.8564C48.6807 99.1237 51.7161 100.575 54.3438 102.434C57.9229 104.928 61.4567 107.467 65.3529 110.233C65.081 109.417 64.9904 108.873 64.7186 108.465C57.2433 95.8588 49.0432 83.7064 38.6231 73.2771C36.8109 71.4634 34.3644 70.1483 32.0085 69.0601C27.9764 67.2463 23.7178 65.8859 19.5951 64.2989C17.1033 63.3466 14.6568 62.2584 12.9352 60.0818C13.0259 59.8097 13.1165 59.583 13.2071 59.311C16.7861 60.2178 20.4105 61.1701 23.9896 62.077C16.9674 55.7287 9.31085 50.0153 4.59915 41.4905C10.9871 46.7504 17.3751 52.0104 23.7178 57.3158C23.899 57.1798 24.0802 56.9984 24.2161 56.8623C20.773 51.9651 17.3298 47.0225 13.932 42.1253C14.1585 41.8986 14.385 41.6718 14.6115 41.4451C15.6988 42.352 16.9674 43.1229 17.8282 44.2111C21.5431 49.0177 24.941 54.1416 28.8825 58.8122C32.2351 62.7572 36.2219 66.2034 39.7104 70.0123C42.927 73.5039 45.8718 77.2221 48.9072 80.8497C49.3603 81.3938 49.8586 81.9833 50.3117 82.5275C50.4929 82.4368 50.6741 82.3461 50.9006 82.21C50.3117 80.8497 49.7227 79.444 49.0884 78.129C46.0983 71.9168 43.4707 65.4325 39.9369 59.5377C35.1346 51.557 29.245 44.3472 21.6791 38.7244C19.731 37.2734 17.2392 36.6386 14.9287 35.6863C11.4855 34.2353 7.77051 33.2831 4.96161 30.1089C9.03904 29.1567 12.301 31.8774 16.6049 32.5575C12.8446 28.4765 7.31744 26.9801 5.50525 21.9015C5.68647 21.6295 5.8224 21.4027 6.00362 21.1307C7.7705 22.1282 9.5827 23.1712 11.6667 24.3501C10.0357 21.4481 8.54067 18.8181 7.09092 16.1427C7.22683 16.0067 7.36276 15.8707 7.49867 15.7346C8.45007 16.5055 9.53737 17.1403 10.2623 18.0472C14.9286 23.8967 19.4138 29.8822 24.1255 35.641C28.2483 40.6743 32.5975 45.5715 37.1733 50.3327C35.5423 46.5691 34.0473 42.7601 32.2351 39.0872C29.9698 34.4167 28.2936 29.4288 24.488 25.6651C19.3232 20.5865 14.2491 15.4626 9.17495 10.2933C7.7252 8.79689 6.50197 7.11913 5.45996 5.21465C11.5761 8.11671 15.7441 13.3767 20.6371 17.7752C20.8183 17.6391 20.9995 17.5484 21.1807 17.4124C18.4171 11.7443 15.6535 6.12154 12.8446 0.453448C13.0712 0.317413 13.343 0.136034 13.5695 0C17.9641 6.52964 22.4039 13.0593 26.7985 19.5889C26.9344 19.5436 27.1156 19.4983 27.2515 19.4529C26.3908 14.7824 25.53 10.1572 24.7145 5.48672C24.9863 5.39603 25.2581 5.30534 25.53 5.25999C25.8924 6.21223 26.3455 7.11914 26.5267 8.11672C27.3875 12.3338 27.8858 16.6415 29.1091 20.7226C30.6947 25.8919 32.8241 30.8798 34.8628 35.8677C35.9954 38.6791 37.4451 41.3998 39.1214 44.1205C39.3026 35.5503 36.7203 27.1162 37.717 18.546C37.9888 18.5007 38.2153 18.4553 38.4871 18.3646C39.2573 20.4051 39.9822 22.4457 40.7524 24.4862C40.8883 24.4862 41.0242 24.4862 41.1601 24.4862C41.8397 20.7679 42.5193 17.0043 43.2894 12.9233C45.4641 14.465 45.3281 16.1881 45.1469 17.7752C44.3767 24.3501 43.516 30.9251 42.7005 37.4548C42.6099 38.0896 42.7005 38.7244 42.927 39.4046C45.4188 35.2782 46.3702 30.381 49.7227 26.8441C49.9493 26.8894 50.1758 26.9801 50.357 27.0255C50.3117 27.7056 50.4023 28.4312 50.1758 29.0206C49.0432 32.4668 47.9105 35.8677 46.642 39.2686C44.558 44.8006 43.4254 50.4687 44.4221 56.3182C44.9657 59.447 46.4155 62.4397 47.7293 65.3871C51.0366 72.9144 54.4344 80.3963 57.9229 87.8328C59.5085 91.2337 61.3207 94.4985 63.0423 97.854C63.3141 97.8086 63.5407 97.718 63.8125 97.6726C63.4954 95.8588 63.3141 93.9997 62.9064 92.1859C61.8644 87.8328 60.6865 83.4797 59.5992 79.1266C58.5571 75.0456 57.4245 71.0099 56.5637 66.8835C56.0654 64.4349 55.9748 61.8956 55.703 59.4016C56.0201 59.3109 56.2919 59.2656 56.6091 59.1749C57.7417 61.8503 58.9196 64.571 60.2787 67.8358C61.0489 63.2106 61.7285 59.1296 62.4081 55.0485C62.6346 55.0485 62.8611 55.0939 63.0423 55.0939C63.3594 60.6259 63.6766 66.2034 64.039 71.7354C64.2202 71.7808 64.4015 71.7808 64.628 71.8261C66.2136 68.2892 66.6214 64.1628 70.2911 61.5328C70.0192 63.1653 69.838 64.7523 69.4756 66.3847C68.1618 72.2342 66.3949 78.0383 65.5341 83.9785C65.081 87.2433 66.0324 90.6895 66.5308 94.045C67.2104 98.4435 67.301 103.159 69.0679 107.059C72.1033 113.725 76.2713 119.846 80.1222 126.512C81.2548 125.424 81.8891 124.743 82.614 124.109C83.7013 123.156 83.7013 122.249 83.1576 120.934C81.1642 116.309 79.2614 111.639 77.4493 106.968C76.9056 105.517 76.815 103.93 76.5432 102.388C76.815 102.298 77.0415 102.162 77.3133 102.071C78.8537 104.973 80.4394 107.83 82.3422 111.367C81.9797 104.202 80.1675 97.6726 82.1156 91.0976C84.7433 95.3147 83.8372 100.439 85.6494 105.472C86.6914 101.799 87.5975 98.6248 88.5036 95.36C90.7688 95.9948 90.7688 97.4005 90.4517 98.8516C89.5909 103.114 88.5942 107.376 87.7334 111.639C87.371 113.543 87.2351 115.493 87.0538 117.443C87.0085 117.896 87.371 118.35 87.6428 119.211C97.6552 109.372 107.441 99.7585 117.227 90.1454C112.198 84.5226 110.522 78.0837 112.153 71.0552C112.787 68.3799 114.191 65.5685 116.049 63.5734C133.537 44.4832 151.205 25.5291 168.829 6.52966C169.01 6.30293 169.282 6.16689 169.509 5.98551C172.544 7.70861 172.952 9.88517 170.777 12.3791C157.457 27.7057 144.093 43.0322 130.818 58.4041C129.912 59.447 128.689 60.5806 130.139 62.1223C131.362 63.392 133.763 63.664 135.122 62.4851C137.025 60.762 138.792 58.9029 140.604 57.0891C153.425 44.0751 166.292 31.0612 179.113 18.0472C179.657 17.5031 180.065 16.8683 180.518 16.3695C183.915 18.1833 184.369 20.3598 182.058 22.9898C168.874 38.1349 155.691 53.3254 142.552 68.4706C141.465 69.6949 139.743 70.9646 141.691 72.8237C143.096 74.184 145.542 73.9573 147.173 72.3249C154.694 64.707 162.169 56.9984 169.78 49.4258C177.301 41.9892 184.912 34.6887 192.659 27.2069C195.151 28.4765 195.649 30.8344 193.52 33.2831C180.291 48.4736 167.062 63.7094 153.833 78.9452C152.836 80.0789 150.979 81.2125 152.746 83.1169C154.196 84.704 156.597 84.6133 158.409 82.8449C164.072 77.1768 169.69 71.4633 175.308 65.7499C184.142 56.7716 192.976 47.748 201.856 38.7698C202.4 38.2256 202.943 37.7722 203.985 36.7746C204.892 38.5884 205.662 40.1301 206.432 41.7172C201.131 47.4306 195.967 53.0534 190.802 58.6308C178.524 71.8715 166.111 84.9761 154.06 98.3981C146.675 106.651 135.168 106.832 128.145 99.9399C127.919 99.7131 127.692 99.5771 127.285 99.2597C126.56 100.121 125.789 100.937 125.11 101.799C118.586 109.553 112.062 117.307 105.538 124.97C104.542 126.149 104.27 127.147 104.813 128.643C105.901 131.772 106.716 134.991 107.713 138.165C107.894 138.8 108.256 139.39 108.755 139.979C109.48 134.81 107.532 129.505 109.978 123.927C110.612 126.104 111.337 127.782 111.564 129.505C112.153 134.447 112.379 139.39 113.059 144.332C113.965 150.907 115.279 157.437 119.175 163.06C122.663 168.138 125.971 173.398 129.686 178.341C131.271 180.472 133.537 182.15 135.621 183.873C140.513 187.909 145.452 191.854 150.39 195.844C150.843 196.207 151.341 196.434 152.021 196.842C147.083 190.947 142.099 185.415 137.569 179.52C133.038 173.67 127.964 168.184 124.838 161.382C125.065 161.201 125.336 160.974 125.563 160.793C128.734 164.556 131.906 168.274 135.439 172.401C132.902 166.279 130.592 160.656 128.281 154.988C128.553 154.852 128.825 154.762 129.097 154.626C132.721 161.563 135.666 168.909 140.74 175.031C139.925 169.725 139.109 164.465 138.294 159.16C141.42 161.427 141.601 164.738 142.326 167.776C143.096 171.131 143.73 174.532 144.364 177.933C145.316 182.921 147.173 187.41 150.888 191.083C155.827 196.025 160.221 201.693 165.612 206.092C171.14 210.581 177.482 214.073 183.644 217.746C188.446 220.557 193.52 222.96 198.458 225.499C198.911 225.726 199.319 226.044 199.5 226.678C196.42 225.409 193.158 224.366 190.213 222.824C182.194 218.562 174.356 213.891 166.292 209.674C158.635 205.684 150.934 201.557 142.869 198.474C138.429 196.796 133.219 197.114 128.372 196.706C124.838 196.388 121.304 196.433 117.771 196.116C116.547 196.025 115.369 195.391 114.191 194.62C118.088 192.352 122.256 193.667 126.333 192.942C120.579 191.173 114.871 189.405 109.117 187.637C109.163 187.365 109.208 187.138 109.299 186.866C111.428 185.641 113.648 186.231 115.868 186.73C117.997 187.183 120.126 187.773 122.392 187.818C117.046 184.553 111.7 181.243 106.354 177.978C111.926 178.522 116.638 181.107 121.395 183.556C126.922 186.458 132.313 189.677 137.841 192.625C140.196 193.849 142.733 194.756 145.18 195.799C145.316 195.617 145.406 195.436 145.542 195.255C143.866 193.849 142.19 192.488 140.513 191.037C129.686 181.606 117.317 174.577 104.406 168.546C101.189 167.05 97.2474 167.05 93.623 166.279C90.0893 165.554 86.5555 164.874 83.067 164.012C81.9797 163.74 80.983 162.969 79.5786 162.244C83.067 160.158 86.2384 162.198 89.9534 161.835C86.1025 159.84 82.7499 158.163 79.2614 156.394C75.773 160.52 72.3298 164.601 68.8866 168.682C54.1173 186.276 39.3479 203.825 24.5786 221.418C20.9089 225.772 16.2425 227.268 10.7606 225.817C5.18813 224.321 2.0621 220.466 0.929478 214.843C-0.248446 209.039 1.33723 204.323 5.64119 200.106C26.5267 179.747 47.2763 159.296 68.0712 138.846C68.3883 138.029 68.9772 137.349 69.7927 136.533ZM102.82 127.872C99.9204 131.273 97.2927 134.266 94.801 137.395C94.3932 137.893 94.3932 139.118 94.7104 139.753C97.927 146.282 102.14 152.132 107.214 157.346C108.574 158.752 109.752 160.339 111.065 161.745C112.696 163.513 114.463 165.146 116.185 166.869C116.457 166.642 116.728 166.461 117 166.234C114.644 162.108 112.289 157.936 109.887 153.809C106.58 148.096 103.182 142.383 99.9657 136.624C99.3767 135.581 99.4221 134.13 99.1502 132.86C99.4674 132.724 99.7845 132.588 100.102 132.452C102.095 135.672 104.134 138.891 106.127 142.065C106.308 141.974 106.444 141.929 106.626 141.838C105.448 137.395 104.179 132.86 102.82 127.872ZM84.3356 149.819C93.0794 159.478 104.224 164.828 115.46 170.134C106.354 161.926 98.7878 151.996 87.6428 145.829C86.5555 147.189 85.4682 148.504 84.3356 149.819Z" fill="#417F56"/>
</svg>
