<svg width="16" height="16" viewBox="0 0 16 17" fill="none" xmlns="http://www.w3.org/2000/svg">
<g id="vuesax/outline/heart">
<g id="vuesax/outline/heart_2">
<g id="heart">
<path id="Vector" d="M8.00016 14.9333C7.7935 14.9333 7.5935 14.9066 7.42683 14.8467C4.88016 13.9733 0.833496 10.8733 0.833496 6.29332C0.833496 3.95998 2.72016 2.06665 5.04016 2.06665C6.16683 2.06665 7.22016 2.50665 8.00016 3.29332C8.78016 2.50665 9.8335 2.06665 10.9602 2.06665C13.2802 2.06665 15.1668 3.96665 15.1668 6.29332C15.1668 10.88 11.1202 13.9733 8.5735 14.8467C8.40683 14.9066 8.20683 14.9333 8.00016 14.9333ZM5.04016 3.06665C3.2735 3.06665 1.8335 4.51332 1.8335 6.29332C1.8335 10.8466 6.2135 13.38 7.7535 13.9066C7.8735 13.9466 8.1335 13.9466 8.2535 13.9066C9.78683 13.38 14.1735 10.8533 14.1735 6.29332C14.1735 4.51332 12.7335 3.06665 10.9668 3.06665C9.9535 3.06665 9.0135 3.53998 8.40683 4.35998C8.22016 4.61332 7.7935 4.61332 7.60683 4.35998C6.98683 3.53332 6.0535 3.06665 5.04016 3.06665Z" fill="#ADADAD"/>
</g>
</g>
</g>
</svg>
