<svg width="24" height="24" viewBox="0 0 24 24" fill="none" xmlns="http://www.w3.org/2000/svg">
<g id="vuesax/outline/home-wifi">
<g id="vuesax/outline/home-wifi_2">
<g id="home-wifi">
<path id="Vector" d="M17.5998 22.56H6.39983C4.57983 22.56 2.91983 21.1599 2.61983 19.3599L1.28984 11.4C1.07984 10.16 1.67985 8.56999 2.66985 7.77999L9.59984 2.22994C10.9398 1.14994 13.0498 1.15995 14.3998 2.23995L21.3298 7.77999C22.3098 8.56999 22.9098 10.16 22.7098 11.4L21.3798 19.3599C21.0798 21.1299 19.3898 22.56 17.5998 22.56ZM11.9898 2.9399C11.4598 2.9399 10.9298 3.09999 10.5398 3.40999L3.60982 8.95992C3.03982 9.41992 2.64982 10.44 2.76982 11.16L4.09984 19.12C4.27984 20.17 5.32983 21.06 6.39983 21.06H17.5998C18.6698 21.06 19.7198 20.1699 19.8998 19.1099L21.2298 11.15C21.3498 10.43 20.9499 9.39991 20.3899 8.94991L13.4598 3.40999C13.0598 3.09999 12.5298 2.9399 11.9898 2.9399Z" fill="white"/>
<path id="Vector_2" d="M14.1205 15.13C13.9305 15.13 13.7505 15.06 13.6005 14.92C12.6305 13.99 11.3706 13.99 10.3906 14.92C10.0906 15.21 9.62052 15.2 9.33052 14.9C9.04052 14.6 9.05054 14.1299 9.35054 13.8399C10.9005 12.3499 13.0705 12.3499 14.6305 13.8399C14.9305 14.1299 14.9405 14.6 14.6505 14.9C14.5205 15.05 14.3205 15.13 14.1205 15.13Z" fill="white"/>
<path id="Vector_3" d="M16.2404 13.01C16.0504 13.01 15.8604 12.9401 15.7204 12.8001C15.2504 12.3401 14.7204 11.97 14.1604 11.7C12.7604 11.03 11.2304 11.03 9.84037 11.7C9.28037 11.97 8.76037 12.3401 8.28037 12.8001C7.99037 13.0901 7.51037 13.0901 7.22037 12.7901C6.93037 12.4901 6.94038 12.02 7.23038 11.73C7.82038 11.15 8.48037 10.69 9.19037 10.35C11.0004 9.48001 13.0004 9.48001 14.8004 10.35C15.5104 10.69 16.1704 11.15 16.7604 11.73C17.0604 12.02 17.0604 12.4901 16.7704 12.7901C16.6304 12.9301 16.4404 13.01 16.2404 13.01Z" fill="white"/>
<path id="Vector_4" d="M12.0005 17.5C11.7405 17.5 11.4905 17.4 11.2905 17.21C10.9005 16.82 10.9005 16.1901 11.2905 15.8001C11.6805 15.4101 12.3205 15.4101 12.7105 15.8001C13.1005 16.1901 13.1005 16.82 12.7105 17.21C12.5105 17.4 12.2605 17.5 12.0005 17.5Z" fill="white"/>
</g>
</g>
</g>
</svg>
