<svg width="16" height="16" viewBox="0 0 16 16" fill="none" xmlns="http://www.w3.org/2000/svg">
<g id="Footer icons" clip-path="url(#clip0_2884_34360)">
<path id="Vector" d="M5.11996 0.959961C2.82636 0.959961 0.959961 2.82636 0.959961 5.11996V10.88C0.959961 13.1736 2.82636 15.04 5.11996 15.04H10.88C13.1736 15.04 15.04 13.1736 15.04 10.88V5.11996C15.04 2.82636 13.1736 0.959961 10.88 0.959961H5.11996ZM5.11996 1.59996H10.88C12.8276 1.59996 14.4 3.17229 14.4 5.11996V10.88C14.4 12.8276 12.8276 14.4 10.88 14.4H5.11996C3.17229 14.4 1.59996 12.8276 1.59996 10.88V5.11996C1.59996 3.17229 3.17229 1.59996 5.11996 1.59996ZM11.84 3.51996C11.6702 3.51996 11.5074 3.58739 11.3874 3.70741C11.2674 3.82744 11.2 3.99022 11.2 4.15996C11.2 4.3297 11.2674 4.49249 11.3874 4.61251C11.5074 4.73253 11.6702 4.79996 11.84 4.79996C12.0097 4.79996 12.1725 4.73253 12.2925 4.61251C12.4125 4.49249 12.48 4.3297 12.48 4.15996C12.48 3.99022 12.4125 3.82744 12.2925 3.70741C12.1725 3.58739 12.0097 3.51996 11.84 3.51996ZM7.99996 4.47996C6.05971 4.47996 4.47996 6.05971 4.47996 7.99996C4.47996 9.94021 6.05971 11.52 7.99996 11.52C9.94021 11.52 11.52 9.94021 11.52 7.99996C11.52 6.05971 9.94021 4.47996 7.99996 4.47996ZM7.99996 5.11996C9.59433 5.11996 10.88 6.40559 10.88 7.99996C10.88 9.59433 9.59433 10.88 7.99996 10.88C6.40559 10.88 5.11996 9.59433 5.11996 7.99996C5.11996 6.40559 6.40559 5.11996 7.99996 5.11996Z" fill="#EDEDED"/>
</g>
<defs>
<clipPath id="clip0_2884_34360">
<rect width="16" height="16" fill="white"/>
</clipPath>
</defs>
</svg>
