<svg width="12" height="12" viewBox="0 0 12 12" fill="none" xmlns="http://www.w3.org/2000/svg">
<g id="vuesax/outline/menu-board">
<g id="vuesax/outline/menu-board_2">
<g id="menu-board">
<path id="Vector" d="M8.19046 11.3751H1.62045C1.14545 11.3751 0.705454 11.1551 0.420454 10.7701C0.130454 10.3801 0.0454584 9.89011 0.190458 9.42511L2.29545 2.6601C2.48545 2.0301 3.06546 1.6001 3.72546 1.6001H9.87546C10.4805 1.6001 11.0255 1.96014 11.2555 2.52014C11.3805 2.81014 11.4055 3.14015 11.3305 3.46515L9.64546 10.2301C9.48546 10.9051 8.88546 11.3751 8.19046 11.3751ZM3.73045 2.3551C3.40545 2.3551 3.11046 2.57013 3.01546 2.88513L0.91046 9.65015C0.84046 9.88515 0.880455 10.1301 1.03045 10.3301C1.17045 10.5201 1.39046 10.6301 1.62546 10.6301H8.19546C8.54046 10.6301 8.84045 10.3951 8.92045 10.0601L10.6055 3.2901C10.6455 3.1251 10.6355 2.96012 10.5705 2.81512C10.4505 2.53012 10.1855 2.3501 9.88046 2.3501H3.73045V2.3551Z" fill="#353535"/>
<path id="Vector_2" d="M10.39 11.375H8C7.795 11.375 7.625 11.205 7.625 11C7.625 10.795 7.795 10.625 8 10.625H10.39C10.595 10.625 10.785 10.54 10.925 10.39C11.065 10.24 11.135 10.04 11.12 9.83501L10.625 3.02501C10.61 2.82001 10.765 2.63998 10.97 2.62498C11.175 2.61498 11.355 2.76495 11.37 2.96995L11.865 9.78001C11.895 10.19 11.75 10.6 11.47 10.9C11.195 11.205 10.8 11.375 10.39 11.375Z" fill="#353535"/>
<path id="Vector_3" d="M4.83988 3.56486C4.80988 3.56486 4.77989 3.55985 4.74989 3.55485C4.54989 3.50485 4.42489 3.30483 4.47489 3.09983L4.99488 0.939857C5.04488 0.739857 5.24488 0.614832 5.44988 0.664832C5.64988 0.714832 5.77489 0.91485 5.72489 1.11985L5.20489 3.27988C5.16489 3.44988 5.00988 3.56486 4.83988 3.56486Z" fill="#353535"/>
<path id="Vector_4" d="M8.18973 3.56987C8.16473 3.56987 8.13472 3.56986 8.10972 3.55986C7.90972 3.51486 7.77973 3.31485 7.81973 3.11485L8.28972 0.944872C8.33472 0.739872 8.53472 0.614894 8.73472 0.654894C8.93472 0.694894 9.06472 0.89984 9.02472 1.09984L8.55472 3.26988C8.51972 3.44988 8.36473 3.56987 8.18973 3.56987Z" fill="#353535"/>
<path id="Vector_5" d="M7.84961 6.375H3.84961C3.64461 6.375 3.47461 6.205 3.47461 6C3.47461 5.795 3.64461 5.625 3.84961 5.625H7.84961C8.05461 5.625 8.22461 5.795 8.22461 6C8.22461 6.205 8.05461 6.375 7.84961 6.375Z" fill="#353535"/>
<path id="Vector_6" d="M7.34961 8.375H3.34961C3.14461 8.375 2.97461 8.205 2.97461 8C2.97461 7.795 3.14461 7.625 3.34961 7.625H7.34961C7.55461 7.625 7.72461 7.795 7.72461 8C7.72461 8.205 7.55461 8.375 7.34961 8.375Z" fill="#353535"/>
</g>
</g>
</g>
</svg>
