<svg width="17" height="16" viewBox="0 0 17 16" fill="none" xmlns="http://www.w3.org/2000/svg">
<g id="vuesax/outline/note">
<g id="vuesax/outline/note_2">
<g id="note">
<path id="Vector" d="M11.1665 15.1667H5.83317C3.81984 15.1667 2.6665 14.0134 2.6665 12V5.50004C2.6665 3.40004 3.73317 2.33337 5.83317 2.33337C6.1065 2.33337 6.33317 2.56004 6.33317 2.83337C6.33317 3.10004 6.43984 3.35337 6.62651 3.54004C6.81317 3.72671 7.0665 3.83337 7.33317 3.83337H9.6665C10.2198 3.83337 10.6665 3.38671 10.6665 2.83337C10.6665 2.56004 10.8932 2.33337 11.1665 2.33337C13.2665 2.33337 14.3332 3.40004 14.3332 5.50004V12C14.3332 14.0134 13.1798 15.1667 11.1665 15.1667ZM5.39982 3.34671C4.34649 3.43338 3.6665 3.90671 3.6665 5.50004V12C3.6665 13.48 4.35317 14.1667 5.83317 14.1667H11.1665C12.6465 14.1667 13.3332 13.48 13.3332 12V5.50004C13.3332 3.90671 12.6532 3.44004 11.5999 3.34671C11.3732 4.20004 10.5932 4.83337 9.6665 4.83337H7.33317C6.79984 4.83337 6.29984 4.6267 5.91984 4.2467C5.66651 3.99337 5.49315 3.68671 5.39982 3.34671Z" fill="#417F56"/>
<path id="Vector_2" d="M9.66683 4.83337H7.3335C6.80016 4.83337 6.30017 4.6267 5.92017 4.2467C5.54017 3.8667 5.3335 3.36671 5.3335 2.83337C5.3335 1.73337 6.2335 0.833374 7.3335 0.833374H9.66683C10.2002 0.833374 10.7002 1.04004 11.0802 1.42004C11.4602 1.80004 11.6668 2.30004 11.6668 2.83337C11.6668 3.93337 10.7668 4.83337 9.66683 4.83337ZM7.3335 1.83337C6.78016 1.83337 6.3335 2.28004 6.3335 2.83337C6.3335 3.10004 6.44016 3.35337 6.62683 3.54004C6.8135 3.72671 7.06683 3.83337 7.3335 3.83337H9.66683C10.2202 3.83337 10.6668 3.38671 10.6668 2.83337C10.6668 2.56671 10.5602 2.31338 10.3735 2.12671C10.1868 1.94004 9.9335 1.83337 9.66683 1.83337H7.3335Z" fill="#417F56"/>
<path id="Vector_3" d="M8.50016 9.16663H5.8335C5.56016 9.16663 5.3335 8.93996 5.3335 8.66663C5.3335 8.39329 5.56016 8.16663 5.8335 8.16663H8.50016C8.7735 8.16663 9.00016 8.39329 9.00016 8.66663C9.00016 8.93996 8.7735 9.16663 8.50016 9.16663Z" fill="#417F56"/>
<path id="Vector_4" d="M11.1668 11.8334H5.8335C5.56016 11.8334 5.3335 11.6067 5.3335 11.3334C5.3335 11.06 5.56016 10.8334 5.8335 10.8334H11.1668C11.4402 10.8334 11.6668 11.06 11.6668 11.3334C11.6668 11.6067 11.4402 11.8334 11.1668 11.8334Z" fill="#417F56"/>
</g>
</g>
</g>
</svg>
