<svg width="63" height="30" viewBox="0 0 63 30" fill="none" xmlns="http://www.w3.org/2000/svg">
<path d="M0 6.53709C0 6.48486 0.0301596 6.45874 0.0904787 6.45874C0.16867 6.45874 0.29266 6.50984 0.462447 6.61204C2.03968 7.60219 4.08718 8.09727 6.60495 8.09727C8.14644 8.09727 9.64883 7.82589 11.1121 7.28312C11.369 7.18546 11.6349 7.02649 11.9097 6.80621C12.1376 6.59273 12.3688 6.38153 12.6034 6.1726L12.6302 6.13172C12.6302 6.06132 12.4883 6.00568 12.2046 5.9648C12.0482 5.93073 11.8829 5.90689 11.7086 5.89326C11.5991 5.87509 11.4763 5.81718 11.34 5.71953C11.1881 5.62642 11.1077 5.52422 11.0987 5.41294V5.14724C11.0987 4.70893 11.292 4.23089 11.6785 3.7131C12.0649 3.19531 12.4593 2.89667 12.8614 2.81718C13.0781 2.91029 13.1864 3.05677 13.1864 3.25662C13.1864 3.34519 13.163 3.47123 13.1161 3.63475C13.058 3.80961 12.9854 3.905 12.8982 3.92089C12.7195 3.73467 12.6022 3.64156 12.5464 3.64156C12.4012 3.64156 12.1778 3.81302 11.8762 4.15594C11.5768 4.49659 11.4271 4.74527 11.4271 4.90197C11.4271 4.9542 11.4349 4.98713 11.4506 5.00076C11.6137 5.11204 11.7645 5.17676 11.903 5.19493C12.3543 5.26079 12.5922 5.29826 12.6168 5.30734C12.8915 5.39137 13.0289 5.56851 13.0289 5.83876C13.0289 6.27025 12.8413 6.69606 12.466 7.1162C12.1353 7.46366 11.7511 7.72824 11.3132 7.90992C10.6251 8.18471 9.84878 8.41522 8.9842 8.60144C8.08388 8.79674 7.28633 8.8944 6.59154 8.8944C4.71941 8.8944 3.24606 8.68433 2.17149 8.26419C1.92798 8.15291 1.77606 8.08365 1.71574 8.0564C1.30915 7.77706 0.985213 7.54428 0.743936 7.35806C0.247979 6.92657 0 6.65291 0 6.53709Z" fill="white"/>
<path d="M13.7159 0.746026C13.7718 0.378123 13.8611 0.143073 13.984 0.0408781C14.0041 0.0635882 14.0209 0.0794852 14.0343 0.0885693C14.0923 0.404239 14.1616 0.915216 14.242 1.6215C14.3224 2.32551 14.3895 2.95912 14.4431 3.52233C14.4989 4.08554 14.5269 4.38304 14.5269 4.41484C14.5269 4.4807 14.5101 4.58516 14.4766 4.72824C14.4453 4.86904 14.3794 4.96442 14.2789 5.01438C14.2074 4.43755 14.1359 3.86412 14.0644 3.2941C13.9952 2.72407 13.9192 2.16313 13.8365 1.61128C13.7561 1.05715 13.7159 0.768736 13.7159 0.746026Z" fill="white"/>
<path d="M16.7587 4.30924C16.7587 4.12301 16.838 3.82324 16.9966 3.40992C17.1709 3.00568 17.3205 2.73089 17.4456 2.58554C17.7428 2.74451 17.955 2.88645 18.0823 3.01135C18.2566 3.19304 18.3437 3.42808 18.3437 3.7165C18.3437 4.24792 18.165 4.62718 17.8076 4.85428C17.7807 4.8997 17.7003 4.9349 17.5663 4.95988C17.4345 4.98259 17.3317 4.99394 17.258 4.99394C17.0994 4.99394 16.972 4.919 16.876 4.76911C16.7978 4.63058 16.7587 4.47729 16.7587 4.30924ZM17.1776 3.99584C17.1776 4.04807 17.2077 4.10257 17.268 4.15935C17.3306 4.21385 17.3797 4.2411 17.4155 4.2411H17.5194C17.7383 4.2411 17.8802 4.19455 17.9449 4.10144C17.9449 3.93338 17.888 3.78577 17.774 3.65859C17.6601 3.52914 17.5316 3.45079 17.3887 3.42354C17.2479 3.67108 17.1776 3.86185 17.1776 3.99584Z" fill="white"/>
<path d="M18.528 7.0651C18.528 7.01968 18.6911 6.95042 19.0173 6.8573C19.5065 6.69379 19.8428 6.5564 20.026 6.44512C20.3678 6.24073 20.6012 6.00568 20.7263 5.73997C20.7487 5.67411 20.7598 5.63664 20.7598 5.62755C20.7598 5.33914 20.7341 5.10409 20.6828 4.92241C20.656 4.84519 20.551 4.62263 20.3678 4.25473C20.3968 3.88683 20.4471 3.6654 20.5186 3.59046L20.656 3.67562C20.7855 3.88001 20.8593 3.99357 20.8771 4.01628C20.9598 4.10939 21.0737 4.17752 21.2189 4.22067C21.3977 4.29334 21.5127 4.31832 21.5641 4.29561V5.00076C21.3898 5.00984 21.2178 4.9894 21.048 4.93944V5.25965C21.048 5.68206 20.9285 6.07721 20.6895 6.44512C20.4527 6.81302 20.1466 7.07532 19.7713 7.23202C18.9424 7.257 18.528 7.20136 18.528 7.0651Z" fill="white"/>
<path d="M21.4301 4.29561C21.544 4.30015 21.7104 4.2536 21.9294 4.15594C22.1483 4.05829 22.279 4.00946 22.3214 4.00946C22.4041 4.00946 22.5471 4.05715 22.7504 4.15254C22.9537 4.24792 23.1168 4.29561 23.2396 4.29561V5.00076C23.0989 5.00076 22.9291 4.94852 22.7303 4.84406C22.5314 4.73959 22.3952 4.68736 22.3214 4.68736C22.2879 4.68736 22.1729 4.73959 21.9763 4.84406C21.7797 4.94852 21.6177 5.00076 21.4904 5.00076H21.4301V4.29561ZM22.3751 6.16238C22.4801 5.85125 22.5761 5.67979 22.6632 5.64799C22.7414 5.68887 22.8263 5.73997 22.9179 5.80129C23.014 5.88077 23.0799 5.95231 23.1156 6.0159C23.0464 6.37472 22.9481 6.55413 22.8207 6.55413C22.7738 6.55413 22.6889 6.5053 22.5661 6.40765C22.47 6.30545 22.4063 6.22369 22.3751 6.16238ZM21.5708 6.47578C21.5708 6.36904 21.6535 6.19531 21.8188 5.95458C22.0712 6.13172 22.2332 6.25662 22.3047 6.3293V6.35314C22.3047 6.4349 22.2823 6.53482 22.2377 6.65291C22.1863 6.77782 22.136 6.84027 22.0869 6.84027C22.031 6.84027 21.9305 6.79258 21.7853 6.6972C21.6423 6.60182 21.5708 6.52801 21.5708 6.47578Z" fill="white"/>
<path d="M23.0888 4.29561C23.4507 4.29561 23.8384 4.24905 24.2516 4.15594C24.6985 4.04012 25.0682 3.89818 25.3609 3.73013C24.7889 3.53482 24.465 3.43717 24.389 3.43717C24.293 3.43717 24.1433 3.47123 23.94 3.53936C23.7389 3.60749 23.5837 3.64156 23.4742 3.64156C23.5837 3.25095 23.6485 3.04769 23.6686 3.03179C23.7266 2.92051 23.873 2.80242 24.1076 2.67752C24.188 2.6321 24.2997 2.60939 24.4427 2.60939C24.503 2.60939 24.7498 2.70477 25.1832 2.89553C25.6636 3.11355 25.9518 3.23846 26.0478 3.27025C26.546 3.42468 27.0196 3.50189 27.4687 3.50189C27.5111 3.53823 27.5346 3.56775 27.539 3.59046C27.539 3.67449 27.481 3.84027 27.3648 4.08781H27.2509C26.947 4.08781 26.718 4.06397 26.5639 4.01628L26.5438 4.11506L26.5639 4.23429C26.6555 4.3274 26.7906 4.37396 26.9694 4.37396C27.2374 4.37396 27.4888 4.34784 27.7234 4.29561V5.00076L26.9895 5.01438C26.8107 5.01892 26.6633 4.95988 26.5471 4.83724C26.4332 4.71461 26.3762 4.56245 26.3762 4.38077C26.3762 4.35125 26.3807 4.3081 26.3896 4.25132C26.4008 4.19228 26.4064 4.14686 26.4064 4.11506V4.01628C26.1942 4.01628 25.9462 4.0651 25.6624 4.16276C25.2737 4.3081 24.9699 4.43414 24.751 4.54088C24.322 4.71802 24.064 4.81794 23.9769 4.84065C23.6842 4.94739 23.4139 5.00076 23.1659 5.00076H23.0888V4.29561ZM24.7945 6.15216C24.8951 5.79334 25.0001 5.60484 25.1095 5.58668C25.1788 5.59576 25.2704 5.63323 25.3843 5.69909C25.5273 5.7922 25.5988 5.87169 25.5988 5.93755C25.5988 5.98751 25.5753 6.07494 25.5284 6.19985C25.4837 6.3134 25.4357 6.39288 25.3843 6.4383H25.3508C25.2637 6.4383 25.1587 6.40765 25.0358 6.34633C24.8749 6.29637 24.7945 6.23164 24.7945 6.15216Z" fill="white"/>
<path d="M27.4385 2.08819C27.539 1.72937 27.644 1.54088 27.7535 1.52271C27.8228 1.53179 27.9144 1.56927 28.0283 1.63512C28.1713 1.72824 28.2428 1.80772 28.2428 1.87358C28.2428 1.92354 28.2193 2.01098 28.1724 2.13588C28.1277 2.24943 28.0797 2.32892 28.0283 2.37434H27.9948C27.9077 2.37434 27.8027 2.34368 27.6798 2.28236C27.5189 2.2324 27.4385 2.16768 27.4385 2.08819ZM27.6094 4.29561C27.9199 4.30015 28.0953 4.23316 28.1355 4.09462C28.1221 4.03785 28.0674 3.93111 27.9713 3.77441C27.8887 3.64269 27.8406 3.53255 27.8272 3.44398C27.8786 3.29637 27.9401 3.13172 28.0115 2.95004H28.0417C28.1422 2.95004 28.2383 3.09652 28.3299 3.38948C28.426 3.6461 28.474 3.84822 28.474 3.99584C28.474 4.31605 28.4237 4.55564 28.3232 4.71461C28.2026 4.90537 27.9959 5.00076 27.7032 5.00076H27.6094V4.29561Z" fill="white"/>
<path d="M28.2428 6.42468C28.8549 6.38607 29.2157 6.35314 29.3252 6.32589C29.6491 6.22369 29.9652 6.02044 30.2735 5.71612C30.584 5.41181 30.794 5.0916 30.9035 4.75549C30.7985 4.56927 30.698 4.38645 30.6019 4.20704C30.4455 3.90727 30.3673 3.71082 30.3673 3.61771L30.3908 3.54277C30.3997 3.5246 30.4288 3.44966 30.4779 3.31794C30.5159 3.20212 30.5528 3.14421 30.5885 3.14421C30.6935 3.14421 30.8175 3.29977 30.9605 3.6109C31.1057 3.88115 31.1783 4.08441 31.1783 4.22067C31.1783 5.1268 30.908 5.85693 30.3673 6.41105C30.1127 6.66086 29.8502 6.78577 29.5798 6.78577C29.419 6.78577 29.0113 6.72786 28.3567 6.61204C28.3388 6.59841 28.3009 6.5564 28.2428 6.48599V6.42468ZM29.7306 2.405C29.8312 2.04618 29.9362 1.85768 30.0456 1.83952C30.1149 1.8486 30.2065 1.88607 30.3204 1.95193C30.4634 2.04504 30.5349 2.12453 30.5349 2.19039C30.5349 2.24035 30.5114 2.32778 30.4645 2.45269C30.4198 2.56624 30.3718 2.64572 30.3204 2.69114H30.2869C30.1998 2.69114 30.0948 2.66048 29.9719 2.59917C29.8111 2.54921 29.7306 2.48448 29.7306 2.405Z" fill="white"/>
<path d="M23.5647 6.53709C23.5647 6.48486 23.5948 6.45874 23.6552 6.45874C23.7334 6.45874 23.8573 6.50984 24.0271 6.61204C25.6044 7.60219 27.6519 8.09727 30.1696 8.09727C31.7111 8.09727 33.2135 7.82589 34.6768 7.28312C34.9337 7.18546 35.1996 7.02649 35.4744 6.80621C35.7022 6.59273 35.9335 6.38153 36.168 6.1726L36.1948 6.13172C36.1948 6.06132 36.053 6.00568 35.7693 5.9648C35.6129 5.93073 35.4476 5.90689 35.2733 5.89326C35.1638 5.87509 35.041 5.81718 34.9047 5.71953C34.7528 5.62642 34.6723 5.52422 34.6634 5.41294V5.14724C34.6634 4.70893 34.8567 4.23089 35.2431 3.7131C35.6296 3.19531 36.0239 2.89667 36.4261 2.81718C36.6428 2.91029 36.7511 3.05677 36.7511 3.25662C36.7511 3.34519 36.7277 3.47123 36.6807 3.63475C36.6227 3.80961 36.5501 3.905 36.4629 3.92089C36.2842 3.73467 36.1669 3.64156 36.1111 3.64156C35.9659 3.64156 35.7424 3.81302 35.4409 4.15594C35.1415 4.49659 34.9918 4.74527 34.9918 4.90197C34.9918 4.9542 34.9996 4.98713 35.0153 5.00076C35.1784 5.11204 35.3292 5.17676 35.4677 5.19493C35.9189 5.26079 36.1569 5.29826 36.1814 5.30734C36.4562 5.39137 36.5936 5.56851 36.5936 5.83876C36.5936 6.27025 36.406 6.69606 36.0306 7.1162C35.7 7.46366 35.3157 7.72824 34.8779 7.90992C34.1898 8.18471 33.4135 8.41522 32.5489 8.60144C31.6486 8.79674 30.851 8.8944 30.1562 8.8944C28.2841 8.8944 26.8107 8.68433 25.7362 8.26419C25.4927 8.15291 25.3407 8.08365 25.2804 8.0564C24.8738 7.77706 24.5499 7.54428 24.3086 7.35806C23.8127 6.92657 23.5647 6.65291 23.5647 6.53709Z" fill="white"/>
<path d="M37.1298 0.694928C37.1946 0.324754 37.2404 0.0931113 37.2672 0C37.3275 0.0545042 37.3688 0.152157 37.3912 0.29296C37.4202 0.356548 37.4414 0.458743 37.4548 0.599546C37.6827 2.29599 37.7989 3.18168 37.8034 3.25662C37.8681 3.69947 37.9184 3.95042 37.9542 4.00946C38.0547 4.20023 38.2468 4.29561 38.5305 4.29561V5.00076C38.1284 5.00076 37.8838 4.92127 37.7967 4.7623C37.7274 4.66465 37.657 4.44209 37.5855 4.09462C37.5654 3.9402 37.533 3.70061 37.4884 3.37585C37.3275 1.99962 37.208 1.10598 37.1298 0.694928Z" fill="white"/>
<path d="M38.3998 4.29561C38.5808 4.29561 38.7841 4.26609 39.0097 4.20704C39.2801 4.14118 39.4699 4.06624 39.5794 3.98221C39.461 3.72104 39.4018 3.57456 39.4018 3.54277C39.4018 3.44058 39.4476 3.31681 39.5392 3.17146C39.6353 3.00114 39.6922 2.88304 39.7101 2.81718C39.6453 2.77631 39.6129 2.70363 39.6129 2.59917C39.6129 2.49243 39.6453 2.37207 39.7101 2.23808C39.7727 2.07911 39.8475 1.99962 39.9346 1.99962C40.2094 1.99962 40.5278 2.21423 40.8897 2.64345C41.1779 2.97729 41.3287 3.15329 41.3421 3.17146C41.5297 3.42808 41.6236 3.64724 41.6236 3.82892C41.6236 3.91294 41.5387 4.09462 41.3689 4.37396C41.3197 4.43755 41.2304 4.46934 41.1008 4.46934C40.6629 4.46934 40.3345 4.4137 40.1156 4.30242C39.8542 4.44777 39.5951 4.59198 39.3381 4.73505C38.9718 4.91219 38.6791 5.00076 38.4602 5.00076H38.3998V4.29561ZM40.444 3.84936C40.8506 3.95609 41.0952 4.00946 41.1779 4.00946C41.2382 4.00946 41.2684 3.98675 41.2684 3.94133C41.2684 3.84822 41.1645 3.69493 40.9567 3.48145C40.807 3.31794 40.6585 3.18736 40.511 3.0897C40.549 3.33952 40.5267 3.59273 40.444 3.84936ZM39.6129 3.5564C39.6129 3.60863 39.6219 3.63702 39.6397 3.64156C39.7782 3.71877 39.9179 3.7483 40.0586 3.73013C40.2105 3.62793 40.2865 3.5212 40.2865 3.40992C40.2865 3.31681 40.263 3.22824 40.2161 3.14421C40.167 3.06472 40.1033 3.02498 40.0251 3.02498C39.9559 3.02498 39.8698 3.09538 39.7671 3.23618C39.6643 3.37472 39.6129 3.48145 39.6129 3.5564Z" fill="white"/>
<path d="M32.8572 6.41105C32.8572 6.37699 32.8829 6.35995 32.9343 6.35995C32.999 6.35995 33.1387 6.419 33.3531 6.53709C34.5372 7.14572 35.5526 7.5545 36.3993 7.76344C37.342 7.98599 38.4177 8.09727 39.6263 8.09727C41.4828 8.09727 42.9506 7.92241 44.0296 7.57267C45.1109 7.22521 45.9308 6.56775 46.4893 5.6003C46.4893 5.29826 46.3955 4.96329 46.2078 4.59538C46.0202 4.22748 45.9263 4.02309 45.9263 3.98221C45.9263 3.89364 45.9855 3.69606 46.1039 3.38948C46.095 3.28728 46.1151 3.23618 46.1643 3.23618C46.2559 3.23618 46.3955 3.48486 46.5831 3.98221C46.7753 4.45685 46.8713 4.77593 46.8713 4.93944C46.9495 5.57078 46.6814 6.23959 46.0671 6.94587C45.455 7.65443 44.4742 8.1779 43.1248 8.51628C41.9453 8.75019 40.8037 8.86715 39.7001 8.86715C38.8221 8.86715 37.9899 8.82286 37.2035 8.73429C36.1468 8.58895 35.3548 8.37661 34.8276 8.09727C34.5171 7.94057 34.1741 7.70553 33.7988 7.39213C33.629 7.23543 33.4548 7.08668 33.2761 6.94587C32.9968 6.69152 32.8572 6.51325 32.8572 6.41105ZM44.73 1.64194C44.73 1.59652 44.7792 1.50114 44.8775 1.35579C44.9757 1.20818 45.0383 1.13437 45.0651 1.13437C45.1031 1.13437 45.1969 1.17411 45.3466 1.2536C45.5075 1.34671 45.5879 1.42279 45.5879 1.48183C45.5879 1.52498 45.5421 1.61582 45.4505 1.75435C45.3678 1.91332 45.2963 1.99281 45.236 1.99281C45.1824 1.99281 45.0841 1.94739 44.9411 1.85655C44.8004 1.76571 44.73 1.69417 44.73 1.64194Z" fill="white"/>
<path d="M47.3874 0.746026C47.4432 0.378123 47.5326 0.143073 47.6555 0.0408781C47.6756 0.0635882 47.6923 0.0794852 47.7057 0.0885693C47.7638 0.404239 47.8331 0.915216 47.9135 1.6215C47.9939 2.32551 48.061 2.95912 48.1146 3.52233C48.1704 4.08554 48.1984 4.38304 48.1984 4.41484C48.1984 4.4807 48.1816 4.58516 48.1481 4.72824C48.1168 4.86904 48.0509 4.96442 47.9504 5.01438C47.8789 4.43755 47.8074 3.86412 47.7359 3.2941C47.6667 2.72407 47.5907 2.16313 47.508 1.61128C47.4276 1.05715 47.3874 0.768736 47.3874 0.746026Z" fill="white"/>
<path d="M47.9939 6.42468C48.6061 6.38607 48.9669 6.35314 49.0763 6.32589C49.4003 6.22369 49.7164 6.02044 50.0247 5.71612C50.3352 5.41181 50.5452 5.0916 50.6547 4.75549C50.5497 4.56927 50.4492 4.38645 50.3531 4.20704C50.1967 3.90727 50.1185 3.71082 50.1185 3.61771L50.142 3.54277C50.1509 3.5246 50.1799 3.44966 50.2291 3.31794C50.2671 3.20212 50.3039 3.14421 50.3397 3.14421C50.4447 3.14421 50.5687 3.29977 50.7117 3.6109C50.8569 3.88115 50.9295 4.08441 50.9295 4.22067C50.9295 5.1268 50.6592 5.85693 50.1185 6.41105C49.8638 6.66086 49.6013 6.78577 49.331 6.78577C49.1702 6.78577 48.7624 6.72786 48.1079 6.61204C48.09 6.59841 48.052 6.5564 47.9939 6.48599V6.42468Z" fill="white"/>
<path d="M50.9127 6.36677C50.9306 6.35314 50.9641 6.34633 51.0132 6.34633H51.3517C51.8276 6.34633 52.1504 6.32362 52.3202 6.2782C52.5436 6.20325 52.8172 6.02612 53.1412 5.74678C53.4807 5.46291 53.6896 5.21423 53.7678 5.00076C53.388 5.00076 53.1356 4.97464 53.0105 4.92241C52.7826 4.84519 52.6687 4.64762 52.6687 4.32967C52.6687 4.12983 52.7424 3.905 52.8898 3.65519C53.0485 3.37585 53.2082 3.23618 53.369 3.23618C53.4874 3.23618 53.6226 3.38266 53.7745 3.67562C53.9153 3.90272 54.0091 4.10939 54.056 4.29561H54.2336V5.00076H53.9856C53.9544 5.31643 53.779 5.66957 53.4595 6.06018C53.1334 6.42808 52.8195 6.66768 52.5179 6.77896C52.2476 6.73353 51.9381 6.6779 51.5896 6.61204C51.1384 6.50984 50.9127 6.42808 50.9127 6.36677ZM53.0272 4.16276C53.1322 4.25132 53.2506 4.29561 53.3824 4.29561C53.4048 4.29561 53.4327 4.29107 53.4662 4.28198C53.4662 4.21158 53.4495 4.14232 53.416 4.07419C53.3668 3.98107 53.3121 3.93452 53.2518 3.93452C53.1423 3.93452 53.0674 4.0106 53.0272 4.16276Z" fill="white"/>
<path d="M54.1163 4.29561C54.2303 4.30015 54.3967 4.2536 54.6156 4.15594C54.8346 4.05829 54.9653 4.00946 55.0077 4.00946C55.0904 4.00946 55.2334 4.05715 55.4367 4.15254C55.6399 4.24792 55.803 4.29561 55.9259 4.29561V5.00076C55.7852 5.00076 55.6154 4.94852 55.4165 4.84406C55.2177 4.73959 55.0814 4.68736 55.0077 4.68736C54.9742 4.68736 54.8591 4.73959 54.6626 4.84406C54.466 4.94852 54.304 5.00076 54.1767 5.00076H54.1163V4.29561ZM54.9206 2.34368C55.0256 2.03255 55.1217 1.86109 55.2088 1.8293C55.287 1.87017 55.3719 1.92127 55.4635 1.98259C55.5595 2.06207 55.6254 2.13361 55.6612 2.1972C55.5919 2.55602 55.4936 2.73543 55.3663 2.73543C55.3194 2.73543 55.2345 2.6866 55.1116 2.58895C55.0155 2.48675 54.9519 2.405 54.9206 2.34368ZM54.1163 2.65708C54.1163 2.55034 54.199 2.37661 54.3643 2.13588C54.6168 2.31302 54.7787 2.43793 54.8502 2.5106V2.53444C54.8502 2.6162 54.8279 2.71612 54.7832 2.83422C54.7318 2.95912 54.6815 3.02157 54.6324 3.02157C54.5765 3.02157 54.476 2.97388 54.3308 2.8785C54.1878 2.78312 54.1163 2.70931 54.1163 2.65708Z" fill="white"/>
<path d="M55.7751 4.29561C56.0923 4.29561 56.3951 4.25814 56.6832 4.18319C57.1122 4.081 57.3613 3.93452 57.4305 3.74375C57.4998 3.55299 57.5635 3.4349 57.6215 3.38948C57.6417 3.4031 57.6517 3.43376 57.6517 3.48145C57.6517 3.62907 57.6104 3.82665 57.5277 4.07419C57.5903 4.0969 57.645 4.10825 57.6919 4.10825C58.1588 4.10825 58.4839 4.03785 58.6671 3.89705C58.781 3.80394 58.8681 3.65064 58.9285 3.43717C58.9865 3.23278 59.077 3.1056 59.1999 3.05564L59.2167 3.08289C59.2256 3.09652 59.2301 3.11241 59.2301 3.13058C59.2301 3.20098 59.1999 3.37131 59.1396 3.64156C59.2044 3.74375 59.2703 3.80621 59.3373 3.82892C59.3574 3.83346 59.4557 3.85617 59.6322 3.89705L59.8064 3.82892C59.8064 3.78123 59.7964 3.73013 59.7763 3.67562C59.7584 3.61885 59.7495 3.57911 59.7495 3.5564C59.7495 3.52914 59.7796 3.42241 59.8399 3.23618C59.9181 3.02271 59.9572 2.90916 59.9572 2.89553C60.0064 2.89553 60.0567 2.97388 60.108 3.13058C60.1527 3.25549 60.1751 3.35768 60.1751 3.43717C60.1751 3.71196 60.127 3.96064 60.031 4.18319C59.9036 4.47615 59.7204 4.62263 59.4814 4.62263C59.363 4.62263 59.1619 4.5352 58.8782 4.36033C58.8089 4.53066 58.647 4.66238 58.3923 4.75549C58.1957 4.82135 57.9868 4.85428 57.7656 4.85428C57.5467 4.85428 57.3434 4.82135 57.1557 4.75549C56.7223 4.919 56.318 5.00076 55.9427 5.00076H55.7751V4.29561Z" fill="white"/>
<path d="M60.0645 6.42468C60.6766 6.38607 61.0374 6.35314 61.1469 6.32589C61.4708 6.22369 61.7869 6.02044 62.0952 5.71612C62.4057 5.41181 62.6157 5.0916 62.7252 4.75549C62.6202 4.56927 62.5197 4.38645 62.4236 4.20704C62.2672 3.90727 62.189 3.71082 62.189 3.61771L62.2125 3.54277C62.2214 3.5246 62.2505 3.44966 62.2996 3.31794C62.3376 3.20212 62.3745 3.14421 62.4102 3.14421C62.5152 3.14421 62.6392 3.29977 62.7822 3.6109C62.9274 3.88115 63 4.08441 63 4.22067C63 5.1268 62.7297 5.85693 62.189 6.41105C61.9344 6.66086 61.6719 6.78577 61.4015 6.78577C61.2407 6.78577 60.833 6.72786 60.1784 6.61204C60.1605 6.59841 60.1226 6.5564 60.0645 6.48599V6.42468Z" fill="white"/>
<path d="M12.9875 23.7539H11.8727C10.4453 23.7539 9.19951 23.3074 8.13531 22.4145C7.13868 21.5817 6.42922 20.4655 6.00692 19.0661C5.82111 18.4479 5.41147 18.1388 4.77802 18.1388C4.4064 18.1388 4.08968 18.2676 3.82785 18.5251C3.57447 18.7741 3.44778 19.0832 3.44778 19.4524C3.44778 19.8216 3.57447 20.1393 3.82785 20.4054C4.08968 20.663 4.4064 20.7918 4.77802 20.7918H6.81773V23.7539H4.91738C3.73494 23.7539 2.71298 23.346 1.85149 22.5304C0.99844 21.7148 0.571917 20.6888 0.571917 19.4524C0.571917 18.2762 0.981548 17.2716 1.80081 16.4388C2.62007 15.606 3.61248 15.1896 4.77802 15.1896C5.68175 15.1896 6.50945 15.4729 7.26115 16.0396C8.01284 16.5977 8.52805 17.3189 8.80677 18.2032C9.33042 19.9289 10.3524 20.7918 11.8727 20.7918H12.9875V23.7539Z" fill="white"/>
<path d="M18.5112 12.807H17.067C16.67 12.807 16.3279 12.6654 16.0408 12.382C15.7536 12.0901 15.61 11.7424 15.61 11.3389C15.61 10.9354 15.7536 10.5876 16.0408 10.2957C16.3279 10.0038 16.67 9.85784 17.067 9.85784C17.4639 9.85784 17.8018 10.0038 18.0805 10.2957C18.3676 10.5876 18.5112 10.9354 18.5112 11.3389V12.807ZM23.5028 23.7539H22.3753C21.2013 23.7539 20.1202 23.389 19.132 22.6592V23.7539H11.8727V20.7918H16.2308V15.2797H19.132V17.1214C19.132 18.1774 19.4318 19.0532 20.0315 19.7486C20.6312 20.4441 21.4124 20.7918 22.3753 20.7918H23.5028V23.7539Z" fill="white"/>
<path d="M33.9167 23.7539H32.7892C31.6152 23.7539 30.5341 23.389 29.5459 22.6592V23.7539H22.2866V20.7918H26.6447V15.2797H29.5459V17.1214C29.5459 18.1774 29.8458 19.0532 30.4454 19.7486C31.0451 20.4441 31.8263 20.7918 32.7892 20.7918H33.9167V23.7539ZM31.535 28.9955H30.0654C29.6684 28.9955 29.3263 28.8495 29.0392 28.5576C28.7604 28.2657 28.6211 27.918 28.6211 27.5144C28.6211 27.1023 28.7604 26.7546 29.0392 26.4713C29.3263 26.1879 29.6684 26.0463 30.0654 26.0463C30.4708 26.0463 30.817 26.1879 31.1042 26.4713C31.3914 26.7546 31.535 27.1023 31.535 27.5144V28.9955ZM28.241 28.9955H26.7841C26.3787 28.9955 26.0324 28.8495 25.7452 28.5576C25.4665 28.2657 25.3271 27.918 25.3271 27.5144C25.3271 27.1023 25.4665 26.7546 25.7452 26.4713C26.0324 26.1879 26.3787 26.0463 26.7841 26.0463C27.181 26.0463 27.5231 26.1879 27.8103 26.4713C28.0974 26.7546 28.241 27.1023 28.241 27.5144V28.9955Z" fill="white"/>
<path d="M47.0925 23.7539H32.7005V20.7918H44.0266C43.7817 20.0362 43.3425 19.4181 42.709 18.9373C42.084 18.4565 41.3661 18.2161 40.5553 18.2161L36.2352 18.2289V15.2797H40.5553C42.3543 15.2797 43.8914 15.928 45.1668 17.2244C46.4506 18.5123 47.0925 20.0749 47.0925 21.9122V23.7539ZM39.6685 13.7601H38.2242C37.8272 13.7601 37.4852 13.6184 37.198 13.3351C36.9108 13.0432 36.7672 12.6954 36.7672 12.2919C36.7672 11.8884 36.9108 11.5406 37.198 11.2487C37.4852 10.9568 37.8272 10.8109 38.2242 10.8109C38.6211 10.8109 38.959 10.9568 39.2377 11.2487C39.5249 11.5406 39.6685 11.8884 39.6685 12.2919V13.7601Z" fill="white"/>
<path d="M56.2706 23.7539H55.1431C53.9775 23.7539 52.8964 23.389 51.8998 22.6592V23.3675C51.8998 25.222 51.241 26.7889 49.9234 28.0682C48.6143 29.3561 46.9758 30 45.0079 30V27.0508C46.1818 27.0508 47.1405 26.6945 47.8837 25.9819C48.6354 25.2693 49.0113 24.3978 49.0113 23.3675V15.2797H51.8998V17.1214C51.8998 18.1774 52.1996 19.0532 52.7993 19.7486C53.4074 20.4441 54.1887 20.7918 55.1431 20.7918H56.2706V23.7539Z" fill="white"/>
<path d="M62.4024 23.7539H55.1431V20.7918H59.5012V15.2797H62.4024V23.7539ZM62.5291 12.601H61.0595C60.6625 12.601 60.3205 12.455 60.0333 12.1631C59.7546 11.8712 59.6152 11.5235 59.6152 11.1199C59.6152 10.7078 59.7546 10.3601 60.0333 10.0768C60.3205 9.79345 60.6625 9.65178 61.0595 9.65178C61.4649 9.65178 61.8112 9.79345 62.0983 10.0768C62.3855 10.3601 62.5291 10.7078 62.5291 11.1199V12.601ZM59.2351 12.601H57.7782C57.3728 12.601 57.0265 12.455 56.7393 12.1631C56.4606 11.8712 56.3213 11.5235 56.3213 11.1199C56.3213 10.7078 56.4606 10.3601 56.7393 10.0768C57.0265 9.79345 57.3728 9.65178 57.7782 9.65178C58.1752 9.65178 58.5172 9.79345 58.8044 10.0768C59.0916 10.3601 59.2351 10.7078 59.2351 11.1199V12.601Z" fill="white"/>
</svg>
