<svg width="731" height="40" viewBox="0 0 731 40" fill="none" xmlns="http://www.w3.org/2000/svg">
<path d="M11.7441 20.002L10.5889 19.8174C10.4932 20.4098 10.3405 20.9225 10.1309 21.3555C9.92578 21.7839 9.63411 22.1393 9.25586 22.4219C8.8776 22.6999 8.3877 22.9072 7.78613 23.0439C7.18913 23.1761 6.45085 23.2422 5.57129 23.2422C4.68262 23.2422 3.96484 23.1647 3.41797 23.0098C2.87109 22.8503 2.47233 22.6087 2.22168 22.2852C1.97559 21.957 1.85254 21.5423 1.85254 21.041C1.85254 20.7812 1.88216 20.501 1.94141 20.2002C2.00065 19.8949 2.08496 19.5736 2.19434 19.2363L1.07324 18.9082C0.945638 19.3001 0.845378 19.6875 0.772461 20.0703C0.704102 20.4531 0.669922 20.8154 0.669922 21.1572C0.669922 21.8499 0.827148 22.4469 1.1416 22.9482C1.45605 23.445 1.95736 23.8278 2.64551 24.0967C3.33822 24.3656 4.2474 24.5 5.37305 24.5C6.57161 24.5 7.61068 24.3656 8.49023 24.0967C9.37435 23.8232 10.0557 23.3493 10.5342 22.6748C10.7119 23.2764 11.0264 23.7321 11.4775 24.042C11.9333 24.3473 12.5531 24.5 13.3369 24.5H13.3438V23.2422H13.3369C12.8447 23.2422 12.4688 23.1738 12.209 23.0371C11.9538 22.9004 11.7783 22.7158 11.6826 22.4834C11.5915 22.2464 11.5459 21.9798 11.5459 21.6836C11.5459 21.4147 11.5641 21.1458 11.6006 20.877C11.6416 20.6035 11.6895 20.3118 11.7441 20.002ZM6.37793 18.9629L7.40332 19.9814L8.42188 18.9629L7.40332 17.9375L6.37793 18.9629ZM3.99219 18.9629L5.01758 19.9814L6.03613 18.9629L5.01758 17.9375L3.99219 18.9629ZM16.5566 18.6484C15.8867 18.6484 15.3786 18.8672 15.0322 19.3047C14.6859 19.7422 14.4443 20.3164 14.3076 21.0273L14.2598 21.2871L15.2852 21.4785L15.3262 21.2598C15.4173 20.8451 15.5609 20.5146 15.7568 20.2686C15.9574 20.0225 16.2399 19.8994 16.6045 19.8994C16.8232 19.8994 17.0465 19.945 17.2744 20.0361C17.5068 20.1227 17.762 20.2298 18.04 20.3574C18.3363 20.4896 18.6598 20.6263 19.0107 20.7676C19.3662 20.9089 19.765 21.0228 20.207 21.1094L18.2725 22.3535C17.9398 22.5632 17.6048 22.734 17.2676 22.8662C16.9349 22.9938 16.5885 23.0895 16.2285 23.1533C15.8685 23.2126 15.4834 23.2422 15.0732 23.2422H13.3438C13.2663 23.2422 13.2116 23.2878 13.1797 23.3789C13.1478 23.4701 13.1318 23.6341 13.1318 23.8711C13.1318 24.1035 13.1478 24.2676 13.1797 24.3633C13.2116 24.4544 13.2663 24.5 13.3438 24.5H14.875C15.6315 24.5 16.3311 24.4066 16.9736 24.2197C17.6208 24.0329 18.2451 23.7412 18.8467 23.3447L21.6699 21.458V20.3574C21.0775 20.2435 20.5374 20.0908 20.0498 19.8994C19.5622 19.7035 19.1087 19.512 18.6895 19.3252C18.2839 19.1383 17.9056 18.9788 17.5547 18.8467C17.2083 18.7145 16.8757 18.6484 16.5566 18.6484ZM16.6865 15.75L17.7119 16.7686L18.7305 15.75L17.7119 14.7246L16.6865 15.75ZM24.7598 24.5V15.0938H23.502V24.5H24.7598ZM32.2041 21.9229C32.2041 21.4124 32.0924 20.9111 31.8691 20.4189C31.6458 19.9268 31.3291 19.4368 30.9189 18.9492C30.5088 18.4616 30.0257 17.9717 29.4697 17.4795L28.6494 18.4502C29.4196 19.1338 29.9984 19.7627 30.3857 20.3369C30.7731 20.9066 30.9668 21.4102 30.9668 21.8477C30.9668 22.1895 30.862 22.4674 30.6523 22.6816C30.4473 22.8958 30.1647 23.0531 29.8047 23.1533C29.4447 23.2536 29.0345 23.3037 28.5742 23.3037C28.2643 23.3037 27.9567 23.2832 27.6514 23.2422C27.346 23.2012 27.0658 23.1465 26.8105 23.0781L26.5234 24.2744C26.847 24.3656 27.1842 24.4362 27.5352 24.4863C27.8906 24.5319 28.2461 24.5547 28.6016 24.5547C29.0391 24.5547 29.4697 24.5091 29.8936 24.418C30.3219 24.3268 30.7093 24.1787 31.0557 23.9736C31.4066 23.7686 31.6846 23.4974 31.8896 23.1602C32.0993 22.8229 32.2041 22.4105 32.2041 21.9229ZM34.8018 20.3779C35.0205 21.0889 35.1846 21.7201 35.2939 22.2715C35.4033 22.8184 35.458 23.2992 35.458 23.7139C35.458 24.2881 35.3441 24.7894 35.1162 25.2178C34.8883 25.6462 34.5215 26.029 34.0156 26.3662C33.5098 26.708 32.8421 27.0339 32.0127 27.3438L32.5459 28.4854C33.5075 28.1208 34.2891 27.7152 34.8906 27.2686C35.4967 26.8219 35.9388 26.307 36.2168 25.7236C36.4993 25.1449 36.6338 24.4658 36.6201 23.6865C36.8024 23.9463 37.0622 24.1468 37.3994 24.2881C37.7412 24.4294 38.1309 24.5 38.5684 24.5H38.5752V23.2422H38.5684C38.1309 23.2422 37.7777 23.1898 37.5088 23.085C37.2399 22.9756 37.0212 22.7842 36.8525 22.5107C36.6839 22.2373 36.5312 21.8522 36.3945 21.3555L36.0049 19.9814L34.8018 20.3779ZM37.8232 26.9336L38.8486 27.9521L39.8672 26.9336L38.8486 25.9082L37.8232 26.9336ZM40.209 26.9336L41.2344 27.9521L42.2529 26.9336L41.2344 25.9082L40.209 26.9336ZM39.0264 29.0596L40.0518 30.0781L41.0703 29.0596L40.0518 28.0342L39.0264 29.0596ZM42.0137 18.9561L40.8311 19.2773C40.9404 19.7422 41.0293 20.1683 41.0977 20.5557C41.1706 20.9385 41.207 21.2826 41.207 21.5879C41.207 21.9434 41.1432 22.2441 41.0156 22.4902C40.888 22.7363 40.6693 22.9232 40.3594 23.0508C40.0495 23.1784 39.6211 23.2422 39.0742 23.2422H38.582C38.5046 23.2422 38.4499 23.2878 38.418 23.3789C38.3861 23.4655 38.3701 23.6296 38.3701 23.8711C38.3701 24.1081 38.3861 24.2721 38.418 24.3633C38.4499 24.4544 38.5046 24.5 38.582 24.5H39.0742C39.9082 24.5 40.569 24.3838 41.0566 24.1514C41.5488 23.9189 41.8997 23.5908 42.1094 23.167C42.3236 22.7432 42.4307 22.2441 42.4307 21.6699C42.4307 21.278 42.3919 20.8542 42.3145 20.3984C42.237 19.9427 42.1367 19.4619 42.0137 18.9561Z" fill="#CBCBCB"/>
<path d="M65 17.75H59C58.59 17.75 58.25 17.41 58.25 17C58.25 16.59 58.59 16.25 59 16.25H65C65.41 16.25 65.75 16.59 65.75 17C65.75 17.41 65.41 17.75 65 17.75Z" fill="#CBCBCB"/>
<path d="M71.0399 22.7999C69.5299 22.7999 68.2499 21.6799 68.1299 20.2399C68.0499 19.4099 68.3499 18.5999 68.9499 18.0099C69.4499 17.4899 70.1599 17.2 70.9099 17.2H72.9999C73.9899 17.23 74.7499 18.0099 74.7499 18.9699V21.03C74.7499 21.99 73.9899 22.7699 73.0299 22.7999H71.0399ZM72.9699 18.7H70.9199C70.5699 18.7 70.2499 18.8299 70.0199 19.0699C69.7299 19.3499 69.5899 19.7299 69.6299 20.1099C69.6799 20.7699 70.3199 21.2999 71.0399 21.2999H72.9999C73.1299 21.2999 73.2499 21.18 73.2499 21.03V18.9699C73.2499 18.8199 73.1299 18.71 72.9699 18.7Z" fill="#CBCBCB"/>
<path d="M68 29.25H59C55.56 29.25 53.25 26.94 53.25 23.5V16.5C53.25 13.42 55.15 11.19 58.1 10.82C58.37 10.78 58.68 10.75 59 10.75H68C68.24 10.75 68.55 10.76 68.87 10.81C71.82 11.15 73.75 13.39 73.75 16.5V17.95C73.75 18.36 73.41 18.7 73 18.7H70.92C70.57 18.7 70.25 18.83 70.02 19.07L70.01 19.08C69.73 19.35 69.6 19.72 69.63 20.1C69.68 20.76 70.32 21.29 71.04 21.29H73C73.41 21.29 73.75 21.63 73.75 22.04V23.49C73.75 26.94 71.44 29.25 68 29.25ZM59 12.25C58.76 12.25 58.53 12.27 58.3 12.3C56.1 12.58 54.75 14.18 54.75 16.5V23.5C54.75 26.08 56.42 27.75 59 27.75H68C70.58 27.75 72.25 26.08 72.25 23.5V22.8H71.04C69.53 22.8 68.25 21.68 68.13 20.24C68.05 19.42 68.35 18.6 68.95 18.02C69.47 17.49 70.17 17.2 70.92 17.2H72.25V16.5C72.25 14.16 70.88 12.55 68.66 12.29C68.42 12.25 68.21 12.25 68 12.25H59Z" fill="#CBCBCB"/>
<line x1="283.5" y1="20.5" x2="84.5" y2="20.5" stroke="#CBCBCB" stroke-linecap="round" stroke-dasharray="4 4"/>
<path d="M305.203 18.125L303.055 18.5938C303.143 18.9948 303.208 19.3646 303.25 19.7031C303.297 20.0365 303.32 20.3359 303.32 20.6016C303.32 21.1641 303.195 21.5885 302.945 21.875C302.695 22.1615 302.26 22.3542 301.641 22.4531C301.021 22.5469 300.156 22.5938 299.047 22.5938C297.943 22.5938 297.081 22.5469 296.461 22.4531C295.841 22.3542 295.406 22.1615 295.156 21.875C294.906 21.5885 294.781 21.1641 294.781 20.6016C294.781 20.3359 294.805 20.0365 294.852 19.7031C294.898 19.3646 294.964 18.9948 295.047 18.5938L292.906 18.125C292.776 18.6406 292.674 19.1276 292.602 19.5859C292.529 20.0391 292.492 20.4661 292.492 20.8672C292.492 21.8724 292.708 22.6771 293.141 23.2812C293.578 23.8854 294.276 24.3229 295.234 24.5938C296.198 24.8646 297.469 25 299.047 25C300.625 25 301.896 24.8646 302.859 24.5938C303.823 24.3229 304.521 23.8854 304.953 23.2812C305.391 22.6771 305.609 21.8724 305.609 20.8672C305.609 20.4661 305.576 20.0391 305.508 19.5859C305.44 19.1276 305.339 18.6406 305.203 18.125ZM298.93 17.9453L300.414 19.4219L301.891 17.9453L300.414 16.4609L298.93 17.9453ZM296.195 17.9453L297.68 19.4219L299.156 17.9453L297.68 16.4609L296.195 17.9453ZM307.062 13.6484V21.1406C307.062 22.4167 307.422 23.3802 308.141 24.0312C308.865 24.6771 309.87 25 311.156 25V22.5938C310.495 22.5938 310.049 22.4818 309.82 22.2578C309.591 22.0339 309.477 21.6458 309.477 21.0938V13.6484H307.062ZM314.227 20.7578C314.227 20.4245 314.299 20.1406 314.445 19.9062C314.596 19.6719 314.799 19.4948 315.055 19.375C315.31 19.25 315.599 19.1875 315.922 19.1875C316.26 19.1875 316.576 19.2526 316.867 19.3828C317.159 19.5078 317.448 19.7005 317.734 19.9609L318.984 18.2188C318.495 17.724 318.003 17.362 317.508 17.1328C317.018 16.8984 316.464 16.7812 315.844 16.7812C315.099 16.7812 314.422 16.9557 313.812 17.3047C313.203 17.6484 312.719 18.125 312.359 18.7344C312 19.3385 311.82 20.0312 311.82 20.8125C311.82 21.1771 311.88 21.5026 312 21.7891C312.12 22.0755 312.276 22.3255 312.469 22.5391C312.26 22.5599 312.07 22.5755 311.898 22.5859C311.727 22.5911 311.549 22.5938 311.367 22.5938H311.156C311.036 22.5938 310.953 22.6901 310.906 22.8828C310.854 23.0703 310.828 23.375 310.828 23.7969C310.828 24.224 310.854 24.5312 310.906 24.7188C310.953 24.9062 311.036 25 311.156 25H311.469C312.078 25 312.711 24.9714 313.367 24.9141C314.029 24.8516 314.648 24.7682 315.227 24.6641L319.562 23.8438L319.117 21.4688L316.422 21.9844C316.286 22.0104 316.148 22.0339 316.008 22.0547C315.872 22.0703 315.758 22.0781 315.664 22.0781C315.383 22.0781 315.133 22.026 314.914 21.9219C314.701 21.8177 314.531 21.6667 314.406 21.4688C314.286 21.2708 314.227 21.0339 314.227 20.7578ZM320.891 14.3359C321.188 15.0443 321.451 15.7786 321.68 16.5391C321.914 17.2995 322.107 18.0625 322.258 18.8281C322.414 19.5938 322.521 20.3411 322.578 21.0703L324.906 20.7656C324.812 19.5417 324.615 18.3099 324.312 17.0703C324.01 15.8255 323.62 14.6302 323.141 13.4844L320.891 14.3359ZM327.18 13.6484V19.625C327.034 20.3542 326.732 20.9375 326.273 21.375C325.82 21.8073 325.148 22.1198 324.258 22.3125C323.372 22.5 322.208 22.5938 320.766 22.5938V25C322.01 25 323.083 24.9141 323.984 24.7422C324.885 24.5703 325.646 24.3047 326.266 23.9453C326.885 23.5807 327.396 23.112 327.797 22.5391L327.805 22.6953C327.977 23.4661 328.352 24.0443 328.93 24.4297C329.508 24.8099 330.286 25 331.266 25H331.273V22.5938H331.266C330.63 22.5938 330.193 22.487 329.953 22.2734C329.714 22.0599 329.594 21.6667 329.594 21.0938V13.6484H327.18ZM331.289 25H336.211C337.305 25 338.201 24.9036 338.898 24.7109C339.602 24.5182 340.148 24.2552 340.539 23.9219C340.935 23.5833 341.208 23.1979 341.359 22.7656C341.516 22.3281 341.594 21.8646 341.594 21.375C341.594 20.75 341.461 20.1823 341.195 19.6719C340.93 19.1615 340.552 18.7552 340.062 18.4531C339.578 18.1458 339.003 17.9922 338.336 17.9922C337.659 17.9922 337.003 18.1797 336.367 18.5547C335.732 18.9245 335.141 19.474 334.594 20.2031C334.667 19.8958 334.716 19.5781 334.742 19.25C334.773 18.9167 334.789 18.5885 334.789 18.2656V13.6484H332.383V22.3281C332.357 22.3698 332.328 22.4141 332.297 22.4609C332.266 22.5026 332.234 22.5469 332.203 22.5938H331.289C331.18 22.5938 331.099 22.6745 331.047 22.8359C330.99 22.9974 330.961 23.3177 330.961 23.7969C330.961 24.276 330.99 24.5964 331.047 24.7578C331.099 24.9193 331.18 25 331.289 25ZM335.031 22.5938C335.401 22.0573 335.755 21.625 336.094 21.2969C336.432 20.9688 336.753 20.7292 337.055 20.5781C337.357 20.4271 337.633 20.3516 337.883 20.3516C338.211 20.3516 338.471 20.4531 338.664 20.6562C338.857 20.8542 338.953 21.1146 338.953 21.4375C338.953 21.6667 338.901 21.8568 338.797 22.0078C338.698 22.1536 338.552 22.2708 338.359 22.3594C338.167 22.4427 337.935 22.5026 337.664 22.5391C337.393 22.5755 337.091 22.5938 336.758 22.5938H335.031ZM345.5 25V13.6484H343.094V25H345.5ZM362.219 22.5938H361.914C361.461 22.5938 361.109 22.5391 360.859 22.4297C360.609 22.3203 360.435 22.1432 360.336 21.8984C360.237 21.6484 360.188 21.3151 360.188 20.8984V13.6484H357.781V24.0625C357.781 24.9948 357.56 25.6901 357.117 26.1484C356.68 26.612 355.987 26.8438 355.039 26.8438C354.143 26.8438 353.49 26.6432 353.078 26.2422C352.672 25.8411 352.469 25.3021 352.469 24.625C352.469 24.2448 352.518 23.8229 352.617 23.3594C352.721 22.8958 352.857 22.4271 353.023 21.9531L350.906 21.2031C350.651 21.8542 350.456 22.5026 350.32 23.1484C350.185 23.7891 350.117 24.388 350.117 24.9453C350.117 25.7891 350.292 26.5339 350.641 27.1797C350.995 27.8307 351.526 28.3385 352.234 28.7031C352.943 29.0677 353.833 29.25 354.906 29.25C355.958 29.25 356.875 29.0547 357.656 28.6641C358.438 28.2786 359.044 27.737 359.477 27.0391C359.909 26.3464 360.125 25.5391 360.125 24.6172V24.2188C360.307 24.4844 360.557 24.6823 360.875 24.8125C361.193 24.9375 361.539 25 361.914 25H362.219V22.5938ZM363.391 27.6641L364.875 29.1406L366.352 27.6641L364.875 26.1797L363.391 27.6641ZM360.656 27.6641L362.141 29.1406L363.617 27.6641L362.141 26.1797L360.656 27.6641ZM367.125 19.3438H364.719V20.7578C364.719 21.2474 364.672 21.625 364.578 21.8906C364.484 22.1562 364.292 22.3411 364 22.4453C363.708 22.5443 363.268 22.5938 362.68 22.5938H362.219C362.109 22.5938 362.026 22.6745 361.969 22.8359C361.911 22.9974 361.883 23.3177 361.883 23.7969C361.883 24.276 361.911 24.5964 361.969 24.7578C362.026 24.9193 362.109 25 362.219 25H362.68C363.482 25 364.172 24.8724 364.75 24.6172C365.333 24.3568 365.721 24.0052 365.914 23.5625C366.102 24 366.484 24.349 367.062 24.6094C367.646 24.8698 368.331 25 369.117 25H369.133V22.5938H369.117C368.534 22.5938 368.099 22.5443 367.812 22.4453C367.531 22.3464 367.346 22.1641 367.258 21.8984C367.169 21.6328 367.125 21.2526 367.125 20.7578V19.3438ZM372.883 21.9844L373.008 21.6875C373.143 21.3438 373.279 21.0781 373.414 20.8906C373.549 20.6979 373.685 20.5651 373.82 20.4922C373.961 20.4193 374.107 20.3828 374.258 20.3828C374.424 20.3828 374.583 20.4453 374.734 20.5703C374.891 20.6901 375.018 20.8594 375.117 21.0781C375.216 21.2917 375.266 21.5391 375.266 21.8203C375.266 22.1172 375.174 22.3359 374.992 22.4766C374.815 22.612 374.625 22.6797 374.422 22.6797C374.182 22.6797 373.927 22.6224 373.656 22.5078C373.385 22.388 373.128 22.2135 372.883 21.9844ZM369.125 22.5938C369.016 22.5938 368.935 22.6745 368.883 22.8359C368.826 22.9974 368.797 23.3177 368.797 23.7969C368.797 24.276 368.826 24.5964 368.883 24.7578C368.935 24.9193 369.016 25 369.125 25C369.703 25 370.193 24.8958 370.594 24.6875C371 24.4792 371.357 24.1927 371.664 23.8281C371.956 24.2083 372.352 24.513 372.852 24.7422C373.357 24.9714 373.878 25.0859 374.414 25.0859C375.029 25.0859 375.565 24.9349 376.023 24.6328C376.487 24.3255 376.786 23.9036 376.922 23.3672C377.036 23.7526 377.219 24.0677 377.469 24.3125C377.719 24.5521 378.016 24.7266 378.359 24.8359C378.703 24.9453 379.068 25 379.453 25H379.461V22.5938H379.453C379.042 22.5938 378.701 22.4948 378.43 22.2969C378.164 22.099 377.938 21.8411 377.75 21.5234C377.568 21.2057 377.391 20.8646 377.219 20.5C377.031 20.0885 376.815 19.6953 376.57 19.3203C376.326 18.9401 376.016 18.6276 375.641 18.3828C375.271 18.138 374.797 18.0156 374.219 18.0156C373.677 18.0156 373.227 18.1406 372.867 18.3906C372.513 18.6354 372.211 18.9531 371.961 19.3438C371.711 19.7292 371.477 20.1354 371.258 20.5625C371.081 20.9115 370.898 21.2422 370.711 21.5547C370.523 21.862 370.302 22.112 370.047 22.3047C369.797 22.4974 369.49 22.5938 369.125 22.5938ZM386.75 12.5078C384.349 13.0547 381.969 14.0729 379.609 15.5625V17.5156C380.875 18.4427 381.805 19.2188 382.398 19.8438C382.992 20.4635 383.289 20.9818 383.289 21.3984C383.289 21.7786 383.06 22.0729 382.602 22.2812C382.143 22.4896 381.5 22.5938 380.672 22.5938H379.469C379.354 22.5938 379.271 22.6849 379.219 22.8672C379.167 23.0495 379.141 23.3568 379.141 23.7891C379.141 24.2161 379.167 24.526 379.219 24.7188C379.271 24.9062 379.354 25 379.469 25H380.719C381.734 25 382.599 24.8438 383.312 24.5312C384.031 24.2135 384.536 23.7552 384.828 23.1562C385.094 23.5521 385.411 23.888 385.781 24.1641C386.156 24.4401 386.568 24.6484 387.016 24.7891C387.469 24.9297 387.943 25 388.438 25V22.5938C388 22.5938 387.617 22.5286 387.289 22.3984C386.961 22.2682 386.664 22.0521 386.398 21.75C386.133 21.4479 385.872 21.0417 385.617 20.5312C385.388 20.0729 385.125 19.638 384.828 19.2266C384.536 18.8151 384.195 18.4062 383.805 18C383.414 17.5885 382.958 17.1641 382.438 16.7266V16.6484C383.229 16.2474 384.01 15.9036 384.781 15.6172C385.557 15.3307 386.378 15.0781 387.242 14.8594L386.75 12.5078ZM392.188 18.0234L389.922 18.6406C390.042 19.1562 390.138 19.6198 390.211 20.0312C390.289 20.4375 390.328 20.7917 390.328 21.0938C390.328 21.6094 390.201 21.9896 389.945 22.2344C389.695 22.474 389.292 22.5938 388.734 22.5938H388.438C388.328 22.5938 388.247 22.6745 388.195 22.8359C388.138 22.9974 388.109 23.3177 388.109 23.7969C388.109 24.276 388.138 24.5964 388.195 24.7578C388.247 24.9193 388.328 25 388.438 25H388.734C389.672 25 390.43 24.8516 391.008 24.5547C391.591 24.2578 392.016 23.8385 392.281 23.2969C392.552 22.75 392.688 22.112 392.688 21.3828C392.688 20.8984 392.641 20.375 392.547 19.8125C392.458 19.25 392.339 18.6536 392.188 18.0234ZM390.25 15.8594L391.734 17.3359L393.211 15.8594L391.734 14.375L390.25 15.8594ZM387.516 15.8594L389 17.3359L390.477 15.8594L389 14.375L387.516 15.8594Z" fill="#417F56"/>
<path d="M418 34.3334H410C402.76 34.3334 399.667 31.24 399.667 24V16C399.667 8.76002 402.76 5.66669 410 5.66669H418C425.24 5.66669 428.333 8.76002 428.333 16V24C428.333 31.24 425.24 34.3334 418 34.3334ZM410 7.66669C403.853 7.66669 401.667 9.85335 401.667 16V24C401.667 30.1467 403.853 32.3334 410 32.3334H418C424.147 32.3334 426.333 30.1467 426.333 24V16C426.333 9.85335 424.147 7.66669 418 7.66669H410Z" fill="#417F56"/>
<path d="M412.107 24.7733C411.84 24.7733 411.587 24.6667 411.4 24.48L407.627 20.7067C407.24 20.32 407.24 19.68 407.627 19.2933C408.013 18.9067 408.653 18.9067 409.04 19.2933L412.107 22.36L418.96 15.5067C419.347 15.12 419.987 15.12 420.373 15.5067C420.76 15.8933 420.76 16.5333 420.373 16.92L412.813 24.48C412.627 24.6667 412.373 24.7733 412.107 24.7733Z" fill="#417F56"/>
<line x1="637.5" y1="20.5" x2="438.5" y2="20.5" stroke="#417F56" stroke-linecap="round" stroke-dasharray="4 4"/>
<path d="M651.026 17.5752L649.844 18.1426L651.614 22.1553C651.359 22.5381 651.033 22.8252 650.637 23.0166C650.245 23.208 649.821 23.3037 649.365 23.3037C649.023 23.3037 648.675 23.2467 648.319 23.1328C647.964 23.0143 647.627 22.8298 647.308 22.5791L646.713 23.584C647.1 23.9167 647.526 24.165 647.991 24.3291C648.456 24.4886 648.919 24.5684 649.379 24.5684C649.958 24.5684 650.502 24.4453 651.013 24.1992C651.523 23.9531 651.92 23.584 652.202 23.0918C652.471 23.6022 652.826 23.9645 653.269 24.1787C653.711 24.3929 654.219 24.5 654.793 24.5H654.916V23.2422H654.807C654.328 23.2422 653.943 23.1465 653.651 22.9551C653.36 22.7637 653.1 22.4082 652.872 21.8887L651.026 17.5752ZM657.855 18.9561L656.673 19.2773C656.782 19.7422 656.871 20.1683 656.939 20.5557C657.012 20.9385 657.049 21.2826 657.049 21.5879C657.049 22.1211 656.912 22.5312 656.639 22.8184C656.365 23.1009 655.905 23.2422 655.258 23.2422H654.916C654.839 23.2422 654.784 23.2878 654.752 23.3789C654.72 23.4655 654.704 23.6296 654.704 23.8711C654.704 24.1081 654.72 24.2721 654.752 24.3633C654.784 24.4544 654.839 24.5 654.916 24.5H655.258C655.978 24.5 656.559 24.3838 657.001 24.1514C657.443 23.9189 657.764 23.5908 657.965 23.167C658.17 22.7432 658.272 22.2441 658.272 21.6699C658.272 21.278 658.234 20.8542 658.156 20.3984C658.079 19.9427 657.979 19.4619 657.855 18.9561ZM655.989 26.9404L657.015 27.959L658.033 26.9404L657.015 25.915L655.989 26.9404ZM653.604 26.9404L654.629 27.959L655.647 26.9404L654.629 25.915L653.604 26.9404ZM661.54 20.3779C661.759 21.0889 661.923 21.7201 662.032 22.2715C662.142 22.8184 662.196 23.2992 662.196 23.7139C662.196 24.2881 662.082 24.7894 661.854 25.2178C661.627 25.6462 661.26 26.029 660.754 26.3662C660.248 26.708 659.58 27.0339 658.751 27.3438L659.284 28.4854C660.246 28.1208 661.027 27.7152 661.629 27.2686C662.235 26.8219 662.677 26.307 662.955 25.7236C663.238 25.1449 663.372 24.4658 663.358 23.6865C663.541 23.9463 663.8 24.1468 664.138 24.2881C664.479 24.4294 664.869 24.5 665.307 24.5H665.313V23.2422H665.307C664.869 23.2422 664.516 23.1898 664.247 23.085C663.978 22.9756 663.759 22.7842 663.591 22.5107C663.422 22.2373 663.27 21.8522 663.133 21.3555L662.743 19.9814L661.54 20.3779ZM668.533 18.6484C667.863 18.6484 667.355 18.8672 667.009 19.3047C666.662 19.7422 666.421 20.3164 666.284 21.0273L666.236 21.2871L667.262 21.4785L667.303 21.2598C667.394 20.8451 667.537 20.5146 667.733 20.2686C667.934 20.0225 668.216 19.8994 668.581 19.8994C668.8 19.8994 669.023 19.945 669.251 20.0361C669.483 20.1227 669.739 20.2298 670.017 20.3574C670.313 20.4896 670.636 20.6263 670.987 20.7676C671.343 20.9089 671.742 21.0228 672.184 21.1094L670.249 22.3535C669.916 22.5632 669.581 22.734 669.244 22.8662C668.911 22.9938 668.565 23.0895 668.205 23.1533C667.845 23.2126 667.46 23.2422 667.05 23.2422H665.32C665.243 23.2422 665.188 23.2878 665.156 23.3789C665.124 23.4701 665.108 23.6341 665.108 23.8711C665.108 24.1035 665.124 24.2676 665.156 24.3633C665.188 24.4544 665.243 24.5 665.32 24.5H666.852C667.608 24.5 668.308 24.4066 668.95 24.2197C669.597 24.0329 670.222 23.7412 670.823 23.3447L673.646 21.458V20.3574C673.054 20.2435 672.514 20.0908 672.026 19.8994C671.539 19.7035 671.085 19.512 670.666 19.3252C670.26 19.1383 669.882 18.9788 669.531 18.8467C669.185 18.7145 668.852 18.6484 668.533 18.6484ZM668.663 15.75L669.688 16.7686L670.707 15.75L669.688 14.7246L668.663 15.75ZM681.966 17.5752L680.783 18.1426L682.554 22.1553C682.299 22.5381 681.973 22.8252 681.576 23.0166C681.184 23.208 680.76 23.3037 680.305 23.3037C679.963 23.3037 679.614 23.2467 679.259 23.1328C678.903 23.0143 678.566 22.8298 678.247 22.5791L677.652 23.584C678.04 23.9167 678.466 24.165 678.931 24.3291C679.396 24.4886 679.858 24.5684 680.318 24.5684C680.897 24.5684 681.442 24.4453 681.952 24.1992C682.463 23.9531 682.859 23.584 683.142 23.0918C683.41 23.6022 683.766 23.9645 684.208 24.1787C684.65 24.3929 685.158 24.5 685.732 24.5H685.855V23.2422H685.746C685.268 23.2422 684.882 23.1465 684.591 22.9551C684.299 22.7637 684.039 22.4082 683.812 21.8887L681.966 17.5752ZM689.362 21.1777V20.1592H688.104V21.1777C688.104 21.638 688.057 22.0208 687.961 22.3262C687.865 22.6315 687.681 22.8617 687.407 23.0166C687.134 23.167 686.728 23.2422 686.19 23.2422H685.855C685.778 23.2422 685.723 23.2878 685.691 23.3789C685.66 23.4655 685.644 23.6296 685.644 23.8711C685.644 24.1081 685.66 24.2721 685.691 24.3633C685.723 24.4544 685.778 24.5 685.855 24.5H686.19C686.587 24.5 686.961 24.443 687.312 24.3291C687.662 24.2152 687.963 24.0488 688.214 23.8301C688.465 23.6113 688.635 23.3447 688.727 23.0303C688.859 23.4997 689.144 23.862 689.581 24.1172C690.019 24.3724 690.527 24.5 691.105 24.5H691.598V23.2422H691.126C690.629 23.2422 690.253 23.167 689.998 23.0166C689.747 22.8662 689.579 22.6383 689.492 22.333C689.406 22.0231 689.362 21.638 689.362 21.1777ZM685.814 26.9404L686.84 27.959L687.858 26.9404L686.84 25.915L685.814 26.9404ZM696.342 23.2422C695.909 23.2331 695.594 23.0918 695.398 22.8184C695.202 22.5404 695.13 22.1416 695.18 21.6221L695.316 20.207L694.052 20.1045L693.942 21.2598C693.874 21.9707 693.683 22.4788 693.368 22.7842C693.054 23.0895 692.577 23.2422 691.939 23.2422H691.598C691.525 23.2422 691.472 23.29 691.44 23.3857C691.404 23.4814 691.386 23.6387 691.386 23.8574C691.386 24.0807 691.404 24.2448 691.44 24.3496C691.472 24.4499 691.525 24.5 691.598 24.5H691.939C692.532 24.5 693.051 24.3701 693.498 24.1104C693.949 23.846 694.252 23.4997 694.407 23.0713C694.507 23.5361 694.717 23.8916 695.036 24.1377C695.355 24.3792 695.779 24.5 696.308 24.5C697.301 24.5 697.932 24.0739 698.201 23.2217C698.315 23.6318 698.536 23.9486 698.864 24.1719C699.197 24.3906 699.623 24.5 700.143 24.5C700.872 24.5 701.419 24.2812 701.783 23.8438C702.148 23.4017 702.33 22.7432 702.33 21.8682C702.33 21.654 702.319 21.4147 702.296 21.1504C702.278 20.8861 702.25 20.6217 702.214 20.3574C702.177 20.0931 702.136 19.8538 702.091 19.6396L700.874 19.9336C700.915 20.1478 700.951 20.3779 700.983 20.624C701.015 20.8656 701.04 21.098 701.059 21.3213C701.077 21.5446 701.086 21.7314 701.086 21.8818C701.086 22.7887 700.71 23.2422 699.958 23.2422C699.539 23.2422 699.224 23.1214 699.015 22.8799C698.805 22.6383 698.721 22.2601 698.762 21.7451L698.851 20.5283L697.723 20.4395L697.613 21.7861C697.568 22.3011 697.44 22.6748 697.23 22.9072C697.025 23.1351 696.729 23.2467 696.342 23.2422Z" fill="#417F56"/>
<path d="M725.19 25.75H714.54C713.55 25.75 712.6 25.33 711.93 24.6C711.26 23.87 710.92 22.89 711 21.9L711.83 11.94C711.86 11.63 711.75 11.33 711.54 11.1C711.33 10.87 711.04 10.75 710.73 10.75H709C708.59 10.75 708.25 10.41 708.25 10C708.25 9.59 708.59 9.25 709 9.25H710.74C711.47 9.25 712.16 9.56 712.65 10.09C712.92 10.39 713.12 10.74 713.23 11.13H725.72C726.73 11.13 727.66 11.53 728.34 12.25C729.01 12.98 729.35 13.93 729.27 14.94L728.73 22.44C728.62 24.27 727.02 25.75 725.19 25.75ZM713.28 12.62L712.5 22.02C712.45 22.6 712.64 23.15 713.03 23.58C713.42 24.01 713.96 24.24 714.54 24.24H725.19C726.23 24.24 727.17 23.36 727.25 22.32L727.79 14.82C727.83 14.23 727.64 13.67 727.25 13.26C726.86 12.84 726.32 12.61 725.73 12.61H713.28V12.62Z" fill="#417F56"/>
<path d="M723.25 30.75C722.15 30.75 721.25 29.85 721.25 28.75C721.25 27.65 722.15 26.75 723.25 26.75C724.35 26.75 725.25 27.65 725.25 28.75C725.25 29.85 724.35 30.75 723.25 30.75ZM723.25 28.25C722.97 28.25 722.75 28.47 722.75 28.75C722.75 29.03 722.97 29.25 723.25 29.25C723.53 29.25 723.75 29.03 723.75 28.75C723.75 28.47 723.53 28.25 723.25 28.25Z" fill="#417F56"/>
<path d="M715.25 30.75C714.15 30.75 713.25 29.85 713.25 28.75C713.25 27.65 714.15 26.75 715.25 26.75C716.35 26.75 717.25 27.65 717.25 28.75C717.25 29.85 716.35 30.75 715.25 30.75ZM715.25 28.25C714.97 28.25 714.75 28.47 714.75 28.75C714.75 29.03 714.97 29.25 715.25 29.25C715.53 29.25 715.75 29.03 715.75 28.75C715.75 28.47 715.53 28.25 715.25 28.25Z" fill="#417F56"/>
<path d="M728 16.75H716C715.59 16.75 715.25 16.41 715.25 16C715.25 15.59 715.59 15.25 716 15.25H728C728.41 15.25 728.75 15.59 728.75 16C728.75 16.41 728.41 16.75 728 16.75Z" fill="#417F56"/>
</svg>
