<svg width="12" height="12" viewBox="0 0 12 12" fill="none" xmlns="http://www.w3.org/2000/svg">
<g id="vuesax/outline/profile-2user">
<g id="vuesax/outline/profile-2user_2">
<g id="profile-2user">
<path id="Vector" d="M4.58027 5.81C4.56527 5.81 4.55527 5.81 4.54027 5.81C4.51527 5.805 4.48027 5.805 4.45027 5.81C3.00027 5.765 1.90527 4.625 1.90527 3.22C1.90527 1.79 3.07027 0.625 4.50027 0.625C5.93027 0.625 7.09527 1.79 7.09527 3.22C7.09027 4.625 5.99027 5.765 4.59527 5.81C4.59027 5.81 4.58527 5.81 4.58027 5.81ZM4.50027 1.375C3.48527 1.375 2.65527 2.205 2.65527 3.22C2.65527 4.22 3.43527 5.025 4.43027 5.06C4.46027 5.055 4.52527 5.055 4.59027 5.06C5.57027 5.015 6.34027 4.21 6.34527 3.22C6.34527 2.205 5.51527 1.375 4.50027 1.375Z" fill="#353535"/>
<path id="Vector_2" d="M8.27018 5.875C8.25518 5.875 8.24018 5.875 8.22518 5.87C8.02018 5.89 7.81018 5.745 7.79018 5.54C7.77018 5.335 7.89518 5.15 8.10018 5.125C8.16018 5.12 8.22518 5.12 8.28018 5.12C9.01018 5.08 9.58018 4.48 9.58018 3.745C9.58018 2.985 8.96518 2.37 8.20518 2.37C8.00018 2.375 7.83018 2.205 7.83018 2C7.83018 1.795 8.00018 1.625 8.20518 1.625C9.37518 1.625 10.3302 2.58 10.3302 3.75C10.3302 4.9 9.43018 5.83 8.28518 5.875C8.28018 5.875 8.27518 5.875 8.27018 5.875Z" fill="#353535"/>
<path id="Vector_3" d="M4.5848 11.275C3.6048 11.275 2.6198 11.025 1.8748 10.525C1.1798 10.065 0.799805 9.435 0.799805 8.75C0.799805 8.065 1.1798 7.43 1.8748 6.965C3.3748 5.97 5.8048 5.97 7.2948 6.965C7.9848 7.425 8.3698 8.055 8.3698 8.74C8.3698 9.425 7.9898 10.06 7.2948 10.525C6.5448 11.025 5.5648 11.275 4.5848 11.275ZM2.2898 7.595C1.8098 7.915 1.5498 8.325 1.5498 8.755C1.5498 9.18 1.8148 9.59 2.2898 9.905C3.5348 10.74 5.6348 10.74 6.8798 9.905C7.3598 9.585 7.6198 9.175 7.6198 8.745C7.6198 8.32 7.3548 7.91 6.8798 7.595C5.6348 6.765 3.5348 6.765 2.2898 7.595Z" fill="#353535"/>
<path id="Vector_4" d="M9.17008 10.375C8.99508 10.375 8.84008 10.255 8.80508 10.075C8.76508 9.87001 8.89508 9.67501 9.09508 9.63001C9.41008 9.56501 9.70008 9.44001 9.92508 9.26501C10.2101 9.05001 10.3651 8.78001 10.3651 8.49501C10.3651 8.21001 10.2101 7.94001 9.93008 7.73001C9.71008 7.56001 9.43508 7.44001 9.11008 7.36501C8.91008 7.32001 8.78008 7.12001 8.82508 6.91501C8.87008 6.71501 9.07008 6.58501 9.27508 6.63001C9.70508 6.72501 10.0801 6.89501 10.3851 7.13001C10.8501 7.48001 11.1151 7.97501 11.1151 8.49501C11.1151 9.01501 10.8451 9.51001 10.3801 9.86501C10.0701 10.105 9.68008 10.28 9.25008 10.365C9.22008 10.375 9.19508 10.375 9.17008 10.375Z" fill="#353535"/>
</g>
</g>
</g>
</svg>
