<svg width="25" height="25" viewBox="0 0 25 25" fill="none" xmlns="http://www.w3.org/2000/svg">
<g id="vuesax/outline/shopping-bag">
<g id="vuesax/outline/shopping-bag_2">
<g id="shopping-bag">
<path id="Vector" d="M16.9899 23.25H7.99993C6.27993 23.25 4.98994 22.79 4.18994 21.88C3.38994 20.97 3.07993 19.65 3.28993 17.94L4.18994 10.44C4.44994 8.23 5.00994 6.25 8.90994 6.25H16.1099C19.9999 6.25 20.5599 8.23 20.8299 10.44L21.7299 17.94C21.9299 19.65 21.6299 20.98 20.8299 21.88C19.9999 22.79 18.7199 23.25 16.9899 23.25ZM8.89993 7.75C6.01993 7.75 5.87993 8.88999 5.66993 10.61L4.76994 18.11C4.61994 19.38 4.79993 20.31 5.30993 20.88C5.81993 21.45 6.71993 21.74 7.99993 21.74H16.9899C18.2699 21.74 19.1699 21.45 19.6799 20.88C20.1899 20.31 20.3699 19.38 20.2199 18.11L19.3199 10.61C19.1099 8.87999 18.9799 7.75 16.0899 7.75H8.89993Z" fill="#717171"/>
<path id="Vector_2" d="M16.5 9.25C16.09 9.25 15.75 8.91 15.75 8.5V5C15.75 3.92 15.08 3.25 14 3.25H11C9.92 3.25 9.25 3.92 9.25 5V8.5C9.25 8.91 8.91 9.25 8.5 9.25C8.09 9.25 7.75 8.91 7.75 8.5V5C7.75 3.09 9.09 1.75 11 1.75H14C15.91 1.75 17.25 3.09 17.25 5V8.5C17.25 8.91 16.91 9.25 16.5 9.25Z" fill="#717171"/>
<path id="Vector_3" d="M20.91 18.28H8.5C8.09 18.28 7.75 17.94 7.75 17.53C7.75 17.12 8.09 16.78 8.5 16.78H20.91C21.32 16.78 21.66 17.12 21.66 17.53C21.66 17.94 21.32 18.28 20.91 18.28Z" fill="#717171"/>
</g>
</g>
</g>
</svg>
