<svg width="140" height="140" viewBox="0 0 140 140" fill="none" xmlns="http://www.w3.org/2000/svg">
<path d="M100 69.1667H40.0003C36.8003 69.1667 34.167 66.5334 34.167 63.3334V52.2667C34.167 50 35.7336 47.7 37.8336 46.8667L67.8336 34.8668C69.1002 34.3668 70.9004 34.3668 72.1671 34.8668L102.167 46.8667C104.267 47.7 105.834 50.0333 105.834 52.2667V63.3334C105.834 66.5334 103.2 69.1667 100 69.1667ZM70.0003 39.4668C69.867 39.4668 69.7337 39.4666 69.6671 39.4999L39.7002 51.5001C39.5002 51.6001 39.167 52.0333 39.167 52.2667V63.3334C39.167 63.8 39.5337 64.1667 40.0003 64.1667H100C100.467 64.1667 100.834 63.8 100.834 63.3334V52.2667C100.834 52.0333 100.534 51.6001 100.3 51.5001L70.3004 39.4999C70.2337 39.4666 70.1337 39.4668 70.0003 39.4668Z" fill="#417F56"/>
<path d="M103.334 105.833H36.667C35.3003 105.833 34.167 104.7 34.167 103.333V93.3333C34.167 90.1333 36.8003 87.5 40.0003 87.5H100C103.2 87.5 105.834 90.1333 105.834 93.3333V103.333C105.834 104.7 104.7 105.833 103.334 105.833ZM39.167 100.833H100.834V93.3333C100.834 92.8667 100.467 92.5 100 92.5H40.0003C39.5337 92.5 39.167 92.8667 39.167 93.3333V100.833Z" fill="#417F56"/>
<path d="M43.333 92.5C41.9663 92.5 40.833 91.3667 40.833 90V66.6667C40.833 65.3 41.9663 64.1667 43.333 64.1667C44.6997 64.1667 45.833 65.3 45.833 66.6667V90C45.833 91.3667 44.6997 92.5 43.333 92.5Z" fill="#417F56"/>
<path d="M56.667 92.5C55.3003 92.5 54.167 91.3667 54.167 90V66.6667C54.167 65.3 55.3003 64.1667 56.667 64.1667C58.0337 64.1667 59.167 65.3 59.167 66.6667V90C59.167 91.3667 58.0337 92.5 56.667 92.5Z" fill="#417F56"/>
<path d="M70 92.5C68.6333 92.5 67.5 91.3667 67.5 90V66.6667C67.5 65.3 68.6333 64.1667 70 64.1667C71.3667 64.1667 72.5 65.3 72.5 66.6667V90C72.5 91.3667 71.3667 92.5 70 92.5Z" fill="#417F56"/>
<path d="M83.333 92.5C81.9663 92.5 80.833 91.3667 80.833 90V66.6667C80.833 65.3 81.9663 64.1667 83.333 64.1667C84.6997 64.1667 85.833 65.3 85.833 66.6667V90C85.833 91.3667 84.6997 92.5 83.333 92.5Z" fill="#417F56"/>
<path d="M96.667 92.5C95.3003 92.5 94.167 91.3667 94.167 90V66.6667C94.167 65.3 95.3003 64.1667 96.667 64.1667C98.0337 64.1667 99.167 65.3 99.167 66.6667V90C99.167 91.3667 98.0337 92.5 96.667 92.5Z" fill="#417F56"/>
<path d="M106.666 105.833H33.333C31.9663 105.833 30.833 104.7 30.833 103.333C30.833 101.967 31.9663 100.833 33.333 100.833H106.666C108.033 100.833 109.166 101.967 109.166 103.333C109.166 104.7 108.033 105.833 106.666 105.833Z" fill="#417F56"/>
<path d="M70 60.8333C65.8667 60.8333 62.5 57.4666 62.5 53.3333C62.5 49.2 65.8667 45.8333 70 45.8333C74.1333 45.8333 77.5 49.2 77.5 53.3333C77.5 57.4666 74.1333 60.8333 70 60.8333ZM70 50.8333C68.6333 50.8333 67.5 51.9666 67.5 53.3333C67.5 54.7 68.6333 55.8333 70 55.8333C71.3667 55.8333 72.5 54.7 72.5 53.3333C72.5 51.9666 71.3667 50.8333 70 50.8333Z" fill="#417F56"/>
<rect x="2" y="2" width="136" height="136" rx="68" stroke="#417F56" stroke-width="4"/>
</svg>
