<svg width="16" height="16" viewBox="0 0 16 16" fill="none" xmlns="http://www.w3.org/2000/svg">
<g id="Footer icons">
<path id="Vector" d="M14.2002 1.91549C14.0443 1.92233 13.8926 1.96571 13.7558 2.02049C13.6204 2.07491 12.8408 2.40766 11.6896 2.89987C10.5383 3.39208 9.04179 4.03304 7.55832 4.66862C4.59136 5.93977 1.67582 7.19049 1.67582 7.19049L1.69707 7.18237C1.69707 7.18237 1.5211 7.24119 1.34269 7.36549C1.25349 7.42765 1.15752 7.50788 1.07894 7.62487C1.00036 7.74185 0.942917 7.90764 0.964566 8.08299C1.04061 8.69891 1.67894 8.87362 1.67894 8.87362L1.68144 8.87487L4.53019 9.84987C4.60282 10.0922 5.39423 12.7336 5.56832 13.293C5.66446 13.6023 5.75445 13.7807 5.84832 13.9024C5.89529 13.9633 5.94451 14.0104 5.99894 14.0449C6.02057 14.0586 6.04331 14.0688 6.06582 14.078H6.06707C6.06983 14.0792 6.07243 14.0793 6.07519 14.0805L6.06769 14.0786C6.07292 14.0807 6.07808 14.0843 6.08332 14.0861C6.09347 14.0897 6.0997 14.0896 6.11269 14.0924C6.43895 14.2063 6.70894 13.9949 6.70894 13.9949L6.72019 13.9861L8.47019 12.363L11.3102 14.5774L11.3458 14.5936C11.8429 14.8143 12.2925 14.6912 12.5414 14.4886C12.7904 14.286 12.8883 14.0249 12.8883 14.0249L12.8989 13.9974L14.9858 3.12049C15.0392 2.87715 15.0468 2.66681 14.9964 2.47674C14.9461 2.28667 14.8237 2.12145 14.6702 2.02987C14.5167 1.93829 14.356 1.90865 14.2002 1.91549ZM14.2171 2.56612C14.2804 2.56319 14.3273 2.57042 14.3421 2.57924C14.3569 2.58806 14.3635 2.5869 14.3777 2.64049C14.3919 2.69408 14.3996 2.80696 14.3608 2.98362L14.3596 2.98737L12.2846 13.8011C12.2797 13.812 12.2364 13.912 12.1377 13.9924C12.037 14.0743 11.925 14.1383 11.6277 14.0136L8.52207 11.5917L8.43457 11.523L8.43269 11.5249L7.50394 10.828L12.7233 4.68737C12.7634 4.64031 12.789 4.58263 12.7971 4.52132C12.8051 4.46001 12.7952 4.39769 12.7685 4.34189C12.7419 4.2861 12.6997 4.23921 12.6469 4.20691C12.5942 4.1746 12.5333 4.15827 12.4714 4.15987C12.411 4.16144 12.3523 4.18007 12.3021 4.21362L4.74957 9.24862L1.89644 8.27174C1.89644 8.27174 1.61313 8.11408 1.59957 8.00424C1.59881 7.99816 1.59547 8.00367 1.61019 7.98174C1.62491 7.95983 1.66192 7.92282 1.70832 7.89049C1.80111 7.82584 1.90707 7.78674 1.90707 7.78674L1.91769 7.78299L1.92832 7.77862C1.92832 7.77862 4.84401 6.52783 7.81082 5.25674C9.29422 4.6212 10.7905 3.98071 11.9414 3.48862C13.0921 2.99665 13.9235 2.64254 13.9939 2.61424C14.0741 2.58215 14.1538 2.56905 14.2171 2.56612ZM10.7558 6.01362L6.79769 10.6705L6.79582 10.6724C6.78964 10.6798 6.7838 10.6875 6.77832 10.6955C6.77204 10.7042 6.7662 10.7131 6.76082 10.7224C6.73858 10.7601 6.72433 10.802 6.71894 10.8455C6.71894 10.8463 6.71894 10.8472 6.71894 10.848L6.20332 13.1667C6.19474 13.1417 6.18874 13.1325 6.17957 13.103V13.1024C6.01579 12.5761 5.26912 10.085 5.16582 9.74049L10.7558 6.01362ZM7.24457 11.4336L7.95582 11.9674L6.91082 12.9361L7.24457 11.4336Z" fill="#EDEDED"/>
</g>
</svg>
