<svg width="25" height="24" viewBox="0 0 25 24" fill="none" xmlns="http://www.w3.org/2000/svg">
<g id="vuesax/outline/tick-circle">
<g id="vuesax/outline/tick-circle_2">
<g id="tick-circle">
<path id="Vector" d="M12.5 22.75C6.57 22.75 1.75 17.93 1.75 12C1.75 6.07 6.57 1.25 12.5 1.25C18.43 1.25 23.25 6.07 23.25 12C23.25 17.93 18.43 22.75 12.5 22.75ZM12.5 2.75C7.4 2.75 3.25 6.9 3.25 12C3.25 17.1 7.4 21.25 12.5 21.25C17.6 21.25 21.75 17.1 21.75 12C21.75 6.9 17.6 2.75 12.5 2.75Z" fill="white"/>
<path id="Vector_2" d="M11.08 15.5801C10.88 15.5801 10.69 15.5001 10.55 15.3601L7.72 12.5301C7.43 12.2401 7.43 11.7601 7.72 11.4701C8.01 11.1801 8.49 11.1801 8.78 11.4701L11.08 13.7701L16.22 8.6301C16.51 8.3401 16.99 8.3401 17.28 8.6301C17.57 8.9201 17.57 9.4001 17.28 9.6901L11.61 15.3601C11.47 15.5001 11.28 15.5801 11.08 15.5801Z" fill="white"/>
</g>
</g>
</g>
</svg>
