<svg width="24" height="25" viewBox="0 0 24 25" fill="none" xmlns="http://www.w3.org/2000/svg">
<path d="M13 15.25H2C1.59 15.25 1.25 14.91 1.25 14.5V6.5C1.25 3.88 3.38 1.75 6 1.75H15C15.41 1.75 15.75 2.09 15.75 2.5V12.5C15.75 14.02 14.52 15.25 13 15.25ZM2.75 13.75H13C13.69 13.75 14.25 13.19 14.25 12.5V3.25H6C4.21 3.25 2.75 4.71 2.75 6.5V13.75Z" fill="#353535"/>
<path d="M19 21.25H18C17.59 21.25 17.25 20.91 17.25 20.5C17.25 19.81 16.69 19.25 16 19.25C15.31 19.25 14.75 19.81 14.75 20.5C14.75 20.91 14.41 21.25 14 21.25H10C9.59 21.25 9.25 20.91 9.25 20.5C9.25 19.81 8.69 19.25 8 19.25C7.31 19.25 6.75 19.81 6.75 20.5C6.75 20.91 6.41 21.25 6 21.25H5C2.93 21.25 1.25 19.57 1.25 17.5V14.5C1.25 14.09 1.59 13.75 2 13.75H13C13.69 13.75 14.25 13.19 14.25 12.5V5.5C14.25 5.09 14.59 4.75 15 4.75H16.84C17.83 4.75 18.74 5.28001 19.23 6.14001L20.94 9.13C21.07 9.36 21.07 9.65 20.94 9.88C20.81 10.11 20.56 10.25 20.29 10.25H19C18.86 10.25 18.75 10.36 18.75 10.5V13.5C18.75 13.64 18.86 13.75 19 13.75H22C22.41 13.75 22.75 14.09 22.75 14.5V17.5C22.75 19.57 21.07 21.25 19 21.25ZM18.65 19.75H19C20.24 19.75 21.25 18.74 21.25 17.5V15.25H19C18.04 15.25 17.25 14.46 17.25 13.5V10.5C17.25 9.54 18.03 8.75 19 8.75L17.93 6.88C17.71 6.49 17.29 6.25 16.84 6.25H15.75V12.5C15.75 14.02 14.52 15.25 13 15.25H2.75V17.5C2.75 18.74 3.76 19.75 5 19.75H5.35001C5.68001 18.6 6.74 17.75 8 17.75C9.26 17.75 10.32 18.6 10.65 19.75H13.36C13.69 18.6 14.75 17.75 16.01 17.75C17.27 17.75 18.32 18.6 18.65 19.75Z" fill="#353535"/>
<path d="M8 23.25C6.48 23.25 5.25 22.02 5.25 20.5C5.25 18.98 6.48 17.75 8 17.75C9.52 17.75 10.75 18.98 10.75 20.5C10.75 22.02 9.52 23.25 8 23.25ZM8 19.25C7.31 19.25 6.75 19.81 6.75 20.5C6.75 21.19 7.31 21.75 8 21.75C8.69 21.75 9.25 21.19 9.25 20.5C9.25 19.81 8.69 19.25 8 19.25Z" fill="#353535"/>
<path d="M16 23.25C14.48 23.25 13.25 22.02 13.25 20.5C13.25 18.98 14.48 17.75 16 17.75C17.52 17.75 18.75 18.98 18.75 20.5C18.75 22.02 17.52 23.25 16 23.25ZM16 19.25C15.31 19.25 14.75 19.81 14.75 20.5C14.75 21.19 15.31 21.75 16 21.75C16.69 21.75 17.25 21.19 17.25 20.5C17.25 19.81 16.69 19.25 16 19.25Z" fill="#353535"/>
<path d="M22 15.25H19C18.04 15.25 17.25 14.46 17.25 13.5V10.5C17.25 9.54 18.04 8.75 19 8.75H20.29C20.56 8.75 20.81 8.89 20.94 9.13L22.65 12.13C22.71 12.24 22.75 12.37 22.75 12.5V14.5C22.75 14.91 22.41 15.25 22 15.25ZM19 10.25C18.86 10.25 18.75 10.36 18.75 10.5V13.5C18.75 13.64 18.86 13.75 19 13.75H21.25V12.7L19.85 10.25H19Z" fill="#353535"/>
</svg>
