<svg width="24" height="25" viewBox="0 0 24 25" fill="none" xmlns="http://www.w3.org/2000/svg">
<g id="vuesax/outline/truck-fast">
<g id="vuesax/outline/truck-fast_2">
<g id="truck-fast">
<path id="Vector" d="M12.9998 15.25H11.9998C11.5898 15.25 11.2498 14.91 11.2498 14.5C11.2498 14.09 11.5898 13.75 11.9998 13.75H12.9998C13.6898 13.75 14.2498 13.19 14.2498 12.5V3.25H5.99978C4.81978 3.25 3.73975 3.88998 3.15975 4.91998C2.95975 5.27998 2.49979 5.41002 2.13979 5.21002C1.77979 5.01002 1.64975 4.55 1.84975 4.19C2.68975 2.69 4.27978 1.75 5.99978 1.75H14.9998C15.4098 1.75 15.7498 2.09 15.7498 2.5V12.5C15.7498 14.02 14.5198 15.25 12.9998 15.25Z" fill="#717171"/>
<path id="Vector_2" d="M19 21.25H18C17.59 21.25 17.25 20.91 17.25 20.5C17.25 19.81 16.69 19.25 16 19.25C15.31 19.25 14.75 19.81 14.75 20.5C14.75 20.91 14.41 21.25 14 21.25H10C9.59 21.25 9.25 20.91 9.25 20.5C9.25 19.81 8.69 19.25 8 19.25C7.31 19.25 6.75 19.81 6.75 20.5C6.75 20.91 6.41 21.25 6 21.25H5C2.93 21.25 1.25 19.57 1.25 17.5C1.25 17.09 1.59 16.75 2 16.75C2.41 16.75 2.75 17.09 2.75 17.5C2.75 18.74 3.76 19.75 5 19.75H5.34998C5.67998 18.6 6.74 17.75 8 17.75C9.26 17.75 10.32 18.6 10.65 19.75H13.36C13.69 18.6 14.75 17.75 16.01 17.75C17.27 17.75 18.33 18.6 18.66 19.75H19C20.24 19.75 21.25 18.74 21.25 17.5V15.25H19C18.04 15.25 17.25 14.46 17.25 13.5V10.5C17.25 9.54 18.03 8.75 19 8.75L17.93 6.88C17.71 6.49 17.29 6.25 16.84 6.25H15.75V12.5C15.75 14.02 14.52 15.25 13 15.25H12C11.59 15.25 11.25 14.91 11.25 14.5C11.25 14.09 11.59 13.75 12 13.75H13C13.69 13.75 14.25 13.19 14.25 12.5V5.5C14.25 5.09 14.59 4.75 15 4.75H16.84C17.83 4.75 18.74 5.28001 19.23 6.14001L20.94 9.13C21.07 9.36 21.07 9.65 20.94 9.88C20.81 10.11 20.56 10.25 20.29 10.25H19C18.86 10.25 18.75 10.36 18.75 10.5V13.5C18.75 13.64 18.86 13.75 19 13.75H22C22.41 13.75 22.75 14.09 22.75 14.5V17.5C22.75 19.57 21.07 21.25 19 21.25Z" fill="#717171"/>
<path id="Vector_3" d="M8 23.25C6.48 23.25 5.25 22.02 5.25 20.5C5.25 18.98 6.48 17.75 8 17.75C9.52 17.75 10.75 18.98 10.75 20.5C10.75 22.02 9.52 23.25 8 23.25ZM8 19.25C7.31 19.25 6.75 19.81 6.75 20.5C6.75 21.19 7.31 21.75 8 21.75C8.69 21.75 9.25 21.19 9.25 20.5C9.25 19.81 8.69 19.25 8 19.25Z" fill="#717171"/>
<path id="Vector_4" d="M16 23.25C14.48 23.25 13.25 22.02 13.25 20.5C13.25 18.98 14.48 17.75 16 17.75C17.52 17.75 18.75 18.98 18.75 20.5C18.75 22.02 17.52 23.25 16 23.25ZM16 19.25C15.31 19.25 14.75 19.81 14.75 20.5C14.75 21.19 15.31 21.75 16 21.75C16.69 21.75 17.25 21.19 17.25 20.5C17.25 19.81 16.69 19.25 16 19.25Z" fill="#717171"/>
<path id="Vector_5" d="M22 15.25H19C18.04 15.25 17.25 14.46 17.25 13.5V10.5C17.25 9.54 18.04 8.75 19 8.75H20.29C20.56 8.75 20.81 8.89 20.94 9.13L22.65 12.13C22.71 12.24 22.75 12.37 22.75 12.5V14.5C22.75 14.91 22.41 15.25 22 15.25ZM19 10.25C18.86 10.25 18.75 10.36 18.75 10.5V13.5C18.75 13.64 18.86 13.75 19 13.75H21.25V12.7L19.85 10.25H19Z" fill="#717171"/>
<path id="Vector_6" d="M8 9.25H2C1.59 9.25 1.25 8.91 1.25 8.5C1.25 8.09 1.59 7.75 2 7.75H8C8.41 7.75 8.75 8.09 8.75 8.5C8.75 8.91 8.41 9.25 8 9.25Z" fill="#717171"/>
<path id="Vector_7" d="M6 12.25H2C1.59 12.25 1.25 11.91 1.25 11.5C1.25 11.09 1.59 10.75 2 10.75H6C6.41 10.75 6.75 11.09 6.75 11.5C6.75 11.91 6.41 12.25 6 12.25Z" fill="#717171"/>
<path id="Vector_8" d="M4 15.25H2C1.59 15.25 1.25 14.91 1.25 14.5C1.25 14.09 1.59 13.75 2 13.75H4C4.41 13.75 4.75 14.09 4.75 14.5C4.75 14.91 4.41 15.25 4 15.25Z" fill="#717171"/>
</g>
</g>
</g>
</svg>
