<svg width="16" height="16" viewBox="0 0 16 16" fill="none" xmlns="http://www.w3.org/2000/svg">
<g id="Footer icons" clip-path="url(#clip0_2884_34362)">
<path id="Vector" d="M10.9496 1.75C9.0359 1.75 7.47965 3.30625 7.47965 5.22C7.47965 5.335 7.5084 5.4475 7.51965 5.56C5.1534 5.33375 3.0609 4.19375 1.63965 2.45C1.5734 2.36625 1.4709 2.32125 1.3634 2.32875C1.25715 2.33625 1.16215 2.3975 1.10965 2.49C0.810899 3.00375 0.639649 3.595 0.639649 4.23C0.639649 4.99875 0.914649 5.7025 1.33965 6.28C1.25715 6.24375 1.16715 6.22375 1.08965 6.18C0.990899 6.1275 0.872149 6.13 0.775899 6.1875C0.679649 6.245 0.620899 6.34875 0.619649 6.46V6.5C0.619649 7.67875 1.22965 8.7025 2.12965 9.33C2.11965 9.32875 2.10965 9.3325 2.09965 9.33C1.98965 9.31125 1.8784 9.35 1.80465 9.43375C1.7309 9.5175 1.70715 9.63375 1.73965 9.74C2.09715 10.8512 3.00965 11.7 4.13965 12.01C3.23965 12.545 2.1959 12.86 1.06965 12.86C0.825899 12.86 0.592149 12.8475 0.359649 12.82C0.209649 12.8 0.0658991 12.8875 0.0158992 13.03C-0.0353508 13.1725 0.0208992 13.3312 0.149649 13.41C1.5934 14.3362 3.30715 14.88 5.14965 14.88C8.1359 14.88 10.4784 13.6325 12.0496 11.85C13.6209 10.0675 14.4396 7.7525 14.4396 5.59C14.4396 5.49875 14.4321 5.41 14.4296 5.32C15.0159 4.87125 15.5396 4.345 15.9496 3.73C16.0309 3.61125 16.0222 3.4525 15.9284 3.3425C15.8359 3.2325 15.6796 3.19875 15.5496 3.26C15.3846 3.33375 15.1921 3.34125 15.0196 3.4C15.2471 3.09625 15.4421 2.76875 15.5596 2.4C15.5996 2.27375 15.5559 2.135 15.4521 2.0525C15.3484 1.97125 15.2034 1.96125 15.0896 2.03C14.5434 2.35375 13.9384 2.58125 13.2996 2.72C12.6796 2.14 11.8634 1.75 10.9496 1.75ZM10.9496 2.39C11.7659 2.39 12.5034 2.73875 13.0196 3.29C13.0971 3.37 13.2109 3.40375 13.3196 3.38C13.7371 3.2975 14.1334 3.17625 14.5196 3.02C14.2971 3.32 14.0221 3.57625 13.6996 3.77C13.5534 3.84125 13.4846 4.01 13.5384 4.16375C13.5909 4.31625 13.7509 4.405 13.9096 4.37C14.2296 4.33125 14.5146 4.20125 14.8196 4.12C14.5459 4.41625 14.2459 4.68375 13.9196 4.92C13.8309 4.985 13.7821 5.09 13.7896 5.2C13.7946 5.33 13.7996 5.45875 13.7996 5.59C13.7996 7.59 13.0321 9.76125 11.5696 11.42C10.1071 13.0787 7.95965 14.24 5.14965 14.24C3.8734 14.24 2.6684 13.9575 1.57965 13.46C2.92965 13.3562 4.17465 12.8787 5.17965 12.09C5.28465 12.0062 5.3259 11.8663 5.2834 11.7387C5.2409 11.6112 5.1234 11.5238 4.98965 11.52C3.93465 11.5012 3.0509 10.8875 2.57965 10.02C2.59715 10.02 2.61215 10.02 2.62965 10.02C2.9459 10.02 3.2584 9.98 3.54965 9.9C3.68965 9.85875 3.7859 9.72875 3.7809 9.5825C3.7759 9.43625 3.67215 9.31125 3.52965 9.28C2.3909 9.05 1.53715 8.1225 1.33965 6.97C1.66215 7.08125 1.99215 7.16875 2.34965 7.18C2.4959 7.18875 2.6284 7.0975 2.6734 6.95875C2.7184 6.82 2.6634 6.6675 2.53965 6.59C1.77965 6.08125 1.27965 5.215 1.27965 4.23C1.27965 3.865 1.37465 3.53 1.49965 3.21C3.09965 4.96625 5.33965 6.1325 7.86965 6.26C7.96965 6.265 8.06715 6.22375 8.13215 6.1475C8.19715 6.07 8.22215 5.9675 8.19965 5.87C8.1509 5.6625 8.11965 5.4425 8.11965 5.22C8.11965 3.6525 9.38215 2.39 10.9496 2.39Z" fill="white"/>
</g>
<defs>
<clipPath id="clip0_2884_34362">
<rect width="16" height="16" fill="white"/>
</clipPath>
</defs>
</svg>
