<svg width="16" height="16" viewBox="0 0 16 16" fill="none" xmlns="http://www.w3.org/2000/svg">
<g id="vuesax/outline/wallet-2">
<g id="vuesax/outline/wallet-2_2">
<g id="wallet-2">
<path id="Vector" d="M8.66602 6.5H4.66602C4.39268 6.5 4.16602 6.27333 4.16602 6C4.16602 5.72667 4.39268 5.5 4.66602 5.5H8.66602C8.93935 5.5 9.16602 5.72667 9.16602 6C9.16602 6.27333 8.93935 6.5 8.66602 6.5Z" fill="#353535"/>
<path id="Vector_2" d="M12.6926 9.86662C11.6859 9.86662 10.8326 9.11995 10.7526 8.15995C10.6993 7.60662 10.8993 7.06663 11.2993 6.6733C11.6326 6.32663 12.1059 6.1333 12.6059 6.1333H13.9993C14.6593 6.1533 15.166 6.67327 15.166 7.31327V8.68665C15.166 9.32665 14.6593 9.84662 14.0193 9.86662H12.6926ZM13.9793 7.1333H12.6126C12.3793 7.1333 12.166 7.21996 12.0126 7.37996C11.8193 7.56663 11.726 7.81995 11.7526 8.07328C11.786 8.51328 12.2126 8.86662 12.6926 8.86662H13.9993C14.086 8.86662 14.166 8.78665 14.166 8.68665V7.31327C14.166 7.21327 14.0859 7.13997 13.9793 7.1333Z" fill="#353535"/>
<path id="Vector_3" d="M10.6673 14.1666H4.66732C2.37398 14.1666 0.833984 12.6266 0.833984 10.3333V5.66665C0.833984 3.61331 2.10063 2.12665 4.0673 1.87998C4.2473 1.85332 4.45398 1.83331 4.66732 1.83331H10.6673C10.8273 1.83331 11.034 1.83998 11.2473 1.87331C13.214 2.09998 14.5007 3.59331 14.5007 5.66665V6.63332C14.5007 6.90665 14.274 7.13332 14.0007 7.13332H12.614C12.3806 7.13332 12.1673 7.21998 12.014 7.37998L12.0073 7.38666C11.8207 7.56666 11.734 7.8133 11.754 8.06663C11.7873 8.50663 12.214 8.85997 12.694 8.85997H14.0007C14.274 8.85997 14.5007 9.08663 14.5007 9.35997V10.3266C14.5007 12.6266 12.9607 14.1666 10.6673 14.1666ZM4.66732 2.83331C4.50732 2.83331 4.35398 2.84664 4.20064 2.86664C2.73398 3.0533 1.83398 4.11998 1.83398 5.66665V10.3333C1.83398 12.0533 2.94732 13.1666 4.66732 13.1666H10.6673C12.3873 13.1666 13.5007 12.0533 13.5007 10.3333V9.86664H12.694C11.6873 9.86664 10.834 9.11997 10.754 8.15997C10.7007 7.61331 10.9007 7.06666 11.3007 6.67999C11.6473 6.32666 12.114 6.13332 12.614 6.13332H13.5007V5.66665C13.5007 4.10665 12.5873 3.0333 11.1073 2.85997C10.9473 2.8333 10.8073 2.83331 10.6673 2.83331H4.66732V2.83331Z" fill="#353535"/>
</g>
</g>
</g>
</svg>
