<svg width="16" height="16" viewBox="0 0 16 16" fill="none" xmlns="http://www.w3.org/2000/svg">
<g id="vuesax/outline/warning-2">
<g id="vuesax/outline/warning-2_2">
<g id="warning-2">
<path id="Vector" d="M8 9.1665C7.72667 9.1665 7.5 8.93984 7.5 8.6665V5.1665C7.5 4.89317 7.72667 4.6665 8 4.6665C8.27333 4.6665 8.5 4.89317 8.5 5.1665V8.6665C8.5 8.93984 8.27333 9.1665 8 9.1665Z" fill="#A9791C"/>
<path id="Vector_2" d="M8.00004 11.4998C7.82004 11.4998 7.65336 11.4332 7.52669 11.3065C7.46669 11.2398 7.42005 11.1665 7.38005 11.0865C7.34671 11.0065 7.33337 10.9198 7.33337 10.8332C7.33337 10.6598 7.40669 10.4865 7.52669 10.3598C7.77336 10.1131 8.22672 10.1131 8.47339 10.3598C8.59339 10.4865 8.66671 10.6598 8.66671 10.8332C8.66671 10.9198 8.6467 11.0065 8.61336 11.0865C8.58003 11.1665 8.53339 11.2398 8.47339 11.3065C8.34672 11.4332 8.18004 11.4998 8.00004 11.4998Z" fill="#A9791C"/>
<path id="Vector_3" d="M8.00008 15.1667C7.55341 15.1667 7.10007 15.0534 6.70007 14.8201L2.74007 12.5334C1.94007 12.0667 1.44006 11.2067 1.44006 10.2801V5.72008C1.44006 4.79341 1.94007 3.93341 2.74007 3.46674L6.70007 1.18008C7.50007 0.713411 8.49342 0.713411 9.30009 1.18008L13.2601 3.46674C14.0601 3.93341 14.5601 4.79341 14.5601 5.72008V10.2801C14.5601 11.2067 14.0601 12.0667 13.2601 12.5334L9.30009 14.8201C8.90009 15.0534 8.44675 15.1667 8.00008 15.1667ZM8.00008 1.8334C7.72675 1.8334 7.44674 1.90674 7.20007 2.04674L3.24007 4.3334C2.74674 4.62006 2.44006 5.14674 2.44006 5.72008V10.2801C2.44006 10.8467 2.74674 11.3801 3.24007 11.6667L7.20007 13.9534C7.69341 14.2401 8.30675 14.2401 8.79342 13.9534L12.7534 11.6667C13.2468 11.3801 13.5534 10.8534 13.5534 10.2801V5.72008C13.5534 5.15341 13.2468 4.62006 12.7534 4.3334L8.79342 2.04674C8.55342 1.90674 8.27341 1.8334 8.00008 1.8334Z" fill="#A9791C"/>
</g>
</g>
</g>
</svg>
